{
.appVersion = "919";
DisplayStrings = (
"/fraction \U00BD"
);
classes = (
{
automatic = 1;
code = "A Aacute Abreve Acircumflex Adieresis Agrave Amacron Aogonek Aring Atilde AE B C Cacute Ccaron Ccedilla D Eth Dcaron Dcroat E Eacute Ecaron Ecircumflex Edieresis Edotaccent Egrave Emacron Eogonek F G Gbreve Gcommaaccent H I Iacute Icircumflex Idieresis Idotaccent Igrave Imacron Iogonek Itilde J Jcircumflex K Kcommaaccent L Lacute Lcaron Lcommaaccent Lslash M N Nacute Ncaron Ncommaaccent Ntilde O Oacute Ocircumflex Odieresis Ograve Ohungarumlaut Omacron Oslash Otilde OE P Thorn Q R Racute Rcaron Rcommaaccent S Sacute Scaron Scedilla Scommaaccent T Tcaron Tcommaaccent U Uacute Ucircumflex Udieresis Ugrave Uhungarumlaut Umacron Uogonek Uring V W X Y Yacute Ydieresis Z Zacute Zcaron Zdotaccent A-cy Be-cy Ve-cy Ge-cy Gje-cy Gheupturn-cy De-cy Ie-cy Iegrave-cy Io-cy Zhe-cy Ze-cy Ii-cy Iishort-cy Iigrave-cy Ka-cy Kje-cy El-cy Em-cy En-cy O-cy Pe-cy Er-cy Es-cy Te-cy U-cy Ushort-cy Ef-cy Ha-cy Che-cy Tse-cy Sha-cy Shcha-cy Dzhe-cy Softsign-cy Hardsign-cy Yeru-cy Lje-cy Nje-cy Dze-cy E-cy Ereversed-cy I-cy Yi-cy Je-cy Tshe-cy Iu-cy Ia-cy Dje-cy Yat-cy Yusbig-cy Fita-cy Izhitsa-cy Ghestroke-cy Ghemiddlehook-cy Zhedescender-cy Zedescender-cy Kadescender-cy Kaverticalstroke-cy Kabashkir-cy Endescender-cy Pedescender-cy Esdescender-cy Ustrait-cy Ustraitstroke-cy Chedescender-cy Cheverticalstroke-cy Shha-cy Palochka-cy Zhebreve-cy Chekhakassian-cy Abreve-cy Adieresis-cy Iebreve-cy Schwa-cy Zhedieresis-cy Zedieresis-cy Imacron-cy Idieresis-cy Odieresis-cy Obarred-cy Umacron-cy Udieresis-cy Uhungarumlaut-cy Chedieresis-cy Gedescender-cy Yerudieresis-cy Qa-cy We-cy";
name = Uppercase;
}
);
copyright = "Copyright (c) 2005-2012 by Jovanny Lemonad. All rights reserved.";
customParameters = (
{
name = license;
value = "This Font Software is licensed under the SIL Open Font License, Version 1.1. This license is available with a FAQ at: http://scripts.sil.org/OFL";
},
{
name = licenseURL;

glyphs = (
{
glyphname = A;
lastChange = "2016-09-19 21:25:12 +0000";
layers = (
{
layerId = UUID0;
paths = (
{
closed = 1;
nodes = (
"115 0 LINE",
"170 180 LINE",
"400 180 LINE",
"455 0 LINE",
"555 0 LINE",
"350 700 LINE",
"220 700 LINE",
"15 0 LINE"
);
},
{
closed = 1;
nodes = (
"270 525 LINE",
"274 540 OFFCURVE",
"277 556 OFFCURVE",
"280 571 CURVE",
"283 595 LINE",
"287 595 LINE",
"290 572 LINE",
"293 557 OFFCURVE",
"295 540 OFFCURVE",
"300 525 CURVE SMOOTH",
"380 250 LINE",
"190 250 LINE"
);
}
);
width = 570;
},
{
layerId = "6710F4E3-34F6-4C2D-8CE3-6A261897B433";
paths = (
{
closed = 1;
nodes = (
"155 0 LINE",
"200 160 LINE",
"400 160 LINE",
"445 0 LINE",
"585 0 LINE",
"380 700 LINE",
"220 700 LINE",
"15 0 LINE"
);
},
{
closed = 1;
nodes = (
"285 460 LINE",
"289 475 OFFCURVE",
"291 494 OFFCURVE",
"294 509 CURVE SMOOTH",
"298 535 LINE",
"302 535 LINE",
"305 509 LINE",
"308 494 OFFCURVE",
"310 476 OFFCURVE",
"315 460 CURVE SMOOTH",
"375 250 LINE",
"225 250 LINE"
);
}
);
width = 600;
}
);
unicode = 0041;
},
{
glyphname = AE;
lastChange = "2016-09-19 21:25:12 +0000";
layers = (
{
layerId = UUID0;
paths = (
{
closed = 1;
nodes = (
"80 0 LINE",
"165 200 LINE",
"395 200 LINE",
"395 0 LINE",
"785 0 LINE",
"785 70 LINE",
"495 70 LINE",
"495 330 LINE",
"725 330 LINE",
"725 400 LINE",
"495 400 LINE",
"495 630 LINE",
"785 630 LINE",
"785 700 LINE",
"275 700 LINE",
"-20 0 LINE"
);
},
{
closed = 1;
nodes = (
"345 630 LINE",
"395 630 LINE",
"395 270 LINE",
"195 270 LINE"
);
}
);
width = 815;
},
{
layerId = "6710F4E3-34F6-4C2D-8CE3-6A261897B433";
paths = (
{
closed = 1;
nodes = (
"115 0 LINE",
"195 190 LINE",
"400 190 LINE",
"400 0 LINE",
"820 0 LINE",
"820 90 LINE",
"540 90 LINE",
"540 320 LINE",
"760 320 LINE",
"760 410 LINE",
"540 410 LINE",
"540 610 LINE",
"820 610 LINE",
"820 700 LINE",
"270 700 LINE",
"-25 0 LINE"
);
},
{
closed = 1;
nodes = (
"370 610 LINE",
"400 610 LINE",
"400 280 LINE",
"235 280 LINE"
);
}
);
width = 845;
}
);
unicode = 00C6;
},
{
glyphname = B;
lastChange = "2016-09-19 21:25:12 +0000";
layers = (
{
layerId = UUID0;
paths = (
{
closed = 1;
nodes = (
"280 0 LINE SMOOTH",
"450 0 OFFCURVE",
"525 75 OFFCURVE",
"525 190 CURVE SMOOTH",
"525 267 OFFCURVE",
"490 311 OFFCURVE",
"455 338 CURVE SMOOTH",
"434 353 OFFCURVE",
"411 364 OFFCURVE",
"385 370 CURVE",
"406 376 OFFCURVE",
"425 386 OFFCURVE",
"442 399 CURVE SMOOTH",
"471 422 OFFCURVE",
"500 460 OFFCURVE",
"500 525 CURVE SMOOTH",
"500 625 OFFCURVE",
"425 700 OFFCURVE",
"280 700 CURVE SMOOTH",
"90 700 LINE",
"90 0 LINE"
);
},
{
closed = 1;
nodes = (
"190 330 LINE",
"280 330 LINE",
"380 330 OFFCURVE",
"425 285 OFFCURVE",
"425 200 CURVE SMOOTH",
"425 115 OFFCURVE",
"380 70 OFFCURVE",
"280 70 CURVE SMOOTH",
"190 70 LINE"
);
},
{
closed = 1;
nodes = (
"190 630 LINE",
"280 630 LINE SMOOTH",
"356 630 OFFCURVE",
"400 586 OFFCURVE",
"400 515 CURVE SMOOTH",
"400 444 OFFCURVE",
"356 400 OFFCURVE",
"280 400 CURVE SMOOTH",
"190 400 LINE"
);
}
);
width = 575;
},
{
layerId = "6710F4E3-34F6-4C2D-8CE3-6A261897B433";
paths = (
{
closed = 1;
nodes = (
"295 0 LINE SMOOTH",
"485 0 OFFCURVE",
"560 75 OFFCURVE",
"560 195 CURVE SMOOTH",
"560 272 OFFCURVE",
"522 317 OFFCURVE",
"485 341 CURVE SMOOTH",
"463 355 OFFCURVE",
"438 365 OFFCURVE",
"410 370 CURVE",
"433 375 OFFCURVE",
"454 384 OFFCURVE",
"472 396 CURVE SMOOTH",
"503 417 OFFCURVE",
"535 455 OFFCURVE",
"535 520 CURVE SMOOTH",
"535 624 OFFCURVE",
"459 700 OFFCURVE",
"295 700 CURVE SMOOTH",
"85 700 LINE",
"85 0 LINE"
);
},
{
closed = 1;
nodes = (
"225 320 LINE",
"295 320 LINE",
"378 320 OFFCURVE",
"420 282 OFFCURVE",
"420 205 CURVE SMOOTH",
"420 128 OFFCURVE",
"378 90 OFFCURVE",
"295 90 CURVE SMOOTH",
"225 90 LINE"
);
},
{
closed = 1;
nodes = (
"225 610 LINE",
"295 610 LINE SMOOTH",
"355 610 OFFCURVE",
"395 570 OFFCURVE",
"395 510 CURVE SMOOTH",
"395 450 OFFCURVE",
"355 410 OFFCURVE",
"295 410 CURVE SMOOTH",
"225 410 LINE"
);
}
);
width = 610;
}
);
unicode = 0042;
},
{
glyphname = C;
lastChange = "2016-09-19 21:25:12 +0000";
layers = (
{
layerId = UUID0;
paths = (
{
closed = 1;
nodes = (
"371 -10 OFFCURVE",
"413 2 OFFCURVE",
"444 17 CURVE SMOOTH",
"461 25 OFFCURVE",
"477 34 OFFCURVE",
"490 45 CURVE",
"455 105 LINE",
"445 105 LINE",
"434 96 OFFCURVE",
"423 89 OFFCURVE",
"411 82 CURVE SMOOTH",
"390 71 OFFCURVE",
"360 60 OFFCURVE",
"325 60 CURVE SMOOTH",
"225 60 OFFCURVE",
"155 130 OFFCURVE",
"155 350 CURVE SMOOTH",
"155 570 OFFCURVE",
"225 640 OFFCURVE",
"315 640 CURVE SMOOTH",
"350 640 OFFCURVE",
"380 628 OFFCURVE",
"401 617 CURVE SMOOTH",
"413 610 OFFCURVE",
"424 603 OFFCURVE",
"435 595 CURVE",
"445 595 LINE",
"480 655 LINE",
"467 665 OFFCURVE",
"451 674 OFFCURVE",
"434 682 CURVE SMOOTH",
"403 697 OFFCURVE",
"361 710 OFFCURVE",
"305 710 CURVE SMOOTH",
"156 710 OFFCURVE",
"55 610 OFFCURVE",
"55 350 CURVE SMOOTH",
"55 90 OFFCURVE",
"155 -10 OFFCURVE",
"315 -10 CURVE SMOOTH"
);
}
);
width = 515;
},
{
layerId = "6710F4E3-34F6-4C2D-8CE3-6A261897B433";
paths = (
{
closed = 1;
nodes = (
"387 -10 OFFCURVE",
"434 2 OFFCURVE",
"466 17 CURVE SMOOTH",
"485 25 OFFCURVE",
"501 34 OFFCURVE",
"515 45 CURVE",
"470 125 LINE",
"460 125 LINE",
"451 116 OFFCURVE",
"440 109 OFFCURVE",
"428 102 CURVE SMOOTH",
"407 91 OFFCURVE",
"377 80 OFFCURVE",
"340 80 CURVE SMOOTH",
"250 80 OFFCURVE",
"190 139 OFFCURVE",
"190 350 CURVE SMOOTH",
"190 561 OFFCURVE",
"250 620 OFFCURVE",
"330 620 CURVE SMOOTH",
"367 620 OFFCURVE",
"397 608 OFFCURVE",
"418 597 CURVE SMOOTH",
"430 590 OFFCURVE",
"441 583 OFFCURVE",
"450 575 CURVE",
"460 575 LINE",
"505 655 LINE",
"491 665 OFFCURVE",
"475 674 OFFCURVE",
"456 682 CURVE SMOOTH",
"424 697 OFFCURVE",
"377 710 OFFCURVE",
"320 710 CURVE SMOOTH",
"155 710 OFFCURVE",
"50 605 OFFCURVE",
"50 350 CURVE SMOOTH",
"50 95 OFFCURVE",
"154 -10 OFFCURVE",
"330 -10 CURVE SMOOTH"
);
}
);
width = 535;
}
);
unicode = 0043;
},
{
glyphname = D;
lastChange = "2016-09-19 21:25:12 +0000";
layers = (
{
layerId = UUID0;
paths = (
{
closed = 1;
nodes = (
"240 0 LINE",
"430 0 OFFCURVE",
"530 99 OFFCURVE",
"530 350 CURVE SMOOTH",
"530 601 OFFCURVE",
"430 700 OFFCURVE",
"240 700 CURVE SMOOTH",
"90 700 LINE",
"90 0 LINE"
);
},
{
closed = 1;
nodes = (
"190 630 LINE",
"240 630 LINE SMOOTH",
"360 630 OFFCURVE",
"430 561 OFFCURVE",
"430 350 CURVE SMOOTH",
"430 139 OFFCURVE",
"360 70 OFFCURVE",
"240 70 CURVE SMOOTH",
"190 70 LINE"
);
}
);
width = 585;
},
{
layerId = "6710F4E3-34F6-4C2D-8CE3-6A261897B433";
paths = (
{
closed = 1;
nodes = (
"255 0 LINE",
"455 0 OFFCURVE",
"565 110 OFFCURVE",
"565 350 CURVE SMOOTH",
"565 590 OFFCURVE",
"455 700 OFFCURVE",
"255 700 CURVE SMOOTH",
"85 700 LINE",
"85 0 LINE"
);
},
{
closed = 1;
nodes = (
"225 610 LINE",
"255 610 LINE SMOOTH",
"365 610 OFFCURVE",
"425 550 OFFCURVE",
"425 350 CURVE SMOOTH",
"425 150 OFFCURVE",
"365 90 OFFCURVE",
"255 90 CURVE SMOOTH",
"225 90 LINE"
);
}
);
width = 615;
}
);
unicode = 0044;
},
{
glyphname = Eth;
lastChange = "2016-09-19 21:25:12 +0000";
layers = (
{
layerId = UUID0;
paths = (
{
closed = 1;
nodes = (
"240 0 LINE",
"430 0 OFFCURVE",
"530 99 OFFCURVE",
"530 350 CURVE SMOOTH",
"530 601 OFFCURVE",
"430 700 OFFCURVE",
"240 700 CURVE SMOOTH",
"90 700 LINE",
"90 400 LINE",
"35 400 LINE",
"35 320 LINE",
"90 320 LINE",
"90 0 LINE"
);
},
{
closed = 1;
nodes = (
"190 320 LINE",
"305 320 LINE",
"305 400 LINE",
"190 400 LINE",
"190 630 LINE",
"240 630 LINE SMOOTH",
"360 630 OFFCURVE",
"430 561 OFFCURVE",
"430 350 CURVE SMOOTH",
"430 139 OFFCURVE",
"360 70 OFFCURVE",
"240 70 CURVE SMOOTH",
"190 70 LINE"
);
}
);
width = 585;
},
{
layerId = "6710F4E3-34F6-4C2D-8CE3-6A261897B433";
paths = (
{
closed = 1;
nodes = (
"260 0 LINE SMOOTH",
"460 0 OFFCURVE",
"570 110 OFFCURVE",
"570 350 CURVE SMOOTH",
"570 590 OFFCURVE",
"460 700 OFFCURVE",
"260 700 CURVE SMOOTH",
"90 700 LINE",
"90 410 LINE",
"35 410 LINE",
"35 310 LINE",
"90 310 LINE",
"90 0 LINE"
);
},
{
closed = 1;
nodes = (
"230 310 LINE",
"325 310 LINE",
"325 410 LINE",
"230 410 LINE",
"230 610 LINE",
"260 610 LINE SMOOTH",
"370 610 OFFCURVE",
"430 550 OFFCURVE",
"430 350 CURVE SMOOTH",
"430 150 OFFCURVE",
"370 90 OFFCURVE",
"260 90 CURVE SMOOTH",
"230 90 LINE"
);
}
);
width = 620;
}
);
unicode = 00D0;
},
{
glyphname = Dcroat;
lastChange = "2016-09-19 21:25:12 +0000";
layers = (
{
layerId = UUID0;
paths = (
{
closed = 1;
nodes = (
"240 0 LINE",
"430 0 OFFCURVE",
"530 99 OFFCURVE",
"530 350 CURVE SMOOTH",
"530 601 OFFCURVE",
"430 700 OFFCURVE",
"240 700 CURVE SMOOTH",
"90 700 LINE",
"90 400 LINE",
"35 400 LINE",
"35 320 LINE",
"90 320 LINE",
"90 0 LINE"
);
},
{
closed = 1;
nodes = (
"190 320 LINE",
"305 320 LINE",
"305 400 LINE",
"190 400 LINE",
"190 630 LINE",
"240 630 LINE SMOOTH",
"360 630 OFFCURVE",
"430 561 OFFCURVE",
"430 350 CURVE SMOOTH",
"430 139 OFFCURVE",
"360 70 OFFCURVE",
"240 70 CURVE SMOOTH",
"190 70 LINE"
);
}
);
width = 585;
},
{
layerId = "6710F4E3-34F6-4C2D-8CE3-6A261897B433";
paths = (
{
closed = 1;
nodes = (
"260 0 LINE SMOOTH",
"460 0 OFFCURVE",
"570 110 OFFCURVE",
"570 350 CURVE SMOOTH",
"570 590 OFFCURVE",
"460 700 OFFCURVE",
"260 700 CURVE SMOOTH",
"90 700 LINE",
"90 410 LINE",
"35 410 LINE",
"35 310 LINE",
"90 310 LINE",
"90 0 LINE"
);
},
{
closed = 1;
nodes = (
"230 310 LINE",
"325 310 LINE",
"325 410 LINE",
"230 410 LINE",
"230 610 LINE",
"260 610 LINE SMOOTH",
"370 610 OFFCURVE",
"430 550 OFFCURVE",
"430 350 CURVE SMOOTH",
"430 150 OFFCURVE",
"370 90 OFFCURVE",
"260 90 CURVE SMOOTH",
"230 90 LINE"
);
}
);
width = 620;
}
);
unicode = 0110;
},
{
glyphname = E;
lastChange = "2016-09-03 14:45:42 +0000";
layers = (
{
layerId = UUID0;
paths = (
{
closed = 1;
nodes = (
"480 0 LINE",
"480 70 LINE",
"190 70 LINE",
"190 330 LINE",
"420 330 LINE",
"420 400 LINE",
"190 400 LINE",
"190 630 LINE",
"480 630 LINE",
"480 700 LINE",
"90 700 LINE",
"90 0 LINE"
);
}
);
width = 510;
},
{
layerId = "6710F4E3-34F6-4C2D-8CE3-6A261897B433";
paths = (
{
closed = 1;
nodes = (
"505 0 LINE",
"505 90 LINE",
"225 90 LINE",
"225 320 LINE",
"445 320 LINE",
"445 410 LINE",
"225 410 LINE",
"225 610 LINE",
"505 610 LINE",
"505 700 LINE",
"85 700 LINE",
"85 0 LINE"
);
}
);
width = 530;
}
);
unicode = 0045;
},
{
glyphname = F;
lastChange = "2016-09-03 14:45:42 +0000";
layers = (
{
layerId = UUID0;
paths = (
{
closed = 1;
nodes = (
"190 0 LINE",
"190 320 LINE",
"420 320 LINE",
"420 390 LINE",
"190 390 LINE",
"190 630 LINE",
"480 630 LINE",
"480 700 LINE",
"90 700 LINE",
"90 0 LINE"
);
}
);
width = 500;
},
{
layerId = "6710F4E3-34F6-4C2D-8CE3-6A261897B433";
paths = (
{
closed = 1;
nodes = (
"225 0 LINE",
"225 310 LINE",
"445 310 LINE",
"445 400 LINE",
"225 400 LINE",
"225 610 LINE",
"505 610 LINE",
"505 700 LINE",
"85 700 LINE",
"85 0 LINE"
);
}
);
width = 525;
}
);
unicode = 0046;
},
{
glyphname = G;
lastChange = "2016-09-19 21:25:12 +0000";
layers = (
{
layerId = UUID0;
paths = (
{
closed = 1;
nodes = (
"372 -10 OFFCURVE",
"419 2 OFFCURVE",
"451 17 CURVE SMOOTH",
"470 25 OFFCURVE",
"486 34 OFFCURVE",
"500 45 CURVE",
"500 350 LINE",
"470 380 LINE",
"285 380 LINE",
"285 310 LINE",
"400 310 LINE",
"400 80 LINE",
"400 80 OFFCURVE",
"365 61 OFFCURVE",
"325 60 CURVE",
"225 60 OFFCURVE",
"155 130 OFFCURVE",
"155 350 CURVE SMOOTH",
"155 570 OFFCURVE",
"225 640 OFFCURVE",
"315 640 CURVE SMOOTH",
"350 640 OFFCURVE",
"380 628 OFFCURVE",
"401 617 CURVE SMOOTH",
"413 610 OFFCURVE",
"424 603 OFFCURVE",
"435 595 CURVE",
"445 595 LINE",
"480 655 LINE",
"467 665 OFFCURVE",
"451 674 OFFCURVE",
"434 682 CURVE SMOOTH",
"403 697 OFFCURVE",
"361 710 OFFCURVE",
"305 710 CURVE SMOOTH",
"165 710 OFFCURVE",
"55 601 OFFCURVE",
"55 350 CURVE SMOOTH",
"55 99 OFFCURVE",
"165 -10 OFFCURVE",
"315 -10 CURVE SMOOTH"
);
}
);
width = 565;
},
{
layerId = "6710F4E3-34F6-4C2D-8CE3-6A261897B433";
paths = (
{
closed = 1;
nodes = (
"395 -10 OFFCURVE",
"444 2 OFFCURVE",
"479 17 CURVE SMOOTH",
"499 25 OFFCURVE",
"516 34 OFFCURVE",
"530 45 CURVE",
"530 350 LINE",
"490 390 LINE",
"285 390 LINE",
"285 300 LINE",
"390 300 LINE",
"390 90 LINE",
"385 88 OFFCURVE",
"379 86 OFFCURVE",
"374 85 CURVE SMOOTH",
"364 82 OFFCURVE",
"353 80 OFFCURVE",
"340 80 CURVE SMOOTH",
"250 80 OFFCURVE",
"190 139 OFFCURVE",
"190 350 CURVE SMOOTH",
"190 561 OFFCURVE",
"250 620 OFFCURVE",
"330 620 CURVE SMOOTH",
"367 620 OFFCURVE",
"397 608 OFFCURVE",
"418 597 CURVE SMOOTH",
"430 590 OFFCURVE",
"441 583 OFFCURVE",
"450 575 CURVE",
"460 575 LINE",
"505 655 LINE",
"491 665 OFFCURVE",
"475 674 OFFCURVE",
"456 682 CURVE SMOOTH",
"424 697 OFFCURVE",
"377 710 OFFCURVE",
"320 710 CURVE SMOOTH",
"155 710 OFFCURVE",
"50 605 OFFCURVE",
"50 350 CURVE SMOOTH",
"50 95 OFFCURVE",
"154 -10 OFFCURVE",
"330 -10 CURVE SMOOTH"
);
}
);
width = 590;
}
);
unicode = 0047;
},
{
glyphname = H;
lastChange = "2016-09-19 21:25:12 +0000";
layers = (
{
layerId = UUID0;
paths = (
{
closed = 1;
nodes = (
"190 0 LINE",
"190 320 LINE",
"440 320 LINE",
"440 0 LINE",
"540 0 LINE",
"540 700 LINE",
"440 700 LINE",
"440 390 LINE",
"190 390 LINE",
"190 700 LINE",
"90 700 LINE",
"90 0 LINE"
);
}
);
width = 630;
},
{
layerId = "6710F4E3-34F6-4C2D-8CE3-6A261897B433";
paths = (
{
closed = 1;
nodes = (
"225 0 LINE",
"225 310 LINE",
"435 310 LINE",
"435 0 LINE",
"575 0 LINE",
"575 700 LINE",
"435 700 LINE",
"435 400 LINE",
"225 400 LINE",
"225 700 LINE",
"85 700 LINE",
"85 0 LINE"
);
}
);
width = 660;
}
);
unicode = 0048;
},
{
glyphname = I;
lastChange = "2016-09-19 21:25:12 +0000";
layers = (
{
anchors = (
{
name = bottom;
position = "{140, 0}";
},
{
name = ogonek;
position = "{190, 0}";
},
{
name = top;
position = "{140, 700}";
},
{
name = topleft;
position = "{20, 700}";
}
);
layerId = UUID0;
paths = (
{
closed = 1;
nodes = (
"190 0 LINE",
"190 700 LINE",
"90 700 LINE",
"90 0 LINE"
);
}
);
width = 280;
},
{
anchors = (
{
name = bottom;
position = "{155, 0}";
},
{
name = ogonek;
position = "{225, 0}";
},
{
name = top;
position = "{155, 700}";
},
{
name = topleft;
position = "{20, 700}";
}
);
layerId = "6710F4E3-34F6-4C2D-8CE3-6A261897B433";
paths = (
{
closed = 1;
nodes = (
"225 0 LINE",
"225 700 LINE",
"85 700 LINE",
"85 0 LINE"
);
}
);
width = 310;
}
);
unicode = 0049;
},
{
glyphname = J;
lastChange = "2016-09-19 21:25:12 +0000";
layers = (
{
layerId = UUID0;
paths = (
{
closed = 1;
nodes = (
"271 -10 OFFCURVE",
"340 59 OFFCURVE",
"340 190 CURVE SMOOTH",
"340 700 LINE",
"240 700 LINE",
"240 190 LINE SMOOTH",
"240 99 OFFCURVE",
"201 60 OFFCURVE",
"125 60 CURVE SMOOTH",
"102 60 OFFCURVE",
"82 69 OFFCURVE",
"66 80 CURVE SMOOTH",
"57 86 OFFCURVE",
"48 93 OFFCURVE",
"40 100 CURVE",
"30 100 LINE",
"0 35 LINE",
"11 26 OFFCURVE",
"23 19 OFFCURVE",
"37 12 CURVE SMOOTH",
"61 1 OFFCURVE",
"95 -10 OFFCURVE",
"135 -10 CURVE SMOOTH"
);
}
);
width = 425;
},
{
layerId = "6710F4E3-34F6-4C2D-8CE3-6A261897B433";
paths = (
{
closed = 1;
nodes = (
"295 -10 OFFCURVE",
"375 70 OFFCURVE",
"375 190 CURVE SMOOTH",
"375 700 LINE",
"235 700 LINE",
"235 190 LINE SMOOTH",
"235 114 OFFCURVE",
"200 80 OFFCURVE",
"140 80 CURVE SMOOTH",
"117 80 OFFCURVE",
"95 89 OFFCURVE",
"78 100 CURVE SMOOTH",
"68 106 OFFCURVE",
"59 113 OFFCURVE",
"50 120 CURVE",
"40 120 LINE",
"0 35 LINE",
"13 26 OFFCURVE",
"28 19 OFFCURVE",
"45 12 CURVE SMOOTH",
"72 1 OFFCURVE",
"110 -10 OFFCURVE",
"150 -10 CURVE SMOOTH"
);
}
);
width = 450;
}
);
unicode = 004A;
},
{
glyphname = K;
lastChange = "2016-09-19 21:25:12 +0000";
layers = (
{
layerId = UUID0;
paths = (
{
closed = 1;
nodes = (
"190 0 LINE",
"190 350 LINE",
"425 0 LINE",
"540 0 LINE",
"300 360 LINE",
"530 700 LINE",
"415 700 LINE",
"190 370 LINE",
"190 700 LINE",
"90 700 LINE",
"90 0 LINE"
);
}
);
width = 555;
},
{
layerId = "6710F4E3-34F6-4C2D-8CE3-6A261897B433";
paths = (
{
closed = 1;
nodes = (
"225 0 LINE",
"225 330 LINE",
"420 0 LINE",
"580 0 LINE",
"355 365 LINE",
"565 700 LINE",
"410 700 LINE",
"225 390 LINE",
"225 700 LINE",
"85 700 LINE",
"85 0 LINE"
);
}
);
width = 585;
}
);
unicode = 004B;
},
{
glyphname = L;
lastChange = "2016-09-19 21:25:12 +0000";
layers = (
{
layerId = UUID0;
paths = (
{
closed = 1;
nodes = (
"480 0 LINE",
"480 70 LINE",
"190 70 LINE",
"190 700 LINE",
"90 700 LINE",
"90 0 LINE"
);
}
);
width = 490;
},
{
layerId = "6710F4E3-34F6-4C2D-8CE3-6A261897B433";
paths = (
{
closed = 1;
nodes = (
"495 0 LINE",
"495 90 LINE",
"225 90 LINE",
"225 700 LINE",
"85 700 LINE",
"85 0 LINE"
);
}
);
width = 505;
}
);
unicode = 004C;
},
{
glyphname = Lcaron;
lastChange = "2016-09-19 21:25:12 +0000";
layers = (
{
layerId = UUID0;
paths = (
{
closed = 1;
nodes = (
"480 0 LINE",
"480 70 LINE",
"190 70 LINE",
"190 700 LINE",
"90 700 LINE",
"90 0 LINE"
);
},
{
closed = 1;
nodes = (
"310 493 OFFCURVE",
"323 505 OFFCURVE",
"335 520 CURVE SMOOTH",
"355 545 OFFCURVE",
"375 583 OFFCURVE",
"375 636 CURVE SMOOTH",
"375 675 OFFCURVE",
"350 700 OFFCURVE",
"315 700 CURVE SMOOTH",
"290 700 OFFCURVE",
"265 676 OFFCURVE",
"265 645 CURVE SMOOTH",
"265 614 OFFCURVE",
"290 590 OFFCURVE",
"315 590 CURVE",
"315 570 OFFCURVE",
"302 552 OFFCURVE",
"290 537 CURVE SMOOTH",
"283 529 OFFCURVE",
"274 522 OFFCURVE",
"265 515 CURVE",
"295 484 LINE"
);
}
);
width = 490;
},
{
layerId = "6710F4E3-34F6-4C2D-8CE3-6A261897B433";
paths = (
{
closed = 1;
nodes = (
"495 0 LINE",
"495 90 LINE",
"225 90 LINE",
"225 700 LINE",
"85 700 LINE",
"85 0 LINE"
);
},
{
closed = 1;
nodes = (
"341 470 OFFCURVE",
"355 483 OFFCURVE",
"367 499 CURVE SMOOTH",
"388 526 OFFCURVE",
"410 566 OFFCURVE",
"410 625 CURVE SMOOTH",
"410 672 OFFCURVE",
"383 700 OFFCURVE",
"340 700 CURVE SMOOTH",
"308 700 OFFCURVE",
"280 672 OFFCURVE",
"280 635 CURVE SMOOTH",
"280 603 OFFCURVE",
"307 575 OFFCURVE",
"350 575 CURVE",
"350 552 OFFCURVE",
"337 533 OFFCURVE",
"322 518 CURVE SMOOTH",
"314 509 OFFCURVE",
"305 501 OFFCURVE",
"295 494 CURVE",
"325 460 LINE"
);
}
);
width = 505;
}
);
unicode = 013D;
},
{
glyphname = Lslash;
lastChange = "2016-09-19 21:25:12 +0000";
layers = (
{
layerId = UUID0;
paths = (
{
closed = 1;
nodes = (
"462 0 LINE",
"462 70 LINE",
"182 70 LINE",
"182 345 LINE",
"295 430 LINE",
"295 540 LINE",
"182 455 LINE",
"182 700 LINE",
"82 700 LINE",
"82 380 LINE",
"15 330 LINE",
"15 220 LINE",
"82 270 LINE",
"82 0 LINE"
);
}
);
width = 472;
},
{
layerId = "6710F4E3-34F6-4C2D-8CE3-6A261897B433";
paths = (
{
closed = 1;
nodes = (
"500 0 LINE",
"500 90 LINE",
"230 90 LINE",
"230 353 LINE",
"320 420 LINE",
"320 550 LINE",
"230 483 LINE",
"230 700 LINE",
"90 700 LINE",
"90 380 LINE",
"35 340 LINE",
"35 210 LINE",
"90 250 LINE",
"90 0 LINE"
);
}
);
width = 510;
}
);
unicode = 0141;
},
{
glyphname = M;
lastChange = "2016-09-19 21:25:12 +0000";
layers = (
{
layerId = UUID0;
paths = (
{
closed = 1;
nodes = (
"190 0 LINE",
"190 420 LINE SMOOTH",
"190 435 OFFCURVE",
"189 455 OFFCURVE",
"188 474 CURVE SMOOTH",
"186 505 LINE",
"190 505 LINE",
"199 474 LINE",
"206 455 OFFCURVE",
"212 435 OFFCURVE",
"220 420 CURVE SMOOTH",
"370 125 LINE",
"470 125 LINE",
"620 420 LINE SMOOTH",
"627 435 OFFCURVE",
"634 455 OFFCURVE",
"641 474 CURVE",
"650 505 LINE",
"654 505 LINE",
"652 474 LINE SMOOTH",
"651 455 OFFCURVE",
"650 435 OFFCURVE",
"650 420 CURVE SMOOTH",
"650 0 LINE",
"750 0 LINE",
"750 700 LINE",
"650 700 LINE",
"440 275 LINE",
"435 267 OFFCURVE",
"430 255 OFFCURVE",
"427 244 CURVE SMOOTH",
"425 237 OFFCURVE",
"423 231 OFFCURVE",
"422 225 CURVE",
"418 225 LINE",
"417 231 OFFCURVE",
"415 237 OFFCURVE",
"413 244 CURVE SMOOTH",
"410 255 OFFCURVE",
"405 267 OFFCURVE",
"400 275 CURVE",
"190 700 LINE",
"90 700 LINE",
"90 0 LINE"
);
}
);
width = 840;
},
{
layerId = "6710F4E3-34F6-4C2D-8CE3-6A261897B433";
paths = (
{
closed = 1;
nodes = (
"225 0 LINE",
"225 365 LINE SMOOTH",
"225 380 OFFCURVE",
"223 396 OFFCURVE",
"222 409 CURVE SMOOTH",
"220 431 LINE",
"224 431 LINE",
"226 424 OFFCURVE",
"228 416 OFFCURVE",
"231 409 CURVE SMOOTH",
"236 396 OFFCURVE",
"242 380 OFFCURVE",
"250 365 CURVE SMOOTH",
"375 115 LINE",
"495 115 LINE",
"620 365 LINE SMOOTH",
"627 380 OFFCURVE",
"634 396 OFFCURVE",
"639 409 CURVE SMOOTH",
"642 416 OFFCURVE",
"644 424 OFFCURVE",
"646 431 CURVE",
"650 431 LINE",
"647 409 LINE SMOOTH",
"646 396 OFFCURVE",
"645 380 OFFCURVE",
"645 365 CURVE SMOOTH",
"645 0 LINE",
"785 0 LINE",
"785 700 LINE",
"650 700 LINE",
"455 305 LINE SMOOTH",
"450 294 OFFCURVE",
"445 283 OFFCURVE",
"442 272 CURVE SMOOTH",
"437 255 LINE",
"433 255 LINE",
"428 272 LINE SMOOTH",
"425 283 OFFCURVE",
"420 294 OFFCURVE",
"415 305 CURVE SMOOTH",
"220 700 LINE",
"85 700 LINE",
"85 0 LINE"
);
}
);
width = 870;
}
);
unicode = 004D;
},
{
glyphname = N;
lastChange = "2016-09-19 21:25:12 +0000";
layers = (
{
layerId = UUID0;
paths = (
{
closed = 1;
nodes = (
"190 0 LINE",
"190 445 LINE SMOOTH",
"190 460 OFFCURVE",
"189 480 OFFCURVE",
"188 499 CURVE SMOOTH",
"186 530 LINE",
"190 530 LINE",
"193 519 OFFCURVE",
"197 509 OFFCURVE",
"200 499 CURVE SMOOTH",
"207 480 OFFCURVE",
"213 460 OFFCURVE",
"220 445 CURVE SMOOTH",
"430 0 LINE",
"540 0 LINE",
"540 700 LINE",
"440 700 LINE",
"440 255 LINE SMOOTH",
"440 240 OFFCURVE",
"441 218 OFFCURVE",
"442 201 CURVE SMOOTH",
"444 170 LINE",
"440 170 LINE",
"437 180 OFFCURVE",
"433 190 OFFCURVE",
"430 201 CURVE",
"423 218 OFFCURVE",
"417 240 OFFCURVE",
"410 255 CURVE SMOOTH",
"200 700 LINE",
"90 700 LINE",
"90 0 LINE"
);
}
);
width = 630;
},
{
layerId = "6710F4E3-34F6-4C2D-8CE3-6A261897B433";
paths = (
{
closed = 1;
nodes = (
"225 0 LINE",
"225 390 LINE SMOOTH",
"225 405 OFFCURVE",
"223 421 OFFCURVE",
"222 434 CURVE SMOOTH",
"220 455 LINE",
"224 455 LINE",
"232 434 LINE SMOOTH",
"237 421 OFFCURVE",
"243 405 OFFCURVE",
"250 390 CURVE SMOOTH",
"425 0 LINE",
"575 0 LINE",
"575 700 LINE",
"435 700 LINE",
"435 310 LINE SMOOTH",
"435 295 OFFCURVE",
"436 278 OFFCURVE",
"437 266 CURVE SMOOTH",
"440 245 LINE",
"436 245 LINE",
"428 266 LINE SMOOTH",
"423 278 OFFCURVE",
"417 295 OFFCURVE",
"410 310 CURVE SMOOTH",
"235 700 LINE",
"85 700 LINE",
"85 0 LINE"
);
}
);
width = 660;
}
);
unicode = 004E;
},
{
glyphname = O;
lastChange = "2016-09-19 21:25:12 +0000";
layers = (
{
layerId = UUID0;
paths = (
{
closed = 1;
nodes = (
"445 -10 OFFCURVE",
"545 90 OFFCURVE",
"545 350 CURVE SMOOTH",
"545 610 OFFCURVE",
"445 710 OFFCURVE",
"300 710 CURVE SMOOTH",
"155 710 OFFCURVE",
"55 610 OFFCURVE",
"55 350 CURVE SMOOTH",
"55 90 OFFCURVE",
"155 -10 OFFCURVE",
"300 -10 CURVE SMOOTH"
);
},
{
closed = 1;
nodes = (
"225 60 OFFCURVE",
"155 130 OFFCURVE",
"155 350 CURVE SMOOTH",
"155 570 OFFCURVE",
"225 640 OFFCURVE",
"300 640 CURVE SMOOTH",
"375 640 OFFCURVE",
"445 570 OFFCURVE",
"445 350 CURVE SMOOTH",
"445 130 OFFCURVE",
"375 60 OFFCURVE",
"300 60 CURVE SMOOTH"
);
}
);
width = 600;
},
{
layerId = "6710F4E3-34F6-4C2D-8CE3-6A261897B433";
paths = (
{
closed = 1;
nodes = (
"475 -10 OFFCURVE",
"580 95 OFFCURVE",
"580 350 CURVE SMOOTH",
"580 605 OFFCURVE",
"475 710 OFFCURVE",
"315 710 CURVE SMOOTH",
"155 710 OFFCURVE",
"50 605 OFFCURVE",
"50 350 CURVE SMOOTH",
"50 95 OFFCURVE",
"155 -10 OFFCURVE",
"315 -10 CURVE SMOOTH"
);
},
{
closed = 1;
nodes = (
"250 80 OFFCURVE",
"190 139 OFFCURVE",
"190 350 CURVE SMOOTH",
"190 561 OFFCURVE",
"250 620 OFFCURVE",
"315 620 CURVE SMOOTH",
"380 620 OFFCURVE",
"440 561 OFFCURVE",
"440 350 CURVE SMOOTH",
"440 139 OFFCURVE",
"380 80 OFFCURVE",
"315 80 CURVE SMOOTH"
);
}
);
width = 630;
}
);
unicode = 004F;
},
{
glyphname = Oslash;
lastChange = "2016-09-19 21:25:12 +0000";
layers = (
{
layerId = UUID0;
paths = (
{
closed = 1;
nodes = (
"445 -10 OFFCURVE",
"545 90 OFFCURVE",
"545 350 CURVE SMOOTH",
"545 467 OFFCURVE",
"525 553 OFFCURVE",
"489 610 CURVE",
"540 700 LINE",
"460 700 LINE",
"440 665 LINE",
"402 695 OFFCURVE",
"355 710 OFFCURVE",
"300 710 CURVE SMOOTH",
"155 710 OFFCURVE",
"55 610 OFFCURVE",
"55 350 CURVE SMOOTH",
"55 231 OFFCURVE",
"75 148 OFFCURVE",
"111 89 CURVE",
"60 0 LINE",
"140 0 LINE",
"160 35 LINE",
"199 4 OFFCURVE",
"245 -10 OFFCURVE",
"300 -10 CURVE SMOOTH"
);
},
{
closed = 1;
nodes = (
"265 60 OFFCURVE",
"232 74 OFFCURVE",
"205 113 CURVE",
"429 505 LINE",
"440 465 OFFCURVE",
"445 414 OFFCURVE",
"445 350 CURVE SMOOTH",
"445 130 OFFCURVE",
"375 60 OFFCURVE",
"300 60 CURVE SMOOTH"
);
},
{
closed = 1;
nodes = (
"160 235 OFFCURVE",
"155 286 OFFCURVE",
"155 350 CURVE SMOOTH",
"155 570 OFFCURVE",
"225 640 OFFCURVE",
"300 640 CURVE SMOOTH",
"335 640 OFFCURVE",
"368 625 OFFCURVE",
"395 586 CURVE",
"171 194 LINE"
);
}
);
width = 600;
},
{
layerId = "6710F4E3-34F6-4C2D-8CE3-6A261897B433";
paths = (
{
closed = 1;
nodes = (
"475 -10 OFFCURVE",
"580 95 OFFCURVE",
"580 350 CURVE SMOOTH",
"580 463 OFFCURVE",
"559 545 OFFCURVE",
"523 604 CURVE",
"580 700 LINE",
"465 700 LINE",
"450 676 LINE",
"413 699 OFFCURVE",
"368 710 OFFCURVE",
"315 710 CURVE SMOOTH",
"155 710 OFFCURVE",
"50 605 OFFCURVE",
"50 350 CURVE SMOOTH",
"50 237 OFFCURVE",
"70 155 OFFCURVE",
"107 96 CURVE",
"50 0 LINE",
"165 0 LINE",
"179 24 LINE",
"218 1 OFFCURVE",
"263 -10 OFFCURVE",
"315 -10 CURVE SMOOTH"
);
},
{
closed = 1;
nodes = (
"286 80 OFFCURVE",
"260 91 OFFCURVE",
"237 122 CURVE",
"434 453 LINE",
"438 424 OFFCURVE",
"440 389 OFFCURVE",
"440 350 CURVE SMOOTH",
"440 139 OFFCURVE",
"380 80 OFFCURVE",
"315 80 CURVE SMOOTH"
);
},
{
closed = 1;
nodes = (
"192 275 OFFCURVE",
"190 309 OFFCURVE",
"190 350 CURVE SMOOTH",
"190 561 OFFCURVE",
"250 620 OFFCURVE",
"315 620 CURVE SMOOTH",
"343 620 OFFCURVE",
"369 609 OFFCURVE",
"392 578 CURVE",
"196 246 LINE"
);
}
);
width = 630;
}
);
unicode = 00D8;
},
{
glyphname = OE;
lastChange = "2016-09-19 21:25:12 +0000";
layers = (
{
layerId = UUID0;
paths = (
{
closed = 1;
nodes = (
"785 0 LINE",
"785 70 LINE",
"495 70 LINE",
"495 330 LINE",
"725 330 LINE",
"725 400 LINE",
"495 400 LINE",
"495 630 LINE",
"785 630 LINE",
"785 700 LINE",
"345 700 LINE SMOOTH",
"155 700 OFFCURVE",
"55 601 OFFCURVE",
"55 350 CURVE SMOOTH",
"55 99 OFFCURVE",
"155 0 OFFCURVE",
"345 0 CURVE SMOOTH"
);
},
{
closed = 1;
nodes = (
"225 70 OFFCURVE",
"155 139 OFFCURVE",
"155 350 CURVE SMOOTH",
"155 561 OFFCURVE",
"225 630 OFFCURVE",
"345 630 CURVE SMOOTH",
"395 630 LINE",
"395 70 LINE",
"345 70 LINE"
);
}
);
width = 815;
},
{
layerId = "6710F4E3-34F6-4C2D-8CE3-6A261897B433";
paths = (
{
closed = 1;
nodes = (
"810 0 LINE",
"810 90 LINE",
"540 90 LINE",
"540 320 LINE",
"750 320 LINE",
"750 410 LINE",
"540 410 LINE",
"540 610 LINE",
"810 610 LINE",
"810 700 LINE",
"370 700 LINE",
"159 700 OFFCURVE",
"50 590 OFFCURVE",
"50 350 CURVE SMOOTH",
"50 110 OFFCURVE",
"159 0 OFFCURVE",
"370 0 CURVE SMOOTH"
);
},
{
closed = 1;
nodes = (
"249 90 OFFCURVE",
"190 150 OFFCURVE",
"190 350 CURVE SMOOTH",
"190 550 OFFCURVE",
"249 610 OFFCURVE",
"370 610 CURVE SMOOTH",
"400 610 LINE",
"400 90 LINE",
"370 90 LINE SMOOTH"
);
}
);
width = 835;
}
);
unicode = 0152;
},
{
glyphname = P;
lastChange = "2016-09-19 21:25:12 +0000";
layers = (
{
layerId = UUID0;
paths = (
{
closed = 1;
nodes = (
"190 0 LINE",
"190 240 LINE",
"270 240 LINE",
"441 240 OFFCURVE",
"520 319 OFFCURVE",
"520 470 CURVE SMOOTH",
"520 621 OFFCURVE",
"441 700 OFFCURVE",
"270 700 CURVE SMOOTH",
"90 700 LINE",
"90 0 LINE"
);
},
{
closed = 1;
nodes = (
"190 630 LINE",
"270 630 LINE SMOOTH",
"370 630 OFFCURVE",
"420 581 OFFCURVE",
"420 470 CURVE SMOOTH",
"420 359 OFFCURVE",
"370 310 OFFCURVE",
"270 310 CURVE SMOOTH",
"190 310 LINE"
);
}
);
width = 565;
},
{
layerId = "6710F4E3-34F6-4C2D-8CE3-6A261897B433";
paths = (
{
closed = 1;
nodes = (
"225 0 LINE",
"225 230 LINE",
"285 230 LINE",
"476 230 OFFCURVE",
"555 309 OFFCURVE",
"555 465 CURVE SMOOTH",
"555 621 OFFCURVE",
"476 700 OFFCURVE",
"285 700 CURVE SMOOTH",
"85 700 LINE",
"85 0 LINE"
);
},
{
closed = 1;
nodes = (
"225 610 LINE",
"285 610 LINE SMOOTH",
"376 610 OFFCURVE",
"415 570 OFFCURVE",
"415 465 CURVE SMOOTH",
"415 360 OFFCURVE",
"376 320 OFFCURVE",
"285 320 CURVE SMOOTH",
"225 320 LINE"
);
}
);
width = 595;
}
);
unicode = 0050;
},
{
glyphname = Thorn;
lastChange = "2016-09-19 21:25:12 +0000";
layers = (
{
layerId = UUID0;
paths = (
{
closed = 1;
nodes = (
"190 -20 LINE",
"190 60 LINE",
"280 60 LINE SMOOTH",
"467 60 OFFCURVE",
"570 163 OFFCURVE",
"570 350 CURVE SMOOTH",
"570 537 OFFCURVE",
"467 640 OFFCURVE",
"280 640 CURVE SMOOTH",
"190 640 LINE",
"190 720 LINE",
"90 720 LINE",
"90 -20 LINE"
);
},
{
closed = 1;
nodes = (
"190 570 LINE",
"280 570 LINE",
"396 570 OFFCURVE",
"470 495 OFFCURVE",
"470 350 CURVE SMOOTH",
"470 205 OFFCURVE",
"396 130 OFFCURVE",
"280 130 CURVE SMOOTH",
"190 130 LINE"
);
}
);
width = 615;
},
{
layerId = "6710F4E3-34F6-4C2D-8CE3-6A261897B433";
paths = (
{
closed = 1;
nodes = (
"225 -20 LINE",
"225 50 LINE",
"295 50 LINE SMOOTH",
"490 50 OFFCURVE",
"605 166 OFFCURVE",
"605 350 CURVE SMOOTH",
"605 534 OFFCURVE",
"490 650 OFFCURVE",
"295 650 CURVE SMOOTH",
"225 650 LINE",
"225 720 LINE",
"85 720 LINE",
"85 -20 LINE"
);
},
{
closed = 1;
nodes = (
"225 560 LINE",
"295 560 LINE",
"395 560 OFFCURVE",
"465 490 OFFCURVE",
"465 350 CURVE SMOOTH",
"465 210 OFFCURVE",
"395 140 OFFCURVE",
"295 140 CURVE SMOOTH",
"225 140 LINE"
);
}
);
width = 645;
}
);
unicode = 00DE;
},
{
glyphname = Q;
lastChange = "2016-09-19 21:25:12 +0000";
layers = (
{
layerId = UUID0;
paths = (
{
closed = 1;
nodes = (
"425 -155 OFFCURVE",
"442 -152 OFFCURVE",
"457 -148 CURVE SMOOTH",
"465 -145 OFFCURVE",
"473 -143 OFFCURVE",
"480 -140 CURVE",
"460 -75 LINE",
"450 -75 LINE",
"440 -80 LINE SMOOTH",
"433 -83 OFFCURVE",
"425 -85 OFFCURVE",
"415 -85 CURVE SMOOTH",
"375 -85 OFFCURVE",
"350 -61 OFFCURVE",
"350 -5 CURVE",
"465 14 OFFCURVE",
"545 121 OFFCURVE",
"545 350 CURVE SMOOTH",
"545 610 OFFCURVE",
"445 710 OFFCURVE",
"300 710 CURVE SMOOTH",
"155 710 OFFCURVE",
"55 610 OFFCURVE",
"55 350 CURVE SMOOTH",
"55 121 OFFCURVE",
"135 14 OFFCURVE",
"250 -5 CURVE",
"250 -96 OFFCURVE",
"309 -155 OFFCURVE",
"405 -155 CURVE SMOOTH"
);
},
{
closed = 1;
nodes = (
"225 60 OFFCURVE",
"155 130 OFFCURVE",
"155 350 CURVE SMOOTH",
"155 570 OFFCURVE",
"225 640 OFFCURVE",
"300 640 CURVE SMOOTH",
"375 640 OFFCURVE",
"445 570 OFFCURVE",
"445 350 CURVE SMOOTH",
"445 130 OFFCURVE",
"375 60 OFFCURVE",
"300 60 CURVE SMOOTH"
);
}
);
width = 600;
},
{
layerId = "6710F4E3-34F6-4C2D-8CE3-6A261897B433";
paths = (
{
closed = 1;
nodes = (
"450 -165 OFFCURVE",
"469 -160 OFFCURVE",
"484 -155 CURVE SMOOTH",
"492 -152 OFFCURVE",
"499 -149 OFFCURVE",
"505 -145 CURVE",
"479 -65 LINE",
"469 -65 LINE",
"466 -67 OFFCURVE",
"464 -69 OFFCURVE",
"461 -70 CURVE SMOOTH",
"456 -73 OFFCURVE",
"447 -75 OFFCURVE",
"435 -75 CURVE SMOOTH",
"410 -75 OFFCURVE",
"385 -51 OFFCURVE",
"385 0 CURVE",
"505 29 OFFCURVE",
"580 135 OFFCURVE",
"580 350 CURVE SMOOTH",
"580 605 OFFCURVE",
"475 710 OFFCURVE",
"315 710 CURVE SMOOTH",
"155 710 OFFCURVE",
"50 605 OFFCURVE",
"50 350 CURVE SMOOTH",
"50 135 OFFCURVE",
"125 29 OFFCURVE",
"245 0 CURVE",
"245 -95 OFFCURVE",
"317 -165 OFFCURVE",
"425 -165 CURVE SMOOTH"
);
},
{
closed = 1;
nodes = (
"250 80 OFFCURVE",
"190 139 OFFCURVE",
"190 350 CURVE SMOOTH",
"190 561 OFFCURVE",
"250 620 OFFCURVE",
"315 620 CURVE SMOOTH",
"380 620 OFFCURVE",
"440 561 OFFCURVE",
"440 350 CURVE SMOOTH",
"440 139 OFFCURVE",
"380 80 OFFCURVE",
"315 80 CURVE SMOOTH"
);
}
);
width = 630;
}
);
unicode = 0051;
},
{
glyphname = R;
lastChange = "2016-09-19 21:25:12 +0000";
layers = (
{
layerId = UUID0;
paths = (
{
closed = 1;
nodes = (
"190 0 LINE",
"190 260 LINE",
"270 260 LINE",
"425 0 LINE",
"540 0 LINE",
"373 275 LINE",
"464 305 OFFCURVE",
"510 373 OFFCURVE",
"510 480 CURVE SMOOTH",
"510 621 OFFCURVE",
"431 700 OFFCURVE",
"260 700 CURVE SMOOTH",
"90 700 LINE",
"90 0 LINE"
);
},
{
closed = 1;
nodes = (
"190 630 LINE",
"260 630 LINE SMOOTH",
"360 630 OFFCURVE",
"410 580 OFFCURVE",
"410 480 CURVE SMOOTH",
"410 380 OFFCURVE",
"360 330 OFFCURVE",
"260 330 CURVE SMOOTH",
"190 330 LINE"
);
}
);
width = 575;
},
{
layerId = "6710F4E3-34F6-4C2D-8CE3-6A261897B433";
paths = (
{
closed = 1;
nodes = (
"225 0 LINE",
"225 250 LINE",
"280 250 LINE",
"425 0 LINE",
"585 0 LINE",
"415 275 LINE",
"439 283 OFFCURVE",
"461 296 OFFCURVE",
"480 313 CURVE SMOOTH",
"512 342 OFFCURVE",
"545 391 OFFCURVE",
"545 475 CURVE SMOOTH",
"545 620 OFFCURVE",
"464 700 OFFCURVE",
"275 700 CURVE SMOOTH",
"85 700 LINE",
"85 0 LINE"
);
},
{
closed = 1;
nodes = (
"225 610 LINE",
"275 610 LINE SMOOTH",
"366 610 OFFCURVE",
"405 571 OFFCURVE",
"405 475 CURVE SMOOTH",
"405 379 OFFCURVE",
"366 340 OFFCURVE",
"275 340 CURVE SMOOTH",
"225 340 LINE"
);
}
);
width = 600;
}
);
unicode = 0052;
},
{
glyphname = S;
lastChange = "2016-09-19 21:25:12 +0000";
layers = (
{
layerId = UUID0;
paths = (
{
closed = 1;
nodes = (
"389 -10 OFFCURVE",
"470 70 OFFCURVE",
"470 190 CURVE SMOOTH",
"470 410 OFFCURVE",
"145 370 OFFCURVE",
"145 530 CURVE SMOOTH",
"145 589 OFFCURVE",
"196 640 OFFCURVE",
"265 640 CURVE SMOOTH",
"310 640 OFFCURVE",
"345 628 OFFCURVE",
"369 617 CURVE SMOOTH",
"383 610 OFFCURVE",
"395 603 OFFCURVE",
"405 595 CURVE",
"415 595 LINE",
"450 655 LINE",
"436 665 OFFCURVE",
"420 674 OFFCURVE",
"401 682 CURVE SMOOTH",
"368 697 OFFCURVE",
"320 710 OFFCURVE",
"255 710 CURVE SMOOTH",
"124 710 OFFCURVE",
"45 630 OFFCURVE",
"45 520 CURVE SMOOTH",
"45 300 OFFCURVE",
"370 340 OFFCURVE",
"370 180 CURVE SMOOTH",
"370 109 OFFCURVE",
"321 60 OFFCURVE",
"230 60 CURVE SMOOTH",
"185 60 OFFCURVE",
"148 71 OFFCURVE",
"121 82 CURVE SMOOTH",
"106 89 OFFCURVE",
"92 96 OFFCURVE",
"80 105 CURVE",
"70 105 LINE",
"35 45 LINE",
"50 34 OFFCURVE",
"68 25 OFFCURVE",
"89 17 CURVE SMOOTH",
"124 2 OFFCURVE",
"175 -10 OFFCURVE",
"240 -10 CURVE SMOOTH"
);
}
);
width = 505;
},
{
layerId = "6710F4E3-34F6-4C2D-8CE3-6A261897B433";
paths = (
{
closed = 1;
nodes = (
"414 -10 OFFCURVE",
"500 75 OFFCURVE",
"500 190 CURVE SMOOTH",
"500 415 OFFCURVE",
"180 391 OFFCURVE",
"180 530 CURVE SMOOTH",
"180 575 OFFCURVE",
"225 620 OFFCURVE",
"285 620 CURVE SMOOTH",
"332 620 OFFCURVE",
"368 608 OFFCURVE",
"391 597 CURVE SMOOTH",
"404 590 OFFCURVE",
"416 583 OFFCURVE",
"425 575 CURVE",
"435 575 LINE",
"480 655 LINE",
"465 665 OFFCURVE",
"448 674 OFFCURVE",
"428 682 CURVE SMOOTH",
"393 697 OFFCURVE",
"343 710 OFFCURVE",
"275 710 CURVE SMOOTH",
"125 710 OFFCURVE",
"40 625 OFFCURVE",
"40 520 CURVE SMOOTH",
"40 295 OFFCURVE",
"360 319 OFFCURVE",
"360 180 CURVE SMOOTH",
"360 120 OFFCURVE",
"320 80 OFFCURVE",
"240 80 CURVE SMOOTH",
"187 80 OFFCURVE",
"150 91 OFFCURVE",
"126 102 CURVE SMOOTH",
"112 109 OFFCURVE",
"100 116 OFFCURVE",
"90 125 CURVE",
"80 125 LINE",
"35 45 LINE",
"49 34 OFFCURVE",
"67 25 OFFCURVE",
"88 17 CURVE SMOOTH",
"124 2 OFFCURVE",
"177 -10 OFFCURVE",
"250 -10 CURVE SMOOTH"
);
}
);
width = 535;
}
);
unicode = 0053;
},
{
glyphname = T;
lastChange = "2016-09-03 14:45:43 +0000";
layers = (
{
layerId = UUID0;
paths = (
{
closed = 1;
nodes = (
"290 0 LINE",
"290 630 LINE",
"470 630 LINE",
"470 700 LINE",
"10 700 LINE",
"10 630 LINE",
"190 630 LINE",
"190 0 LINE"
);
}
);
width = 480;
},
{
layerId = "6710F4E3-34F6-4C2D-8CE3-6A261897B433";
paths = (
{
closed = 1;
nodes = (
"325 0 LINE",
"325 610 LINE",
"500 610 LINE",
"500 700 LINE",
"10 700 LINE",
"10 610 LINE",
"185 610 LINE",
"185 0 LINE"
);
}
);
width = 510;
}
);
unicode = 0054;
},
{
glyphname = U;
lastChange = "2016-09-19 21:25:12 +0000";
layers = (
{
layerId = UUID0;
paths = (
{
closed = 1;
nodes = (
"455 -10 OFFCURVE",
"535 69 OFFCURVE",
"535 220 CURVE SMOOTH",
"535 700 LINE",
"435 700 LINE",
"435 220 LINE SMOOTH",
"435 109 OFFCURVE",
"386 60 OFFCURVE",
"310 60 CURVE SMOOTH",
"234 60 OFFCURVE",
"185 109 OFFCURVE",
"185 220 CURVE SMOOTH",
"185 700 LINE",
"85 700 LINE",
"85 220 LINE SMOOTH",
"85 69 OFFCURVE",
"165 -10 OFFCURVE",
"310 -10 CURVE SMOOTH"
);
}
);
width = 620;
},
{
layerId = "6710F4E3-34F6-4C2D-8CE3-6A261897B433";
paths = (
{
closed = 1;
nodes = (
"476 -10 OFFCURVE",
"565 79 OFFCURVE",
"565 230 CURVE SMOOTH",
"565 700 LINE",
"425 700 LINE",
"425 230 LINE SMOOTH",
"425 125 OFFCURVE",
"380 80 OFFCURVE",
"320 80 CURVE SMOOTH",
"260 80 OFFCURVE",
"215 125 OFFCURVE",
"215 230 CURVE SMOOTH",
"215 700 LINE",
"75 700 LINE",
"75 230 LINE SMOOTH",
"75 79 OFFCURVE",
"164 -10 OFFCURVE",
"320 -10 CURVE SMOOTH"
);
}
);
width = 640;
}
);
unicode = 0055;
},
{
glyphname = V;
lastChange = "2016-09-19 21:25:12 +0000";
layers = (
{
layerId = UUID0;
paths = (
{
closed = 1;
nodes = (
"340 0 LINE",
"535 700 LINE",
"435 700 LINE",
"290 175 LINE SMOOTH",
"286 160 OFFCURVE",
"283 144 OFFCURVE",
"280 129 CURVE",
"277 105 LINE",
"273 105 LINE",
"269 129 LINE SMOOTH",
"266 144 OFFCURVE",
"264 160 OFFCURVE",
"260 175 CURVE SMOOTH",
"115 700 LINE",
"15 700 LINE",
"210 0 LINE"
);
}
);
width = 550;
},
{
layerId = "6710F4E3-34F6-4C2D-8CE3-6A261897B433";
paths = (
{
closed = 1;
nodes = (
"375 0 LINE",
"575 700 LINE",
"435 700 LINE",
"310 240 LINE SMOOTH",
"305 224 OFFCURVE",
"303 205 OFFCURVE",
"300 190 CURVE",
"297 165 LINE",
"293 165 LINE",
"289 191 LINE SMOOTH",
"286 206 OFFCURVE",
"284 224 OFFCURVE",
"280 240 CURVE SMOOTH",
"155 700 LINE",
"15 700 LINE",
"215 0 LINE"
);
}
);
width = 590;
}
);
unicode = 0056;
},
{
glyphname = W;
lastChange = "2016-09-19 21:25:12 +0000";
layers = (
{
layerId = UUID0;
paths = (
{
closed = 1;
nodes = (
"300 0 LINE",
"415 490 LINE",
"424 541 LINE",
"428 570 LINE",
"432 570 LINE",
"436 541 LINE SMOOTH",
"439 525 OFFCURVE",
"441 505 OFFCURVE",
"445 490 CURVE SMOOTH",
"560 0 LINE",
"680 0 LINE",
"845 700 LINE",
"745 700 LINE",
"630 210 LINE SMOOTH",
"626 195 OFFCURVE",
"625 175 OFFCURVE",
"622 159 CURVE SMOOTH",
"621 150 OFFCURVE",
"620 140 OFFCURVE",
"620 130 CURVE",
"616 130 LINE",
"613 159 LINE",
"610 175 OFFCURVE",
"608 195 OFFCURVE",
"605 210 CURVE SMOOTH",
"490 700 LINE",
"370 700 LINE",
"255 210 LINE SMOOTH",
"251 195 OFFCURVE",
"250 175 OFFCURVE",
"247 159 CURVE",
"244 130 LINE",
"240 130 LINE",
"240 140 OFFCURVE",
"239 150 OFFCURVE",
"238 159 CURVE SMOOTH",
"235 175 OFFCURVE",
"233 195 OFFCURVE",
"230 210 CURVE SMOOTH",
"115 700 LINE",
"15 700 LINE",
"180 0 LINE"
);
}
);
width = 860;
},
{
layerId = "6710F4E3-34F6-4C2D-8CE3-6A261897B433";
paths = (
{
closed = 1;
nodes = (
"335 0 LINE",
"440 435 LINE SMOOTH",
"443 447 OFFCURVE",
"445 464 OFFCURVE",
"446 477 CURVE SMOOTH",
"448 500 LINE",
"452 500 LINE",
"454 477 LINE SMOOTH",
"455 464 OFFCURVE",
"457 447 OFFCURVE",
"460 435 CURVE SMOOTH",
"565 0 LINE",
"715 0 LINE",
"885 700 LINE",
"745 700 LINE",
"645 260 LINE SMOOTH",
"642 247 OFFCURVE",
"640 234 OFFCURVE",
"639 221 CURVE SMOOTH",
"637 200 LINE",
"633 200 LINE",
"631 221 LINE SMOOTH",
"630 234 OFFCURVE",
"628 247 OFFCURVE",
"625 260 CURVE SMOOTH",
"524 700 LINE",
"376 700 LINE",
"275 260 LINE SMOOTH",
"272 247 OFFCURVE",
"270 234 OFFCURVE",
"269 221 CURVE SMOOTH",
"267 200 LINE",
"263 200 LINE",
"261 221 LINE SMOOTH",
"260 234 OFFCURVE",
"258 247 OFFCURVE",
"255 260 CURVE SMOOTH",
"155 700 LINE",
"15 700 LINE",
"185 0 LINE"
);
}
);
width = 900;
}
);
unicode = 0057;
},
{
glyphname = X;
lastChange = "2016-09-19 21:25:12 +0000";
layers = (
{
layerId = UUID0;
paths = (
{
closed = 1;
nodes = (
"125 0 LINE",
"245 235 LINE SMOOTH",
"250 244 OFFCURVE",
"254 254 OFFCURVE",
"257 264 CURVE SMOOTH",
"263 280 LINE",
"267 280 LINE",
"273 264 LINE SMOOTH",
"276 255 OFFCURVE",
"280 243 OFFCURVE",
"285 235 CURVE",
"405 0 LINE",
"515 0 LINE",
"330 355 LINE",
"510 700 LINE",
"400 700 LINE",
"285 475 LINE SMOOTH",
"280 466 OFFCURVE",
"276 455 OFFCURVE",
"273 446 CURVE SMOOTH",
"267 430 LINE",
"263 430 LINE",
"257 446 LINE SMOOTH",
"254 455 OFFCURVE",
"249 466 OFFCURVE",
"245 475 CURVE SMOOTH",
"130 700 LINE",
"20 700 LINE",
"200 355 LINE",
"15 0 LINE"
);
}
);
width = 530;
},
{
layerId = "6710F4E3-34F6-4C2D-8CE3-6A261897B433";
paths = (
{
closed = 1;
nodes = (
"160 0 LINE",
"265 225 LINE",
"275 255 LINE",
"278 270 LINE",
"282 270 LINE",
"285 255 LINE",
"288 246 OFFCURVE",
"290 236 OFFCURVE",
"295 225 CURVE SMOOTH",
"400 0 LINE",
"550 0 LINE",
"375 355 LINE",
"545 700 LINE",
"395 700 LINE",
"295 485 LINE SMOOTH",
"290 474 OFFCURVE",
"288 464 OFFCURVE",
"285 455 CURVE",
"282 440 LINE",
"278 440 LINE",
"275 455 LINE",
"265 485 LINE",
"165 700 LINE",
"15 700 LINE",
"185 355 LINE",
"10 0 LINE"
);
}
);
width = 560;
}
);
unicode = 0058;
},
{
glyphname = Y;
lastChange = "2016-09-19 21:25:12 +0000";
layers = (
{
layerId = UUID0;
paths = (
{
closed = 1;
nodes = (
"315 0 LINE",
"315 230 LINE",
"530 700 LINE",
"425 700 LINE",
"285 395 LINE",
"278 382 OFFCURVE",
"275 368 OFFCURVE",
"272 356 CURVE SMOOTH",
"270 349 OFFCURVE",
"268 342 OFFCURVE",
"267 335 CURVE",
"263 335 LINE",
"262 342 OFFCURVE",
"260 349 OFFCURVE",
"258 356 CURVE SMOOTH",
"255 368 OFFCURVE",
"250 382 OFFCURVE",
"245 395 CURVE",
"105 700 LINE",
"0 700 LINE",
"215 230 LINE",
"215 0 LINE"
);
}
);
width = 530;
},
{
layerId = "6710F4E3-34F6-4C2D-8CE3-6A261897B433";
paths = (
{
closed = 1;
nodes = (
"355 0 LINE",
"355 230 LINE",
"570 700 LINE",
"425 700 LINE",
"300 405 LINE SMOOTH",
"295 394 OFFCURVE",
"293 384 OFFCURVE",
"290 375 CURVE",
"287 360 LINE",
"283 360 LINE",
"280 375 LINE",
"270 405 LINE",
"145 700 LINE",
"0 700 LINE",
"215 230 LINE",
"215 0 LINE"
);
}
);
width = 570;
}
);
unicode = 0059;
},
{
glyphname = Z;
lastChange = "2016-09-03 14:45:43 +0000";
layers = (
{
layerId = UUID0;
paths = (
{
closed = 1;
nodes = (
"460 0 LINE",
"460 70 LINE",
"145 70 LINE",
"455 625 LINE",
"455 700 LINE",
"25 700 LINE",
"25 630 LINE",
"335 630 LINE",
"25 75 LINE",
"25 0 LINE"
);
}
);
width = 485;
},
{
layerId = "6710F4E3-34F6-4C2D-8CE3-6A261897B433";
paths = (
{
closed = 1;
nodes = (
"490 0 LINE",
"490 90 LINE",
"195 90 LINE",
"485 605 LINE",
"485 700 LINE",
"35 700 LINE",
"35 610 LINE",
"325 610 LINE",
"35 95 LINE",
"35 0 LINE"
);
}
);
width = 525;
}
);
unicode = 005A;
},
{
glyphname = a;
lastChange = "2016-09-19 21:25:12 +0000";
layers = (
{
layerId = UUID0;
paths = (
{
closed = 1;
nodes = (
"261 -10 OFFCURVE",
"296 6 OFFCURVE",
"320 25 CURVE SMOOTH",
"334 35 OFFCURVE",
"346 47 OFFCURVE",
"355 60 CURVE",
"360 60 LINE",
"370 0 LINE",
"440 0 LINE",
"440 320 LINE SMOOTH",
"440 430 OFFCURVE",
"360 510 OFFCURVE",
"245 510 CURVE SMOOTH",
"194 510 OFFCURVE",
"154 497 OFFCURVE",
"125 482 CURVE SMOOTH",
"108 474 OFFCURVE",
"93 465 OFFCURVE",
"80 455 CURVE",
"115 395 LINE",
"125 395 LINE",
"134 403 OFFCURVE",
"145 410 OFFCURVE",
"157 417 CURVE SMOOTH",
"177 428 OFFCURVE",
"204 440 OFFCURVE",
"235 440 CURVE SMOOTH",
"300 440 OFFCURVE",
"340 400 OFFCURVE",
"340 320 CURVE SMOOTH",
"340 295 LINE",
"260 295 LINE SMOOTH",
"105 295 OFFCURVE",
"45 235 OFFCURVE",
"45 145 CURVE SMOOTH",
"45 49 OFFCURVE",
"105 -10 OFFCURVE",
"210 -10 CURVE SMOOTH"
);
},
{
closed = 1;
nodes = (
"175 65 OFFCURVE",
"145 94 OFFCURVE",
"145 145 CURVE SMOOTH",
"145 190 OFFCURVE",
"180 225 OFFCURVE",
"260 225 CURVE SMOOTH",
"340 225 LINE",
"340 125 LINE",
"331 114 OFFCURVE",
"321 104 OFFCURVE",
"310 95 CURVE SMOOTH",
"291 80 OFFCURVE",
"266 65 OFFCURVE",
"235 65 CURVE SMOOTH"
);
}
);
width = 510;
},
{
layerId = "6710F4E3-34F6-4C2D-8CE3-6A261897B433";
paths = (
{
closed = 1;
nodes = (
"270 -10 OFFCURVE",
"303 6 OFFCURVE",
"326 25 CURVE SMOOTH",
"339 35 OFFCURVE",
"350 47 OFFCURVE",
"360 60 CURVE",
"365 60 LINE",
"375 0 LINE",
"475 0 LINE",
"475 320 LINE SMOOTH",
"475 430 OFFCURVE",
"394 510 OFFCURVE",
"250 510 CURVE SMOOTH",
"199 510 OFFCURVE",
"158 497 OFFCURVE",
"127 485 CURVE SMOOTH",
"110 478 OFFCURVE",
"94 469 OFFCURVE",
"80 460 CURVE",
"125 380 LINE",
"135 380 LINE",
"143 387 OFFCURVE",
"152 394 OFFCURVE",
"163 400 CURVE SMOOTH",
"182 411 OFFCURVE",
"207 420 OFFCURVE",
"240 420 CURVE SMOOTH",
"305 420 OFFCURVE",
"335 391 OFFCURVE",
"335 320 CURVE SMOOTH",
"335 305 LINE",
"265 305 LINE SMOOTH",
"105 305 OFFCURVE",
"40 241 OFFCURVE",
"40 145 CURVE SMOOTH",
"40 54 OFFCURVE",
"105 -10 OFFCURVE",
"225 -10 CURVE SMOOTH"
);
},
{
closed = 1;
nodes = (
"205 85 OFFCURVE",
"180 110 OFFCURVE",
"180 145 CURVE SMOOTH",
"180 190 OFFCURVE",
"205 215 OFFCURVE",
"265 215 CURVE SMOOTH",
"335 215 LINE",
"335 145 LINE",
"328 134 OFFCURVE",
"320 124 OFFCURVE",
"311 115 CURVE SMOOTH",
"296 100 OFFCURVE",
"275 85 OFFCURVE",
"250 85 CURVE SMOOTH"
);
}
);
width = 540;
}
);
unicode = 0061;
},
{
glyphname = ae;
lastChange = "2016-09-19 21:25:12 +0000";
layers = (
{
layerId = UUID0;
paths = (
{
closed = 1;
nodes = (
"266 -10 OFFCURVE",
"309 10 OFFCURVE",
"340 30 CURVE SMOOTH",
"357 42 OFFCURVE",
"373 55 OFFCURVE",
"387 70 CURVE",
"426 15 OFFCURVE",
"485 -10 OFFCURVE",
"550 -10 CURVE SMOOTH",
"601 -10 OFFCURVE",
"641 2 OFFCURVE",
"670 17 CURVE SMOOTH",
"687 25 OFFCURVE",
"702 34 OFFCURVE",
"715 45 CURVE",
"680 105 LINE",
"670 105 LINE",
"660 96 OFFCURVE",
"649 89 OFFCURVE",
"637 82 CURVE SMOOTH",
"617 71 OFFCURVE",
"591 60 OFFCURVE",
"560 60 CURVE SMOOTH",
"489 60 OFFCURVE",
"440 110 OFFCURVE",
"440 215 CURVE",
"720 215 LINE",
"740 235 LINE",
"740 250 LINE SMOOTH",
"740 425 OFFCURVE",
"655 510 OFFCURVE",
"540 510 CURVE SMOOTH",
"480 510 OFFCURVE",
"430 480 OFFCURVE",
"395 435 CURVE",
"370 480 OFFCURVE",
"321 510 OFFCURVE",
"245 510 CURVE SMOOTH",
"194 510 OFFCURVE",
"154 497 OFFCURVE",
"125 482 CURVE SMOOTH",
"108 474 OFFCURVE",
"93 465 OFFCURVE",
"80 455 CURVE",
"115 395 LINE",
"125 395 LINE",
"134 403 OFFCURVE",
"145 410 OFFCURVE",
"157 417 CURVE SMOOTH",
"177 428 OFFCURVE",
"204 440 OFFCURVE",
"235 440 CURVE SMOOTH",
"300 440 OFFCURVE",
"340 400 OFFCURVE",
"340 320 CURVE SMOOTH",
"340 295 LINE",
"260 295 LINE SMOOTH",
"105 295 OFFCURVE",
"45 235 OFFCURVE",
"45 145 CURVE SMOOTH",
"45 49 OFFCURVE",
"105 -10 OFFCURVE",
"210 -10 CURVE SMOOTH"
);
},
{
closed = 1;
nodes = (
"175 65 OFFCURVE",
"145 94 OFFCURVE",
"145 145 CURVE SMOOTH",
"145 190 OFFCURVE",
"180 225 OFFCURVE",
"260 225 CURVE SMOOTH",
"340 225 LINE",
"340 125 LINE",
"331 114 OFFCURVE",
"321 104 OFFCURVE",
"310 95 CURVE SMOOTH",
"291 80 OFFCURVE",
"266 65 OFFCURVE",
"235 65 CURVE SMOOTH"
);
},
{
closed = 1;
nodes = (
"440 394 OFFCURVE",
"485 440 OFFCURVE",
"540 440 CURVE SMOOTH",
"595 440 OFFCURVE",
"640 394 OFFCURVE",
"640 285 CURVE",
"440 285 LINE"
);
}
);
width = 785;
},
{
layerId = "6710F4E3-34F6-4C2D-8CE3-6A261897B433";
paths = (
{
closed = 1;
nodes = (
"315 -10 OFFCURVE",
"370 29 OFFCURVE",
"400 62 CURVE",
"430 29 OFFCURVE",
"489 -10 OFFCURVE",
"585 -10 CURVE SMOOTH",
"636 -10 OFFCURVE",
"676 2 OFFCURVE",
"707 15 CURVE SMOOTH",
"724 22 OFFCURVE",
"740 31 OFFCURVE",
"755 40 CURVE",
"710 120 LINE",
"700 120 LINE",
"692 113 OFFCURVE",
"683 106 OFFCURVE",
"672 100 CURVE SMOOTH",
"653 89 OFFCURVE",
"627 80 OFFCURVE",
"595 80 CURVE SMOOTH",
"515 80 OFFCURVE",
"475 122 OFFCURVE",
"475 205 CURVE",
"745 205 LINE",
"775 235 LINE",
"775 260 LINE SMOOTH",
"775 425 OFFCURVE",
"690 510 OFFCURVE",
"555 510 CURVE SMOOTH",
"484 510 OFFCURVE",
"441 481 OFFCURVE",
"410 450 CURVE",
"379 481 OFFCURVE",
"335 510 OFFCURVE",
"250 510 CURVE SMOOTH",
"199 510 OFFCURVE",
"158 497 OFFCURVE",
"127 485 CURVE SMOOTH",
"110 478 OFFCURVE",
"94 469 OFFCURVE",
"80 460 CURVE",
"125 380 LINE",
"135 380 LINE",
"143 387 OFFCURVE",
"152 394 OFFCURVE",
"163 400 CURVE SMOOTH",
"182 411 OFFCURVE",
"207 420 OFFCURVE",
"240 420 CURVE SMOOTH",
"305 420 OFFCURVE",
"335 391 OFFCURVE",
"335 320 CURVE SMOOTH",
"335 305 LINE",
"265 305 LINE SMOOTH",
"105 305 OFFCURVE",
"40 241 OFFCURVE",
"40 145 CURVE SMOOTH",
"40 54 OFFCURVE",
"105 -10 OFFCURVE",
"225 -10 CURVE SMOOTH"
);
},
{
closed = 1;
nodes = (
"205 85 OFFCURVE",
"180 110 OFFCURVE",
"180 145 CURVE SMOOTH",
"180 190 OFFCURVE",
"205 215 OFFCURVE",
"265 215 CURVE SMOOTH",
"335 215 LINE",
"335 145 LINE",
"328 134 OFFCURVE",
"320 124 OFFCURVE",
"311 115 CURVE SMOOTH",
"296 100 OFFCURVE",
"275 85 OFFCURVE",
"250 85 CURVE SMOOTH"
);
},
{
closed = 1;
nodes = (
"475 380 OFFCURVE",
"515 420 OFFCURVE",
"555 420 CURVE SMOOTH",
"595 420 OFFCURVE",
"635 380 OFFCURVE",
"635 295 CURVE",
"475 295 LINE"
);
}
);
width = 815;
}
);
unicode = 00E6;
},
{
glyphname = b;
lastChange = "2016-09-19 21:25:12 +0000";
layers = (
{
layerId = UUID0;
paths = (
{
closed = 1;
nodes = (
"400 -10 OFFCURVE",
"485 75 OFFCURVE",
"485 250 CURVE SMOOTH",
"485 425 OFFCURVE",
"400 510 OFFCURVE",
"285 510 CURVE SMOOTH",
"254 510 OFFCURVE",
"227 502 OFFCURVE",
"207 495 CURVE SMOOTH",
"195 490 OFFCURVE",
"184 485 OFFCURVE",
"175 480 CURVE",
"175 700 LINE",
"105 700 LINE",
"75 670 LINE",
"75 0 LINE",
"145 0 LINE",
"155 60 LINE",
"160 60 LINE",
"169 47 OFFCURVE",
"181 35 OFFCURVE",
"195 25 CURVE SMOOTH",
"219 6 OFFCURVE",
"254 -10 OFFCURVE",
"305 -10 CURVE SMOOTH"
);
},
{
closed = 1;
nodes = (
"249 65 OFFCURVE",
"224 80 OFFCURVE",
"205 95 CURVE SMOOTH",
"194 104 OFFCURVE",
"184 114 OFFCURVE",
"175 125 CURVE",
"175 420 LINE",
"183 424 OFFCURVE",
"192 427 OFFCURVE",
"202 430 CURVE SMOOTH",
"219 435 OFFCURVE",
"242 440 OFFCURVE",
"270 440 CURVE SMOOTH",
"334 440 OFFCURVE",
"385 390 OFFCURVE",
"385 250 CURVE SMOOTH",
"385 115 OFFCURVE",
"336 65 OFFCURVE",
"280 65 CURVE SMOOTH"
);
}
);
width = 535;
},
{
layerId = "6710F4E3-34F6-4C2D-8CE3-6A261897B433";
paths = (
{
closed = 1;
nodes = (
"435 -10 OFFCURVE",
"520 75 OFFCURVE",
"520 250 CURVE SMOOTH",
"520 425 OFFCURVE",
"435 510 OFFCURVE",
"310 510 CURVE SMOOTH",
"279 510 OFFCURVE",
"254 502 OFFCURVE",
"237 495 CURVE SMOOTH",
"226 490 OFFCURVE",
"217 485 OFFCURVE",
"210 480 CURVE",
"210 700 LINE",
"110 700 LINE",
"70 660 LINE",
"70 0 LINE",
"170 0 LINE",
"180 60 LINE",
"185 60 LINE",
"194 47 OFFCURVE",
"206 35 OFFCURVE",
"219 25 CURVE SMOOTH",
"242 6 OFFCURVE",
"275 -10 OFFCURVE",
"320 -10 CURVE SMOOTH"
);
},
{
closed = 1;
nodes = (
"267 85 OFFCURVE",
"247 100 OFFCURVE",
"232 115 CURVE SMOOTH",
"224 124 OFFCURVE",
"217 134 OFFCURVE",
"210 145 CURVE",
"210 390 LINE",
"231 405 LINE",
"244 412 OFFCURVE",
"262 420 OFFCURVE",
"285 420 CURVE SMOOTH",
"340 420 OFFCURVE",
"380 380 OFFCURVE",
"380 250 CURVE SMOOTH",
"380 125 OFFCURVE",
"340 85 OFFCURVE",
"295 85 CURVE SMOOTH"
);
}
);
width = 560;
}
);
unicode = 0062;
},
{
glyphname = c;
lastChange = "2016-09-19 21:25:12 +0000";
layers = (
{
layerId = UUID0;
paths = (
{
closed = 1;
nodes = (
"321 -10 OFFCURVE",
"361 2 OFFCURVE",
"390 17 CURVE SMOOTH",
"407 25 OFFCURVE",
"422 34 OFFCURVE",
"435 45 CURVE",
"400 105 LINE",
"390 105 LINE",
"380 96 OFFCURVE",
"369 89 OFFCURVE",
"357 82 CURVE SMOOTH",
"337 71 OFFCURVE",
"311 60 OFFCURVE",
"280 60 CURVE SMOOTH",
"200 60 OFFCURVE",
"150 110 OFFCURVE",
"150 250 CURVE SMOOTH",
"150 390 OFFCURVE",
"201 440 OFFCURVE",
"270 440 CURVE SMOOTH",
"301 440 OFFCURVE",
"327 428 OFFCURVE",
"347 417 CURVE SMOOTH",
"359 410 OFFCURVE",
"370 403 OFFCURVE",
"380 395 CURVE",
"390 395 LINE",
"425 455 LINE",
"412 465 OFFCURVE",
"397 474 OFFCURVE",
"380 482 CURVE SMOOTH",
"351 497 OFFCURVE",
"311 510 OFFCURVE",
"260 510 CURVE SMOOTH",
"135 510 OFFCURVE",
"50 425 OFFCURVE",
"50 250 CURVE SMOOTH",
"50 75 OFFCURVE",
"135 -10 OFFCURVE",
"270 -10 CURVE SMOOTH"
);
}
);
width = 455;
},
{
layerId = "6710F4E3-34F6-4C2D-8CE3-6A261897B433";
paths = (
{
closed = 1;
nodes = (
"336 -10 OFFCURVE",
"376 2 OFFCURVE",
"407 15 CURVE SMOOTH",
"424 22 OFFCURVE",
"440 31 OFFCURVE",
"455 40 CURVE",
"410 120 LINE",
"400 120 LINE",
"392 113 OFFCURVE",
"383 106 OFFCURVE",
"372 100 CURVE SMOOTH",
"353 89 OFFCURVE",
"327 80 OFFCURVE",
"295 80 CURVE SMOOTH",
"220 80 OFFCURVE",
"180 120 OFFCURVE",
"180 250 CURVE SMOOTH",
"180 380 OFFCURVE",
"221 420 OFFCURVE",
"285 420 CURVE SMOOTH",
"317 420 OFFCURVE",
"343 411 OFFCURVE",
"362 400 CURVE SMOOTH",
"373 394 OFFCURVE",
"382 387 OFFCURVE",
"390 380 CURVE",
"400 380 LINE",
"445 460 LINE",
"430 469 OFFCURVE",
"414 478 OFFCURVE",
"397 485 CURVE SMOOTH",
"366 497 OFFCURVE",
"326 510 OFFCURVE",
"275 510 CURVE SMOOTH",
"124 510 OFFCURVE",
"40 426 OFFCURVE",
"40 250 CURVE SMOOTH",
"40 74 OFFCURVE",
"124 -10 OFFCURVE",
"285 -10 CURVE SMOOTH"
);
}
);
width = 475;
}
);
unicode = 0063;
},
{
glyphname = d;
lastChange = "2016-09-19 21:25:12 +0000";
layers = (
{
layerId = UUID0;
paths = (
{
closed = 1;
nodes = (
"281 -10 OFFCURVE",
"316 6 OFFCURVE",
"340 25 CURVE SMOOTH",
"354 35 OFFCURVE",
"366 47 OFFCURVE",
"375 60 CURVE",
"380 60 LINE",
"390 0 LINE",
"460 0 LINE",
"460 700 LINE",
"390 700 LINE",
"360 670 LINE",
"360 480 LINE",
"327 495 LINE",
"307 502 OFFCURVE",
"281 510 OFFCURVE",
"250 510 CURVE SMOOTH",
"135 510 OFFCURVE",
"50 425 OFFCURVE",
"50 250 CURVE SMOOTH",
"50 75 OFFCURVE",
"135 -10 OFFCURVE",
"230 -10 CURVE SMOOTH"
);
},
{
closed = 1;
nodes = (
"199 65 OFFCURVE",
"150 115 OFFCURVE",
"150 250 CURVE SMOOTH",
"150 390 OFFCURVE",
"201 440 OFFCURVE",
"265 440 CURVE SMOOTH",
"292 440 OFFCURVE",
"316 435 OFFCURVE",
"333 430 CURVE SMOOTH",
"343 427 OFFCURVE",
"352 424 OFFCURVE",
"360 420 CURVE",
"360 125 LINE",
"351 114 OFFCURVE",
"341 104 OFFCURVE",
"330 95 CURVE SMOOTH",
"311 80 OFFCURVE",
"286 65 OFFCURVE",
"255 65 CURVE SMOOTH"
);
}
);
width = 535;
},
{
layerId = "6710F4E3-34F6-4C2D-8CE3-6A261897B433";
paths = (
{
closed = 1;
nodes = (
"285 -10 OFFCURVE",
"318 6 OFFCURVE",
"341 25 CURVE SMOOTH",
"354 35 OFFCURVE",
"365 47 OFFCURVE",
"375 60 CURVE",
"380 60 LINE",
"390 0 LINE",
"490 0 LINE",
"490 700 LINE",
"390 700 LINE",
"350 660 LINE",
"350 480 LINE",
"322 495 LINE",
"303 502 OFFCURVE",
"281 510 OFFCURVE",
"250 510 CURVE SMOOTH",
"125 510 OFFCURVE",
"40 425 OFFCURVE",
"40 250 CURVE SMOOTH",
"40 75 OFFCURVE",
"125 -10 OFFCURVE",
"240 -10 CURVE SMOOTH"
);
},
{
closed = 1;
nodes = (
"220 85 OFFCURVE",
"180 125 OFFCURVE",
"180 250 CURVE SMOOTH",
"180 380 OFFCURVE",
"220 420 OFFCURVE",
"275 420 CURVE SMOOTH",
"298 420 OFFCURVE",
"316 412 OFFCURVE",
"329 405 CURVE",
"350 390 LINE",
"350 145 LINE",
"343 134 OFFCURVE",
"336 124 OFFCURVE",
"328 115 CURVE SMOOTH",
"313 100 OFFCURVE",
"292 85 OFFCURVE",
"265 85 CURVE SMOOTH"
);
}
);
width = 560;
}
);
unicode = 0064;
},
{
glyphname = eth;
lastChange = "2016-09-19 21:25:12 +0000";
layers = (
{
layerId = UUID0;
paths = (
{
closed = 1;
nodes = (
"375 -10 OFFCURVE",
"460 75 OFFCURVE",
"460 225 CURVE SMOOTH",
"460 325 LINE SMOOTH",
"460 482 OFFCURVE",
"416 574 OFFCURVE",
"332 625 CURVE",
"360 684 LINE",
"296 713 LINE",
"268 654 LINE",
"247 661 OFFCURVE",
"224 666 OFFCURVE",
"200 670 CURVE SMOOTH",
"140 680 LINE",
"130 610 LINE",
"185 600 LINE SMOOTH",
"204 596 OFFCURVE",
"221 592 OFFCURVE",
"237 587 CURVE",
"207 524 LINE",
"270 494 LINE",
"300 557 LINE",
"352 522 OFFCURVE",
"375 467 OFFCURVE",
"375 390 CURVE",
"344 441 OFFCURVE",
"296 460 OFFCURVE",
"225 460 CURVE SMOOTH",
"125 460 OFFCURVE",
"40 375 OFFCURVE",
"40 225 CURVE SMOOTH",
"40 75 OFFCURVE",
"125 -10 OFFCURVE",
"250 -10 CURVE SMOOTH"
);
},
{
closed = 1;
nodes = (
"190 60 OFFCURVE",
"140 110 OFFCURVE",
"140 225 CURVE SMOOTH",
"140 334 OFFCURVE",
"190 385 OFFCURVE",
"250 385 CURVE SMOOTH",
"310 385 OFFCURVE",
"360 334 OFFCURVE",
"360 225 CURVE SMOOTH",
"360 110 OFFCURVE",
"310 60 OFFCURVE",
"250 60 CURVE SMOOTH"
);
}
);
width = 515;
},
{
layerId = "6710F4E3-34F6-4C2D-8CE3-6A261897B433";
paths = (
{
closed = 1;
nodes = (
"410 -10 OFFCURVE",
"495 74 OFFCURVE",
"495 225 CURVE SMOOTH",
"495 325 LINE SMOOTH",
"495 482 OFFCURVE",
"449 575 OFFCURVE",
"348 631 CURVE",
"375 695 LINE",
"290 730 LINE",
"264 667 LINE",
"248 672 OFFCURVE",
"232 676 OFFCURVE",
"215 680 CURVE SMOOTH",
"150 695 LINE",
"130 610 LINE",
"200 596 LINE",
"231 588 LINE",
"205 525 LINE",
"290 490 LINE",
"314 549 LINE",
"358 515 OFFCURVE",
"380 465 OFFCURVE",
"380 400 CURVE",
"349 435 OFFCURVE",
"300 460 OFFCURVE",
"240 460 CURVE SMOOTH",
"120 460 OFFCURVE",
"35 375 OFFCURVE",
"35 225 CURVE SMOOTH",
"35 74 OFFCURVE",
"120 -10 OFFCURVE",
"265 -10 CURVE SMOOTH"
);
},
{
closed = 1;
nodes = (
"214 80 OFFCURVE",
"175 120 OFFCURVE",
"175 225 CURVE SMOOTH",
"175 325 OFFCURVE",
"214 365 OFFCURVE",
"265 365 CURVE SMOOTH",
"316 365 OFFCURVE",
"355 325 OFFCURVE",
"355 225 CURVE SMOOTH",
"355 120 OFFCURVE",
"316 80 OFFCURVE",
"265 80 CURVE SMOOTH"
);
}
);
width = 545;
}
);
unicode = 00F0;
},
{
glyphname = dcaron;
lastChange = "2016-09-19 21:25:12 +0000";
layers = (
{
layerId = UUID0;
paths = (
{
closed = 1;
nodes = (
"281 -10 OFFCURVE",
"316 6 OFFCURVE",
"340 25 CURVE SMOOTH",
"354 35 OFFCURVE",
"366 47 OFFCURVE",
"375 60 CURVE",
"380 60 LINE",
"390 0 LINE",
"460 0 LINE",
"460 700 LINE",
"390 700 LINE",
"360 670 LINE",
"360 480 LINE",
"327 495 LINE",
"307 502 OFFCURVE",
"281 510 OFFCURVE",
"250 510 CURVE SMOOTH",
"135 510 OFFCURVE",
"50 425 OFFCURVE",
"50 250 CURVE SMOOTH",
"50 75 OFFCURVE",
"135 -10 OFFCURVE",
"230 -10 CURVE SMOOTH"
);
},
{
closed = 1;
nodes = (
"199 65 OFFCURVE",
"150 115 OFFCURVE",
"150 250 CURVE SMOOTH",
"150 390 OFFCURVE",
"201 440 OFFCURVE",
"265 440 CURVE SMOOTH",
"292 440 OFFCURVE",
"316 435 OFFCURVE",
"333 430 CURVE SMOOTH",
"343 427 OFFCURVE",
"352 424 OFFCURVE",
"360 420 CURVE",
"360 125 LINE",
"351 114 OFFCURVE",
"341 104 OFFCURVE",
"330 95 CURVE SMOOTH",
"311 80 OFFCURVE",
"286 65 OFFCURVE",
"255 65 CURVE SMOOTH"
);
},
{
closed = 1;
nodes = (
"570 493 OFFCURVE",
"583 505 OFFCURVE",
"595 520 CURVE SMOOTH",
"615 545 OFFCURVE",
"635 583 OFFCURVE",
"635 636 CURVE SMOOTH",
"635 675 OFFCURVE",
"610 700 OFFCURVE",
"575 700 CURVE SMOOTH",
"550 700 OFFCURVE",
"525 676 OFFCURVE",
"525 645 CURVE SMOOTH",
"525 614 OFFCURVE",
"550 590 OFFCURVE",
"575 590 CURVE",
"575 570 OFFCURVE",
"562 552 OFFCURVE",
"550 537 CURVE SMOOTH",
"543 529 OFFCURVE",
"534 522 OFFCURVE",
"525 515 CURVE",
"555 484 LINE"
);
}
);
width = 645;
},
{
layerId = "6710F4E3-34F6-4C2D-8CE3-6A261897B433";
paths = (
{
closed = 1;
nodes = (
"285 -10 OFFCURVE",
"318 6 OFFCURVE",
"341 25 CURVE SMOOTH",
"354 35 OFFCURVE",
"365 47 OFFCURVE",
"375 60 CURVE",
"380 60 LINE",
"390 0 LINE",
"490 0 LINE",
"490 700 LINE",
"390 700 LINE",
"350 660 LINE",
"350 480 LINE",
"322 495 LINE",
"303 502 OFFCURVE",
"281 510 OFFCURVE",
"250 510 CURVE SMOOTH",
"125 510 OFFCURVE",
"40 425 OFFCURVE",
"40 250 CURVE SMOOTH",
"40 75 OFFCURVE",
"125 -10 OFFCURVE",
"240 -10 CURVE SMOOTH"
);
},
{
closed = 1;
nodes = (
"220 85 OFFCURVE",
"180 125 OFFCURVE",
"180 250 CURVE SMOOTH",
"180 380 OFFCURVE",
"220 420 OFFCURVE",
"275 420 CURVE SMOOTH",
"298 420 OFFCURVE",
"316 412 OFFCURVE",
"329 405 CURVE",
"350 390 LINE",
"350 145 LINE",
"343 134 OFFCURVE",
"336 124 OFFCURVE",
"328 115 CURVE SMOOTH",
"313 100 OFFCURVE",
"292 85 OFFCURVE",
"265 85 CURVE SMOOTH"
);
},
{
closed = 1;
nodes = (
"580 493 OFFCURVE",
"593 505 OFFCURVE",
"605 520 CURVE SMOOTH",
"625 545 OFFCURVE",
"645 583 OFFCURVE",
"645 636 CURVE SMOOTH",
"645 675 OFFCURVE",
"620 700 OFFCURVE",
"585 700 CURVE SMOOTH",
"560 700 OFFCURVE",
"535 676 OFFCURVE",
"535 645 CURVE SMOOTH",
"535 614 OFFCURVE",
"560 590 OFFCURVE",
"585 590 CURVE",
"585 570 OFFCURVE",
"572 552 OFFCURVE",
"560 537 CURVE SMOOTH",
"553 529 OFFCURVE",
"544 522 OFFCURVE",
"535 515 CURVE",
"565 484 LINE"
);
}
);
width = 655;
}
);
unicode = 010F;
},
{
glyphname = dcroat;
lastChange = "2016-09-19 21:25:12 +0000";
layers = (
{
layerId = UUID0;
paths = (
{
closed = 1;
nodes = (
"281 -10 OFFCURVE",
"316 6 OFFCURVE",
"340 25 CURVE SMOOTH",
"354 35 OFFCURVE",
"366 47 OFFCURVE",
"375 60 CURVE",
"380 60 LINE",
"390 0 LINE",
"460 0 LINE",
"460 530 LINE",
"525 530 LINE",
"525 600 LINE",
"460 600 LINE",
"460 700 LINE",
"390 700 LINE",
"360 670 LINE",
"360 600 LINE",
"255 600 LINE",
"255 530 LINE",
"360 530 LINE",
"360 440 LINE",
"327 455 LINE",
"307 462 OFFCURVE",
"281 470 OFFCURVE",
"250 470 CURVE SMOOTH",
"135 470 OFFCURVE",
"50 386 OFFCURVE",
"50 230 CURVE SMOOTH",
"50 74 OFFCURVE",
"135 -10 OFFCURVE",
"230 -10 CURVE SMOOTH"
);
},
{
closed = 1;
nodes = (
"199 65 OFFCURVE",
"150 115 OFFCURVE",
"150 230 CURVE SMOOTH",
"150 350 OFFCURVE",
"200 400 OFFCURVE",
"265 400 CURVE SMOOTH",
"292 400 OFFCURVE",
"316 395 OFFCURVE",
"333 390 CURVE SMOOTH",
"343 387 OFFCURVE",
"352 384 OFFCURVE",
"360 380 CURVE",
"360 125 LINE",
"351 114 OFFCURVE",
"341 104 OFFCURVE",
"330 95 CURVE SMOOTH",
"311 80 OFFCURVE",
"286 65 OFFCURVE",
"255 65 CURVE SMOOTH"
);
}
);
width = 545;
},
{
layerId = "6710F4E3-34F6-4C2D-8CE3-6A261897B433";
paths = (
{
closed = 1;
nodes = (
"285 -10 OFFCURVE",
"318 6 OFFCURVE",
"341 25 CURVE SMOOTH",
"354 35 OFFCURVE",
"365 47 OFFCURVE",
"375 60 CURVE",
"380 60 LINE",
"390 0 LINE",
"490 0 LINE",
"490 520 LINE",
"545 520 LINE",
"545 610 LINE",
"490 610 LINE",
"490 700 LINE",
"390 700 LINE",
"350 660 LINE",
"350 610 LINE",
"255 610 LINE",
"255 520 LINE",
"350 520 LINE",
"350 450 LINE",
"322 465 LINE",
"303 472 OFFCURVE",
"281 480 OFFCURVE",
"250 480 CURVE SMOOTH",
"125 480 OFFCURVE",
"40 395 OFFCURVE",
"40 235 CURVE SMOOTH",
"40 75 OFFCURVE",
"125 -10 OFFCURVE",
"240 -10 CURVE SMOOTH"
);
},
{
closed = 1;
nodes = (
"220 85 OFFCURVE",
"180 126 OFFCURVE",
"180 235 CURVE SMOOTH",
"180 350 OFFCURVE",
"220 390 OFFCURVE",
"275 390 CURVE SMOOTH",
"298 390 OFFCURVE",
"316 382 OFFCURVE",
"329 375 CURVE",
"350 360 LINE",
"350 145 LINE",
"343 134 OFFCURVE",
"336 124 OFFCURVE",
"328 115 CURVE SMOOTH",
"313 100 OFFCURVE",
"292 85 OFFCURVE",
"265 85 CURVE SMOOTH"
);
}
);
width = 560;
}
);
unicode = 0111;
},
{
glyphname = e;
lastChange = "2016-09-19 21:25:12 +0000";
layers = (
{
layerId = UUID0;
paths = (
{
closed = 1;
nodes = (
"321 -10 OFFCURVE",
"361 2 OFFCURVE",
"390 17 CURVE SMOOTH",
"407 25 OFFCURVE",
"422 34 OFFCURVE",
"435 45 CURVE",
"400 105 LINE",
"390 105 LINE",
"380 96 OFFCURVE",
"369 89 OFFCURVE",
"357 82 CURVE SMOOTH",
"337 71 OFFCURVE",
"311 60 OFFCURVE",
"280 60 CURVE SMOOTH",
"200 60 OFFCURVE",
"150 110 OFFCURVE",
"150 215 CURVE",
"440 215 LINE",
"460 235 LINE",
"460 250 LINE SMOOTH",
"460 425 OFFCURVE",
"375 510 OFFCURVE",
"255 510 CURVE SMOOTH",
"135 510 OFFCURVE",
"50 425 OFFCURVE",
"50 250 CURVE SMOOTH",
"50 75 OFFCURVE",
"135 -10 OFFCURVE",
"270 -10 CURVE SMOOTH"
);
},
{
closed = 1;
nodes = (
"150 396 OFFCURVE",
"195 440 OFFCURVE",
"255 440 CURVE SMOOTH",
"315 440 OFFCURVE",
"360 396 OFFCURVE",
"360 285 CURVE",
"150 285 LINE"
);
}
);
width = 505;
},
{
layerId = "6710F4E3-34F6-4C2D-8CE3-6A261897B433";
paths = (
{
closed = 1;
nodes = (
"341 -10 OFFCURVE",
"381 2 OFFCURVE",
"412 15 CURVE SMOOTH",
"429 22 OFFCURVE",
"445 31 OFFCURVE",
"460 40 CURVE",
"415 120 LINE",
"405 120 LINE",
"397 113 OFFCURVE",
"388 106 OFFCURVE",
"377 100 CURVE SMOOTH",
"358 89 OFFCURVE",
"332 80 OFFCURVE",
"300 80 CURVE SMOOTH",
"220 80 OFFCURVE",
"180 122 OFFCURVE",
"180 205 CURVE",
"450 205 LINE",
"480 235 LINE",
"480 260 LINE SMOOTH",
"480 425 OFFCURVE",
"395 510 OFFCURVE",
"260 510 CURVE SMOOTH",
"125 510 OFFCURVE",
"40 425 OFFCURVE",
"40 250 CURVE SMOOTH",
"40 77 OFFCURVE",
"123 -10 OFFCURVE",
"290 -10 CURVE SMOOTH"
);
},
{
closed = 1;
nodes = (
"180 380 OFFCURVE",
"220 420 OFFCURVE",
"260 420 CURVE SMOOTH",
"300 420 OFFCURVE",
"340 380 OFFCURVE",
"340 295 CURVE",
"180 295 LINE"
);
}
);
width = 520;
}
);
unicode = 0065;
},
{
glyphname = f;
lastChange = "2016-09-19 21:25:12 +0000";
layers = (
{
layerId = UUID0;
paths = (
{
closed = 1;
nodes = (
"185 0 LINE",
"185 430 LINE",
"320 430 LINE",
"320 500 LINE",
"185 500 LINE",
"185 550 LINE SMOOTH",
"185 610 OFFCURVE",
"215 640 OFFCURVE",
"260 640 CURVE SMOOTH",
"283 640 OFFCURVE",
"305 628 OFFCURVE",
"322 617 CURVE SMOOTH",
"332 610 OFFCURVE",
"341 603 OFFCURVE",
"350 595 CURVE",
"360 595 LINE",
"395 655 LINE",
"383 665 OFFCURVE",
"369 674 OFFCURVE",
"354 682 CURVE SMOOTH",
"327 697 OFFCURVE",
"293 710 OFFCURVE",
"250 710 CURVE SMOOTH",
"150 710 OFFCURVE",
"85 646 OFFCURVE",
"85 550 CURVE SMOOTH",
"85 500 LINE",
"20 500 LINE",
"20 430 LINE",
"85 430 LINE",
"85 0 LINE"
);
}
);
width = 340;
},
{
layerId = "6710F4E3-34F6-4C2D-8CE3-6A261897B433";
paths = (
{
closed = 1;
nodes = (
"215 0 LINE",
"215 410 LINE",
"340 410 LINE",
"340 500 LINE",
"215 500 LINE",
"215 540 LINE SMOOTH",
"215 591 OFFCURVE",
"245 620 OFFCURVE",
"280 620 CURVE SMOOTH",
"303 620 OFFCURVE",
"323 611 OFFCURVE",
"339 600 CURVE SMOOTH",
"348 594 OFFCURVE",
"357 587 OFFCURVE",
"365 580 CURVE",
"375 580 LINE",
"420 660 LINE",
"406 669 OFFCURVE",
"391 678 OFFCURVE",
"375 685 CURVE SMOOTH",
"347 697 OFFCURVE",
"310 710 OFFCURVE",
"270 710 CURVE SMOOTH",
"145 710 OFFCURVE",
"75 640 OFFCURVE",
"75 540 CURVE SMOOTH",
"75 500 LINE",
"20 500 LINE",
"20 410 LINE",
"75 410 LINE",
"75 0 LINE"
);
}
);
width = 365;
}
);
unicode = 0066;
},
{
glyphname = g;
lastChange = "2016-09-19 21:25:12 +0000";
layers = (
{
layerId = UUID0;
paths = (
{
closed = 1;
nodes = (
"380 -210 OFFCURVE",
"460 -130 OFFCURVE",
"460 -10 CURVE SMOOTH",
"460 500 LINE",
"390 500 LINE",
"380 440 LINE",
"375 440 LINE",
"366 453 OFFCURVE",
"354 464 OFFCURVE",
"340 475 CURVE SMOOTH",
"316 492 OFFCURVE",
"281 510 OFFCURVE",
"230 510 CURVE SMOOTH",
"135 510 OFFCURVE",
"50 425 OFFCURVE",
"50 250 CURVE SMOOTH",
"50 75 OFFCURVE",
"135 -10 OFFCURVE",
"250 -10 CURVE SMOOTH",
"281 -10 OFFCURVE",
"307 -3 OFFCURVE",
"327 5 CURVE SMOOTH",
"339 9 OFFCURVE",
"350 14 OFFCURVE",
"360 20 CURVE",
"360 -10 LINE SMOOTH",
"360 -101 OFFCURVE",
"320 -140 OFFCURVE",
"235 -140 CURVE SMOOTH",
"204 -140 OFFCURVE",
"177 -129 OFFCURVE",
"157 -118 CURVE SMOOTH",
"145 -111 OFFCURVE",
"134 -104 OFFCURVE",
"125 -95 CURVE",
"115 -95 LINE",
"80 -155 LINE",
"93 -166 OFFCURVE",
"108 -175 OFFCURVE",
"125 -183 CURVE SMOOTH",
"154 -198 OFFCURVE",
"194 -210 OFFCURVE",
"245 -210 CURVE SMOOTH"
);
},
{
closed = 1;
nodes = (
"201 60 OFFCURVE",
"150 110 OFFCURVE",
"150 250 CURVE SMOOTH",
"150 385 OFFCURVE",
"199 435 OFFCURVE",
"255 435 CURVE SMOOTH",
"286 435 OFFCURVE",
"311 420 OFFCURVE",
"330 405 CURVE SMOOTH",
"341 396 OFFCURVE",
"351 386 OFFCURVE",
"360 375 CURVE",
"360 80 LINE",
"352 76 OFFCURVE",
"343 73 OFFCURVE",
"333 70 CURVE SMOOTH",
"316 65 OFFCURVE",
"292 60 OFFCURVE",
"265 60 CURVE SMOOTH"
);
}
);
width = 535;
},
{
layerId = "6710F4E3-34F6-4C2D-8CE3-6A261897B433";
paths = (
{
closed = 1;
nodes = (
"405 -210 OFFCURVE",
"490 -125 OFFCURVE",
"490 -10 CURVE SMOOTH",
"490 500 LINE",
"390 500 LINE",
"380 440 LINE",
"375 440 LINE",
"365 453 OFFCURVE",
"354 464 OFFCURVE",
"341 475 CURVE",
"318 492 OFFCURVE",
"285 510 OFFCURVE",
"240 510 CURVE SMOOTH",
"125 510 OFFCURVE",
"40 425 OFFCURVE",
"40 250 CURVE SMOOTH",
"40 75 OFFCURVE",
"125 -10 OFFCURVE",
"250 -10 CURVE SMOOTH",
"281 -10 OFFCURVE",
"303 -3 OFFCURVE",
"322 5 CURVE SMOOTH",
"332 9 OFFCURVE",
"341 14 OFFCURVE",
"350 20 CURVE",
"350 -10 LINE SMOOTH",
"350 -81 OFFCURVE",
"310 -120 OFFCURVE",
"245 -120 CURVE SMOOTH",
"210 -120 OFFCURVE",
"183 -111 OFFCURVE",
"164 -100 CURVE SMOOTH",
"153 -94 OFFCURVE",
"143 -87 OFFCURVE",
"135 -80 CURVE",
"125 -80 LINE",
"80 -160 LINE",
"94 -169 OFFCURVE",
"110 -178 OFFCURVE",
"128 -185 CURVE SMOOTH",
"159 -198 OFFCURVE",
"202 -210 OFFCURVE",
"255 -210 CURVE SMOOTH"
);
},
{
closed = 1;
nodes = (
"220 80 OFFCURVE",
"180 120 OFFCURVE",
"180 250 CURVE SMOOTH",
"180 375 OFFCURVE",
"220 415 OFFCURVE",
"265 415 CURVE SMOOTH",
"292 415 OFFCURVE",
"313 400 OFFCURVE",
"328 385 CURVE SMOOTH",
"336 376 OFFCURVE",
"343 366 OFFCURVE",
"350 355 CURVE",
"350 110 LINE",
"343 104 OFFCURVE",
"336 99 OFFCURVE",
"329 95 CURVE SMOOTH",
"316 87 OFFCURVE",
"298 80 OFFCURVE",
"275 80 CURVE SMOOTH"
);
}
);
width = 560;
}
);
unicode = 0067;
},
{
glyphname = h;
lastChange = "2016-09-19 21:25:12 +0000";
layers = (
{
layerId = UUID0;
paths = (
{
closed = 1;
nodes = (
"175 0 LINE",
"175 375 LINE",
"184 386 OFFCURVE",
"194 396 OFFCURVE",
"205 405 CURVE SMOOTH",
"224 420 OFFCURVE",
"249 435 OFFCURVE",
"280 435 CURVE SMOOTH",
"336 435 OFFCURVE",
"375 396 OFFCURVE",
"375 340 CURVE SMOOTH",
"375 0 LINE",
"475 0 LINE",
"475 340 LINE SMOOTH",
"475 440 OFFCURVE",
"405 510 OFFCURVE",
"305 510 CURVE SMOOTH",
"262 510 OFFCURVE",
"231 497 OFFCURVE",
"208 485 CURVE SMOOTH",
"195 478 OFFCURVE",
"184 469 OFFCURVE",
"175 460 CURVE",
"175 700 LINE",
"105 700 LINE",
"75 670 LINE",
"75 0 LINE"
);
}
);
width = 545;
},
{
layerId = "6710F4E3-34F6-4C2D-8CE3-6A261897B433";
paths = (
{
closed = 1;
nodes = (
"210 0 LINE",
"210 355 LINE",
"217 366 OFFCURVE",
"224 376 OFFCURVE",
"232 385 CURVE SMOOTH",
"247 400 OFFCURVE",
"267 415 OFFCURVE",
"295 415 CURVE SMOOTH",
"340 415 OFFCURVE",
"370 385 OFFCURVE",
"370 320 CURVE SMOOTH",
"370 0 LINE",
"510 0 LINE",
"510 320 LINE SMOOTH",
"510 441 OFFCURVE",
"441 510 OFFCURVE",
"320 510 CURVE SMOOTH",
"285 510 OFFCURVE",
"258 498 OFFCURVE",
"239 487 CURVE SMOOTH",
"228 480 OFFCURVE",
"218 473 OFFCURVE",
"210 465 CURVE",
"210 700 LINE",
"110 700 LINE",
"70 660 LINE",
"70 0 LINE"
);
}
);
width = 575;
}
);
unicode = 0068;
},
{
glyphname = hbar;
lastChange = "2016-09-19 21:25:12 +0000";
layers = (
{
layerId = UUID0;
paths = (
{
closed = 1;
nodes = (
"190 0 LINE",
"190 315 LINE",
"199 326 OFFCURVE",
"209 336 OFFCURVE",
"220 345 CURVE SMOOTH",
"239 360 OFFCURVE",
"264 375 OFFCURVE",
"295 375 CURVE SMOOTH",
"351 375 OFFCURVE",
"390 336 OFFCURVE",
"390 280 CURVE SMOOTH",
"390 0 LINE",
"490 0 LINE",
"490 280 LINE SMOOTH",
"490 380 OFFCURVE",
"420 450 OFFCURVE",
"320 450 CURVE SMOOTH",
"277 450 OFFCURVE",
"246 437 OFFCURVE",
"223 425 CURVE SMOOTH",
"210 418 OFFCURVE",
"199 409 OFFCURVE",
"190 400 CURVE",
"190 520 LINE",
"325 520 LINE",
"325 590 LINE",
"190 590 LINE",
"190 700 LINE",
"120 700 LINE",
"90 670 LINE",
"90 590 LINE",
"25 590 LINE",
"25 520 LINE",
"90 520 LINE",
"90 0 LINE"
);
}
);
width = 560;
},
{
layerId = "6710F4E3-34F6-4C2D-8CE3-6A261897B433";
paths = (
{
closed = 1;
nodes = (
"215 0 LINE",
"215 295 LINE",
"222 306 OFFCURVE",
"229 316 OFFCURVE",
"237 325 CURVE SMOOTH",
"252 340 OFFCURVE",
"272 355 OFFCURVE",
"300 355 CURVE SMOOTH",
"345 355 OFFCURVE",
"375 325 OFFCURVE",
"375 260 CURVE SMOOTH",
"375 0 LINE",
"515 0 LINE",
"515 260 LINE SMOOTH",
"515 381 OFFCURVE",
"446 450 OFFCURVE",
"325 450 CURVE SMOOTH",
"290 450 OFFCURVE",
"263 438 OFFCURVE",
"244 427 CURVE SMOOTH",
"233 420 OFFCURVE",
"223 413 OFFCURVE",
"215 405 CURVE",
"215 500 LINE",
"340 500 LINE",
"340 590 LINE",
"215 590 LINE",
"215 700 LINE",
"115 700 LINE",
"75 660 LINE",
"75 590 LINE",
"20 590 LINE",
"20 500 LINE",
"75 500 LINE",
"75 0 LINE"
);
}
);
width = 575;
}
);
unicode = 0127;
},
{
glyphname = i;
lastChange = "2016-09-19 21:25:12 +0000";
layers = (
{
layerId = UUID0;
paths = (
{
closed = 1;
nodes = (
"175 0 LINE",
"175 500 LINE",
"75 500 LINE",
"75 0 LINE"
);
},
{
closed = 1;
nodes = (
"160 580 OFFCURVE",
"185 605 OFFCURVE",
"185 640 CURVE SMOOTH",
"185 675 OFFCURVE",
"160 700 OFFCURVE",
"125 700 CURVE SMOOTH",
"90 700 OFFCURVE",
"65 675 OFFCURVE",
"65 640 CURVE SMOOTH",
"65 605 OFFCURVE",
"90 580 OFFCURVE",
"125 580 CURVE SMOOTH"
);
}
);
width = 250;
},
{
layerId = "6710F4E3-34F6-4C2D-8CE3-6A261897B433";
paths = (
{
closed = 1;
nodes = (
"210 0 LINE",
"210 500 LINE",
"70 500 LINE",
"70 0 LINE"
);
},
{
closed = 1;
nodes = (
"180 565 OFFCURVE",
"215 600 OFFCURVE",
"215 640 CURVE SMOOTH",
"215 680 OFFCURVE",
"180 715 OFFCURVE",
"140 715 CURVE SMOOTH",
"100 715 OFFCURVE",
"65 680 OFFCURVE",
"65 640 CURVE SMOOTH",
"65 600 OFFCURVE",
"100 565 OFFCURVE",
"140 565 CURVE SMOOTH"
);
}
);
width = 280;
}
);
unicode = 0069;
},
{
glyphname = idotless;
lastChange = "2016-09-19 21:25:12 +0000";
layers = (
{
layerId = UUID0;
paths = (
{
closed = 1;
nodes = (
"175 0 LINE",
"175 500 LINE",
"75 500 LINE",
"75 0 LINE"
);
}
);
width = 250;
},
{
layerId = "6710F4E3-34F6-4C2D-8CE3-6A261897B433";
paths = (
{
closed = 1;
nodes = (
"210 0 LINE",
"210 500 LINE",
"70 500 LINE",
"70 0 LINE"
);
}
);
width = 280;
}
);
unicode = 0131;
},
{
glyphname = iacute;
lastChange = "2016-09-19 21:25:12 +0000";
layers = (
{
layerId = UUID0;
paths = (
{
closed = 1;
nodes = (
"175 0 LINE",
"175 500 LINE",
"75 500 LINE",
"75 0 LINE"
);
},
{
closed = 1;
nodes = (
"152 550 LINE",
"242 700 LINE",
"132 700 LINE",
"87 550 LINE"
);
}
);
width = 257;
},
{
layerId = "6710F4E3-34F6-4C2D-8CE3-6A261897B433";
paths = (
{
closed = 1;
nodes = (
"210 0 LINE",
"210 500 LINE",
"70 500 LINE",
"70 0 LINE"
);
},
{
closed = 1;
nodes = (
"167 550 LINE",
"267 700 LINE",
"132 700 LINE",
"87 550 LINE"
);
}
);
width = 282;
}
);
unicode = 00ED;
},
{
glyphname = icircumflex;
lastChange = "2016-09-19 21:25:12 +0000";
layers = (
{
layerId = UUID0;
paths = (
{
closed = 1;
nodes = (
"180 0 LINE",
"180 500 LINE",
"80 500 LINE",
"80 0 LINE"
);
},
{
closed = 1;
nodes = (
"55 560 LINE",
"130 625 LINE",
"205 560 LINE",
"270 560 LINE",
"165 690 LINE",
"95 690 LINE",
"-10 560 LINE"
);
}
);
width = 260;
},
{
layerId = "6710F4E3-34F6-4C2D-8CE3-6A261897B433";
paths = (
{
closed = 1;
nodes = (
"215 0 LINE",
"215 500 LINE",
"75 500 LINE",
"75 0 LINE"
);
},
{
closed = 1;
nodes = (
"80 560 LINE",
"145 630 LINE",
"210 560 LINE",
"305 560 LINE",
"195 694 LINE",
"95 694 LINE",
"-15 560 LINE"
);
}
);
width = 290;
}
);
unicode = 00EE;
},
{
glyphname = idieresis;
lastChange = "2016-09-19 21:25:12 +0000";
layers = (
{
layerId = UUID0;
paths = (
{
closed = 1;
nodes = (
"180 0 LINE",
"180 500 LINE",
"80 500 LINE",
"80 0 LINE"
);
},
{
closed = 1;
nodes = (
"72 565 OFFCURVE",
"95 588 OFFCURVE",
"95 620 CURVE SMOOTH",
"95 652 OFFCURVE",
"72 675 OFFCURVE",
"40 675 CURVE SMOOTH",
"8 675 OFFCURVE",
"-15 652 OFFCURVE",
"-15 620 CURVE SMOOTH",
"-15 588 OFFCURVE",
"8 565 OFFCURVE",
"40 565 CURVE SMOOTH"
);
},
{
closed = 1;
nodes = (
"247 565 OFFCURVE",
"270 588 OFFCURVE",
"270 620 CURVE SMOOTH",
"270 652 OFFCURVE",
"247 675 OFFCURVE",
"215 675 CURVE SMOOTH",
"183 675 OFFCURVE",
"160 652 OFFCURVE",
"160 620 CURVE SMOOTH",
"160 588 OFFCURVE",
"183 565 OFFCURVE",
"215 565 CURVE SMOOTH"
);
}
);
width = 260;
},
{
layerId = "6710F4E3-34F6-4C2D-8CE3-6A261897B433";
paths = (
{
closed = 1;
nodes = (
"220 0 LINE",
"220 500 LINE",
"80 500 LINE",
"80 0 LINE"
);
},
{
closed = 1;
nodes = (
"87 570 OFFCURVE",
"120 603 OFFCURVE",
"120 640 CURVE SMOOTH",
"120 677 OFFCURVE",
"87 710 OFFCURVE",
"50 710 CURVE SMOOTH",
"13 710 OFFCURVE",
"-20 677 OFFCURVE",
"-20 640 CURVE SMOOTH",
"-20 603 OFFCURVE",
"13 570 OFFCURVE",
"50 570 CURVE SMOOTH"
);
},
{
closed = 1;
nodes = (
"282 570 OFFCURVE",
"315 603 OFFCURVE",
"315 640 CURVE SMOOTH",
"315 677 OFFCURVE",
"282 710 OFFCURVE",
"245 710 CURVE SMOOTH",
"208 710 OFFCURVE",
"175 677 OFFCURVE",
"175 640 CURVE SMOOTH",
"175 603 OFFCURVE",
"208 570 OFFCURVE",
"245 570 CURVE SMOOTH"
);
}
);
width = 300;
}
);
unicode = 00EF;
},
{
glyphname = igrave;
lastChange = "2016-09-19 21:25:12 +0000";
layers = (
{
layerId = UUID0;
paths = (
{
closed = 1;
nodes = (
"183 0 LINE",
"183 500 LINE",
"83 500 LINE",
"83 0 LINE"
);
},
{
closed = 1;
nodes = (
"170 550 LINE",
"125 700 LINE",
"15 700 LINE",
"105 550 LINE"
);
}
);
width = 258;
},
{
layerId = "6710F4E3-34F6-4C2D-8CE3-6A261897B433";
paths = (
{
closed = 1;
nodes = (
"213 0 LINE",
"213 500 LINE",
"73 500 LINE",
"73 0 LINE"
);
},
{
closed = 1;
nodes = (
"195 550 LINE",
"150 700 LINE",
"15 700 LINE",
"115 550 LINE"
);
}
);
width = 283;
}
);
unicode = 00EC;
},
{
glyphname = ij;
lastChange = "2016-09-19 21:25:12 +0000";
layers = (
{
layerId = UUID0;
paths = (
{
closed = 1;
nodes = (
"365 -200 OFFCURVE",
"430 -136 OFFCURVE",
"430 -40 CURVE SMOOTH",
"430 500 LINE",
"75 500 LINE",
"75 0 LINE",
"175 0 LINE",
"175 430 LINE",
"330 430 LINE",
"330 -40 LINE SMOOTH",
"330 -100 OFFCURVE",
"300 -130 OFFCURVE",
"255 -130 CURVE SMOOTH",
"240 -130 OFFCURVE",
"227 -125 OFFCURVE",
"216 -118 CURVE SMOOTH",
"210 -115 OFFCURVE",
"205 -110 OFFCURVE",
"200 -105 CURVE",
"190 -105 LINE",
"165 -170 LINE",
"172 -176 OFFCURVE",
"181 -181 OFFCURVE",
"192 -185 CURVE",
"209 -193 OFFCURVE",
"234 -200 OFFCURVE",
"265 -200 CURVE SMOOTH"
);
},
{
closed = 1;
nodes = (
"160 580 OFFCURVE",
"185 605 OFFCURVE",
"185 640 CURVE SMOOTH",
"185 675 OFFCURVE",
"160 700 OFFCURVE",
"125 700 CURVE SMOOTH",
"90 700 OFFCURVE",
"65 675 OFFCURVE",
"65 640 CURVE SMOOTH",
"65 605 OFFCURVE",
"90 580 OFFCURVE",
"125 580 CURVE SMOOTH"
);
},
{
closed = 1;
nodes = (
"415 580 OFFCURVE",
"440 605 OFFCURVE",
"440 640 CURVE SMOOTH",
"440 675 OFFCURVE",
"415 700 OFFCURVE",
"380 700 CURVE SMOOTH",
"345 700 OFFCURVE",
"320 675 OFFCURVE",
"320 640 CURVE SMOOTH",
"320 605 OFFCURVE",
"345 580 OFFCURVE",
"380 580 CURVE SMOOTH"
);
}
);
width = 505;
},
{
layerId = "6710F4E3-34F6-4C2D-8CE3-6A261897B433";
paths = (
{
closed = 1;
nodes = (
"395 -200 OFFCURVE",
"465 -130 OFFCURVE",
"465 -30 CURVE SMOOTH",
"465 500 LINE",
"70 500 LINE",
"70 0 LINE",
"210 0 LINE",
"210 410 LINE",
"325 410 LINE",
"325 -30 LINE SMOOTH",
"325 -86 OFFCURVE",
"300 -110 OFFCURVE",
"260 -110 CURVE SMOOTH",
"245 -110 OFFCURVE",
"232 -105 OFFCURVE",
"221 -98 CURVE SMOOTH",
"215 -95 OFFCURVE",
"210 -90 OFFCURVE",
"205 -85 CURVE",
"195 -85 LINE",
"160 -170 LINE",
"169 -176 OFFCURVE",
"180 -181 OFFCURVE",
"192 -185 CURVE SMOOTH",
"212 -193 OFFCURVE",
"239 -200 OFFCURVE",
"270 -200 CURVE SMOOTH"
);
},
{
closed = 1;
nodes = (
"180 565 OFFCURVE",
"215 600 OFFCURVE",
"215 640 CURVE SMOOTH",
"215 680 OFFCURVE",
"180 715 OFFCURVE",
"140 715 CURVE SMOOTH",
"100 715 OFFCURVE",
"65 680 OFFCURVE",
"65 640 CURVE SMOOTH",
"65 600 OFFCURVE",
"100 565 OFFCURVE",
"140 565 CURVE SMOOTH"
);
},
{
closed = 1;
nodes = (
"435 565 OFFCURVE",
"470 600 OFFCURVE",
"470 640 CURVE SMOOTH",
"470 680 OFFCURVE",
"435 715 OFFCURVE",
"395 715 CURVE SMOOTH",
"355 715 OFFCURVE",
"320 680 OFFCURVE",
"320 640 CURVE SMOOTH",
"320 600 OFFCURVE",
"355 565 OFFCURVE",
"395 565 CURVE SMOOTH"
);
}
);
width = 535;
}
);
unicode = 0133;
},
{
glyphname = imacron;
lastChange = "2016-09-19 21:25:12 +0000";
layers = (
{
layerId = UUID0;
paths = (
{
closed = 1;
nodes = (
"175 0 LINE",
"175 500 LINE",
"75 500 LINE",
"75 0 LINE"
);
},
{
closed = 1;
nodes = (
"260 580 LINE",
"260 650 LINE",
"-10 650 LINE",
"-10 580 LINE"
);
}
);
width = 250;
},
{
layerId = "6710F4E3-34F6-4C2D-8CE3-6A261897B433";
paths = (
{
closed = 1;
nodes = (
"215 0 LINE",
"215 500 LINE",
"75 500 LINE",
"75 0 LINE"
);
},
{
closed = 1;
nodes = (
"290 560 LINE",
"290 650 LINE",
"0 650 LINE",
"0 560 LINE"
);
}
);
width = 290;
}
);
unicode = 012B;
},
{
glyphname = itilde;
lastChange = "2016-09-19 21:25:12 +0000";
layers = (
{
components = (
{
name = idotless;
},
{
name = tilde;
transform = "{1, 0, 0, 1, -33, 0}";
}
);
layerId = UUID0;
width = 240;
},
{
layerId = "6710F4E3-34F6-4C2D-8CE3-6A261897B433";
paths = (
{
closed = 1;
nodes = (
"215 0 LINE",
"215 500 LINE",
"75 500 LINE",
"75 0 LINE"
);
},
{
closed = 1;
nodes = (
"251 585 OFFCURVE",
"290 634 OFFCURVE",
"295 685 CURVE",
"239 715 LINE",
"230 715 LINE",
"231 714 OFFCURVE",
"214 674 OFFCURVE",
"190 675 CURVE",
"155 675 OFFCURVE",
"135 720 OFFCURVE",
"80 720 CURVE SMOOTH",
"29 720 OFFCURVE",
"-10 671 OFFCURVE",
"-15 620 CURVE",
"41 590 LINE",
"50 590 LINE",
"49 589 OFFCURVE",
"64 629 OFFCURVE",
"90 630 CURVE",
"125 630 OFFCURVE",
"145 585 OFFCURVE",
"200 585 CURVE SMOOTH"
);
}
);
width = 285;
}
);
unicode = 0129;
},
{
glyphname = j;
lastChange = "2016-09-19 21:25:12 +0000";
layers = (
{
layerId = UUID0;
paths = (
{
closed = 1;
nodes = (
"110 -200 OFFCURVE",
"175 -136 OFFCURVE",
"175 -40 CURVE SMOOTH",
"175 500 LINE",
"75 500 LINE",
"75 -40 LINE SMOOTH",
"75 -100 OFFCURVE",
"45 -130 OFFCURVE",
"0 -130 CURVE SMOOTH",
"-15 -130 OFFCURVE",
"-28 -125 OFFCURVE",
"-39 -118 CURVE SMOOTH",
"-45 -115 OFFCURVE",
"-50 -110 OFFCURVE",
"-55 -105 CURVE",
"-65 -105 LINE",
"-90 -170 LINE",
"-83 -176 OFFCURVE",
"-74 -181 OFFCURVE",
"-63 -185 CURVE",
"-46 -193 OFFCURVE",
"-21 -200 OFFCURVE",
"10 -200 CURVE SMOOTH"
);
},
{
closed = 1;
nodes = (
"160 580 OFFCURVE",
"185 605 OFFCURVE",
"185 640 CURVE SMOOTH",
"185 675 OFFCURVE",
"160 700 OFFCURVE",
"125 700 CURVE SMOOTH",
"90 700 OFFCURVE",
"65 675 OFFCURVE",
"65 640 CURVE SMOOTH",
"65 605 OFFCURVE",
"90 580 OFFCURVE",
"125 580 CURVE SMOOTH"
);
}
);
width = 250;
},
{
layerId = "6710F4E3-34F6-4C2D-8CE3-6A261897B433";
paths = (
{
closed = 1;
nodes = (
"160 -200 OFFCURVE",
"230 -130 OFFCURVE",
"230 -30 CURVE SMOOTH",
"230 500 LINE",
"90 500 LINE",
"90 -30 LINE SMOOTH",
"90 -86 OFFCURVE",
"65 -110 OFFCURVE",
"25 -110 CURVE SMOOTH",
"10 -110 OFFCURVE",
"-3 -105 OFFCURVE",
"-14 -98 CURVE SMOOTH",
"-20 -95 OFFCURVE",
"-25 -90 OFFCURVE",
"-30 -85 CURVE",
"-40 -85 LINE",
"-75 -170 LINE",
"-66 -176 OFFCURVE",
"-55 -181 OFFCURVE",
"-43 -185 CURVE SMOOTH",
"-23 -193 OFFCURVE",
"4 -200 OFFCURVE",
"35 -200 CURVE SMOOTH"
);
},
{
closed = 1;
nodes = (
"200 565 OFFCURVE",
"235 600 OFFCURVE",
"235 640 CURVE SMOOTH",
"235 680 OFFCURVE",
"200 715 OFFCURVE",
"160 715 CURVE SMOOTH",
"120 715 OFFCURVE",
"85 680 OFFCURVE",
"85 640 CURVE SMOOTH",
"85 600 OFFCURVE",
"120 565 OFFCURVE",
"160 565 CURVE SMOOTH"
);
}
);
width = 300;
}
);
unicode = 006A;
},
{
glyphname = jcircumflex;
lastChange = "2016-09-19 21:25:12 +0000";
layers = (
{
layerId = UUID0;
paths = (
{
closed = 1;
nodes = (
"130 -200 OFFCURVE",
"195 -136 OFFCURVE",
"195 -40 CURVE SMOOTH",
"195 500 LINE",
"95 500 LINE",
"95 -40 LINE SMOOTH",
"95 -100 OFFCURVE",
"65 -130 OFFCURVE",
"20 -130 CURVE SMOOTH",
"5 -130 OFFCURVE",
"-8 -125 OFFCURVE",
"-19 -118 CURVE SMOOTH",
"-25 -115 OFFCURVE",
"-30 -110 OFFCURVE",
"-35 -105 CURVE",
"-45 -105 LINE",
"-70 -170 LINE",
"-63 -176 OFFCURVE",
"-54 -181 OFFCURVE",
"-43 -185 CURVE",
"-26 -193 OFFCURVE",
"-1 -200 OFFCURVE",
"30 -200 CURVE SMOOTH"
);
},
{
closed = 1;
nodes = (
"63 550 LINE",
"138 615 LINE",
"213 550 LINE",
"278 550 LINE",
"173 680 LINE",
"103 680 LINE",
"-2 550 LINE"
);
}
);
width = 268;
},
{
layerId = "6710F4E3-34F6-4C2D-8CE3-6A261897B433";
paths = (
{
closed = 1;
nodes = (
"160 -200 OFFCURVE",
"230 -130 OFFCURVE",
"230 -30 CURVE SMOOTH",
"230 500 LINE",
"90 500 LINE",
"90 -30 LINE SMOOTH",
"90 -86 OFFCURVE",
"65 -110 OFFCURVE",
"25 -110 CURVE SMOOTH",
"10 -110 OFFCURVE",
"-3 -105 OFFCURVE",
"-14 -98 CURVE SMOOTH",
"-20 -95 OFFCURVE",
"-25 -90 OFFCURVE",
"-30 -85 CURVE",
"-40 -85 LINE",
"-75 -170 LINE",
"-66 -176 OFFCURVE",
"-55 -181 OFFCURVE",
"-43 -185 CURVE SMOOTH",
"-23 -193 OFFCURVE",
"4 -200 OFFCURVE",
"35 -200 CURVE SMOOTH"
);
},
{
closed = 1;
nodes = (
"88 550 LINE",
"153 620 LINE",
"218 550 LINE",
"313 550 LINE",
"203 684 LINE",
"103 684 LINE",
"-7 550 LINE"
);
}
);
width = 298;
}
);
unicode = 0135;
},
{
glyphname = k;
lastChange = "2016-09-19 21:25:12 +0000";
layers = (
{
layerId = UUID0;
paths = (
{
closed = 1;
nodes = (
"175 0 LINE",
"175 250 LINE",
"355 0 LINE",
"470 0 LINE",
"280 260 LINE",
"460 500 LINE",
"345 500 LINE",
"175 270 LINE",
"175 700 LINE",
"105 700 LINE",
"75 670 LINE",
"75 0 LINE"
);
}
);
width = 480;
},
{
layerId = "6710F4E3-34F6-4C2D-8CE3-6A261897B433";
paths = (
{
closed = 1;
nodes = (
"210 0 LINE",
"210 235 LINE",
"350 0 LINE",
"505 0 LINE",
"335 260 LINE",
"495 500 LINE",
"340 500 LINE",
"210 285 LINE",
"210 700 LINE",
"110 700 LINE",
"70 660 LINE",
"70 0 LINE"
);
}
);
width = 510;
}
);
unicode = 006B;
},
{
glyphname = kgreenlandic;
lastChange = "2016-09-19 21:25:12 +0000";
layers = (
{
layerId = UUID0;
paths = (
{
closed = 1;
nodes = (
"175 0 LINE",
"175 250 LINE",
"355 0 LINE",
"470 0 LINE",
"280 260 LINE",
"460 500 LINE",
"345 500 LINE",
"175 270 LINE",
"175 500 LINE",
"105 500 LINE",
"75 470 LINE",
"75 0 LINE"
);
}
);
width = 480;
},
{
layerId = "6710F4E3-34F6-4C2D-8CE3-6A261897B433";
paths = (
{
closed = 1;
nodes = (
"210 0 LINE",
"210 235 LINE",
"350 0 LINE",
"505 0 LINE",
"335 260 LINE",
"495 500 LINE",
"340 500 LINE",
"210 285 LINE",
"210 500 LINE",
"110 500 LINE",
"70 460 LINE",
"70 0 LINE"
);
}
);
width = 510;
}
);
unicode = 0138;
},
{
glyphname = l;
lastChange = "2016-09-19 21:25:12 +0000";
layers = (
{
layerId = UUID0;
paths = (
{
closed = 1;
nodes = (
"175 0 LINE",
"175 700 LINE",
"105 700 LINE",
"75 670 LINE",
"75 0 LINE"
);
}
);
width = 250;
},
{
layerId = "6710F4E3-34F6-4C2D-8CE3-6A261897B433";
paths = (
{
closed = 1;
nodes = (
"210 0 LINE",
"210 700 LINE",
"110 700 LINE",
"70 660 LINE",
"70 0 LINE"
);
}
);
width = 280;
}
);
unicode = 006C;
},
{
glyphname = lcaron;
lastChange = "2016-09-19 21:25:12 +0000";
layers = (
{
layerId = UUID0;
paths = (
{
closed = 1;
nodes = (
"175 0 LINE",
"175 700 LINE",
"105 700 LINE",
"75 670 LINE",
"75 0 LINE"
);
},
{
closed = 1;
nodes = (
"290 493 OFFCURVE",
"303 505 OFFCURVE",
"315 520 CURVE SMOOTH",
"335 545 OFFCURVE",
"355 583 OFFCURVE",
"355 636 CURVE SMOOTH",
"355 675 OFFCURVE",
"330 700 OFFCURVE",
"295 700 CURVE SMOOTH",
"270 700 OFFCURVE",
"245 676 OFFCURVE",
"245 645 CURVE SMOOTH",
"245 614 OFFCURVE",
"270 590 OFFCURVE",
"295 590 CURVE",
"295 570 OFFCURVE",
"282 552 OFFCURVE",
"270 537 CURVE SMOOTH",
"263 529 OFFCURVE",
"254 522 OFFCURVE",
"245 515 CURVE",
"275 484 LINE"
);
}
);
width = 365;
},
{
layerId = "6710F4E3-34F6-4C2D-8CE3-6A261897B433";
paths = (
{
closed = 1;
nodes = (
"210 0 LINE",
"210 700 LINE",
"110 700 LINE",
"70 660 LINE",
"70 0 LINE"
);
},
{
closed = 1;
nodes = (
"331 470 OFFCURVE",
"345 483 OFFCURVE",
"357 499 CURVE SMOOTH",
"378 526 OFFCURVE",
"400 566 OFFCURVE",
"400 625 CURVE SMOOTH",
"400 672 OFFCURVE",
"373 700 OFFCURVE",
"330 700 CURVE SMOOTH",
"298 700 OFFCURVE",
"270 672 OFFCURVE",
"270 635 CURVE SMOOTH",
"270 603 OFFCURVE",
"297 575 OFFCURVE",
"340 575 CURVE",
"340 552 OFFCURVE",
"327 533 OFFCURVE",
"312 518 CURVE SMOOTH",
"304 509 OFFCURVE",
"295 501 OFFCURVE",
"285 494 CURVE",
"315 460 LINE"
);
}
);
width = 410;
}
);
unicode = 013E;
},
{
glyphname = lslash;
lastChange = "2016-09-19 21:25:12 +0000";
layers = (
{
layerId = UUID0;
paths = (
{
closed = 1;
nodes = (
"185 0 LINE",
"185 349 LINE",
"265 420 LINE",
"265 530 LINE",
"185 459 LINE",
"185 700 LINE",
"115 700 LINE",
"85 670 LINE",
"85 379 LINE",
"25 330 LINE",
"25 220 LINE",
"85 269 LINE",
"85 0 LINE"
);
}
);
width = 290;
},
{
layerId = "6710F4E3-34F6-4C2D-8CE3-6A261897B433";
paths = (
{
closed = 1;
nodes = (
"235 0 LINE",
"235 363 LINE",
"305 420 LINE",
"305 550 LINE",
"235 493 LINE",
"235 700 LINE",
"135 700 LINE",
"95 660 LINE",
"95 380 LINE",
"45 340 LINE",
"45 210 LINE",
"95 250 LINE",
"95 0 LINE"
);
}
);
width = 325;
}
);
unicode = 0142;
},
{
glyphname = m;
lastChange = "2016-09-19 21:25:12 +0000";
layers = (
{
layerId = UUID0;
paths = (
{
closed = 1;
nodes = (
"175 0 LINE",
"175 375 LINE",
"184 386 OFFCURVE",
"193 396 OFFCURVE",
"204 405 CURVE SMOOTH",
"221 420 OFFCURVE",
"245 435 OFFCURVE",
"270 435 CURVE SMOOTH",
"315 435 OFFCURVE",
"355 396 OFFCURVE",
"355 340 CURVE SMOOTH",
"355 0 LINE",
"455 0 LINE",
"455 385 LINE",
"464 394 OFFCURVE",
"473 403 OFFCURVE",
"484 410 CURVE SMOOTH",
"501 422 OFFCURVE",
"525 435 OFFCURVE",
"550 435 CURVE SMOOTH",
"595 435 OFFCURVE",
"635 396 OFFCURVE",
"635 340 CURVE SMOOTH",
"635 0 LINE",
"735 0 LINE",
"735 340 LINE SMOOTH",
"735 440 OFFCURVE",
"665 510 OFFCURVE",
"575 510 CURVE SMOOTH",
"530 510 OFFCURVE",
"493 492 OFFCURVE",
"466 475 CURVE",
"451 464 OFFCURVE",
"437 453 OFFCURVE",
"425 440 CURVE",
"418 453 OFFCURVE",
"408 464 OFFCURVE",
"396 475 CURVE SMOOTH",
"375 492 OFFCURVE",
"342 510 OFFCURVE",
"295 510 CURVE SMOOTH",
"252 510 OFFCURVE",
"219 492 OFFCURVE",
"196 475 CURVE",
"183 464 OFFCURVE",
"171 453 OFFCURVE",
"160 440 CURVE",
"155 440 LINE",
"145 500 LINE",
"75 500 LINE",
"75 0 LINE"
);
}
);
width = 805;
},
{
layerId = "6710F4E3-34F6-4C2D-8CE3-6A261897B433";
paths = (
{
closed = 1;
nodes = (
"210 0 LINE",
"210 355 LINE",
"215 366 OFFCURVE",
"222 376 OFFCURVE",
"229 385 CURVE SMOOTH",
"241 400 OFFCURVE",
"260 415 OFFCURVE",
"285 415 CURVE SMOOTH",
"320 415 OFFCURVE",
"350 385 OFFCURVE",
"350 320 CURVE SMOOTH",
"350 0 LINE",
"490 0 LINE",
"490 365 LINE",
"497 374 OFFCURVE",
"504 383 OFFCURVE",
"511 390 CURVE SMOOTH",
"524 402 OFFCURVE",
"542 415 OFFCURVE",
"565 415 CURVE SMOOTH",
"600 415 OFFCURVE",
"630 385 OFFCURVE",
"630 320 CURVE SMOOTH",
"630 0 LINE",
"770 0 LINE",
"770 320 LINE SMOOTH",
"770 441 OFFCURVE",
"701 510 OFFCURVE",
"590 510 CURVE SMOOTH",
"542 510 OFFCURVE",
"506 492 OFFCURVE",
"479 475 CURVE",
"464 464 OFFCURVE",
"451 453 OFFCURVE",
"440 440 CURVE",
"433 453 OFFCURVE",
"424 464 OFFCURVE",
"412 475 CURVE SMOOTH",
"392 492 OFFCURVE",
"361 510 OFFCURVE",
"310 510 CURVE SMOOTH",
"270 510 OFFCURVE",
"238 492 OFFCURVE",
"217 475 CURVE SMOOTH",
"205 464 OFFCURVE",
"194 453 OFFCURVE",
"185 440 CURVE",
"180 440 LINE",
"170 500 LINE",
"70 500 LINE",
"70 0 LINE"
);
}
);
width = 835;
}
);
unicode = 006D;
},
{
glyphname = n;
lastChange = "2016-09-19 21:25:12 +0000";
layers = (
{
layerId = UUID0;
paths = (
{
closed = 1;
nodes = (
"175 0 LINE",
"175 375 LINE",
"184 386 OFFCURVE",
"194 396 OFFCURVE",
"205 405 CURVE SMOOTH",
"224 420 OFFCURVE",
"249 435 OFFCURVE",
"280 435 CURVE SMOOTH",
"336 435 OFFCURVE",
"375 396 OFFCURVE",
"375 340 CURVE SMOOTH",
"375 0 LINE",
"475 0 LINE",
"475 340 LINE SMOOTH",
"475 440 OFFCURVE",
"405 510 OFFCURVE",
"305 510 CURVE SMOOTH",
"254 510 OFFCURVE",
"219 492 OFFCURVE",
"195 475 CURVE SMOOTH",
"181 464 OFFCURVE",
"169 453 OFFCURVE",
"160 440 CURVE",
"155 440 LINE",
"145 500 LINE",
"75 500 LINE",
"75 0 LINE"
);
}
);
width = 545;
},
{
layerId = "6710F4E3-34F6-4C2D-8CE3-6A261897B433";
paths = (
{
closed = 1;
nodes = (
"210 0 LINE",
"210 355 LINE",
"217 366 OFFCURVE",
"224 376 OFFCURVE",
"232 385 CURVE SMOOTH",
"247 400 OFFCURVE",
"267 415 OFFCURVE",
"295 415 CURVE SMOOTH",
"340 415 OFFCURVE",
"370 385 OFFCURVE",
"370 320 CURVE SMOOTH",
"370 0 LINE",
"510 0 LINE",
"510 320 LINE SMOOTH",
"510 441 OFFCURVE",
"441 510 OFFCURVE",
"320 510 CURVE SMOOTH",
"275 510 OFFCURVE",
"242 492 OFFCURVE",
"219 475 CURVE",
"206 464 OFFCURVE",
"194 453 OFFCURVE",
"185 440 CURVE",
"180 440 LINE",
"170 500 LINE",
"70 500 LINE",
"70 0 LINE"
);
}
);
width = 575;
}
);
unicode = 006E;
},
{
glyphname = o;
lastChange = "2016-09-19 21:25:12 +0000";
layers = (
{
layerId = UUID0;
paths = (
{
closed = 1;
nodes = (
"395 -10 OFFCURVE",
"480 75 OFFCURVE",
"480 250 CURVE SMOOTH",
"480 425 OFFCURVE",
"395 510 OFFCURVE",
"265 510 CURVE SMOOTH",
"134 510 OFFCURVE",
"50 425 OFFCURVE",
"50 250 CURVE SMOOTH",
"50 75 OFFCURVE",
"134 -10 OFFCURVE",
"265 -10 CURVE SMOOTH"
);
},
{
closed = 1;
nodes = (
"201 60 OFFCURVE",
"150 110 OFFCURVE",
"150 250 CURVE SMOOTH",
"150 390 OFFCURVE",
"201 440 OFFCURVE",
"265 440 CURVE SMOOTH",
"329 440 OFFCURVE",
"380 390 OFFCURVE",
"380 250 CURVE SMOOTH",
"380 110 OFFCURVE",
"329 60 OFFCURVE",
"265 60 CURVE SMOOTH"
);
}
);
width = 530;
},
{
layerId = "6710F4E3-34F6-4C2D-8CE3-6A261897B433";
paths = (
{
closed = 1;
nodes = (
"415 -10 OFFCURVE",
"500 74 OFFCURVE",
"500 250 CURVE SMOOTH",
"500 426 OFFCURVE",
"415 510 OFFCURVE",
"270 510 CURVE SMOOTH",
"125 510 OFFCURVE",
"40 426 OFFCURVE",
"40 250 CURVE SMOOTH",
"40 74 OFFCURVE",
"125 -10 OFFCURVE",
"270 -10 CURVE SMOOTH"
);
},
{
closed = 1;
nodes = (
"219 80 OFFCURVE",
"180 120 OFFCURVE",
"180 250 CURVE SMOOTH",
"180 380 OFFCURVE",
"219 420 OFFCURVE",
"270 420 CURVE SMOOTH",
"321 420 OFFCURVE",
"360 380 OFFCURVE",
"360 250 CURVE SMOOTH",
"360 120 OFFCURVE",
"321 80 OFFCURVE",
"270 80 CURVE SMOOTH"
);
}
);
width = 540;
}
);
unicode = 006F;
},
{
glyphname = oslash;
lastChange = "2016-09-19 21:25:12 +0000";
layers = (
{
layerId = UUID0;
paths = (
{
closed = 1;
nodes = (
"395 -10 OFFCURVE",
"480 75 OFFCURVE",
"480 250 CURVE SMOOTH",
"480 333 OFFCURVE",
"461 394 OFFCURVE",
"428 437 CURVE",
"470 500 LINE",
"390 500 LINE",
"378 482 LINE",
"347 501 OFFCURVE",
"309 510 OFFCURVE",
"265 510 CURVE SMOOTH",
"134 510 OFFCURVE",
"50 425 OFFCURVE",
"50 250 CURVE SMOOTH",
"50 169 OFFCURVE",
"67 107 OFFCURVE",
"101 63 CURVE",
"60 0 LINE",
"140 0 LINE",
"152 18 LINE",
"185 -1 OFFCURVE",
"223 -10 OFFCURVE",
"265 -10 CURVE SMOOTH"
);
},
{
closed = 1;
nodes = (
"238 60 OFFCURVE",
"215 67 OFFCURVE",
"196 86 CURVE",
"369 347 LINE",
"376 320 OFFCURVE",
"380 287 OFFCURVE",
"380 250 CURVE SMOOTH",
"380 110 OFFCURVE",
"329 60 OFFCURVE",
"265 60 CURVE SMOOTH"
);
},
{
closed = 1;
nodes = (
"154 180 OFFCURVE",
"150 213 OFFCURVE",
"150 250 CURVE SMOOTH",
"150 390 OFFCURVE",
"201 440 OFFCURVE",
"265 440 CURVE SMOOTH",
"292 440 OFFCURVE",
"315 431 OFFCURVE",
"333 414 CURVE",
"161 153 LINE"
);
}
);
width = 530;
},
{
layerId = "6710F4E3-34F6-4C2D-8CE3-6A261897B433";
paths = (
{
closed = 1;
nodes = (
"415 -10 OFFCURVE",
"500 74 OFFCURVE",
"500 250 CURVE SMOOTH",
"500 330 OFFCURVE",
"482 389 OFFCURVE",
"450 432 CURVE",
"499 500 LINE",
"405 500 LINE",
"392 482 LINE",
"359 501 OFFCURVE",
"318 510 OFFCURVE",
"270 510 CURVE SMOOTH",
"125 510 OFFCURVE",
"40 426 OFFCURVE",
"40 250 CURVE SMOOTH",
"40 173 OFFCURVE",
"56 112 OFFCURVE",
"89 68 CURVE",
"40 0 LINE",
"135 0 LINE",
"147 17 LINE",
"181 -1 OFFCURVE",
"222 -10 OFFCURVE",
"270 -10 CURVE SMOOTH"
);
},
{
closed = 1;
nodes = (
"247 80 OFFCURVE",
"228 87 OFFCURVE",
"213 107 CURVE",
"357 305 LINE",
"359 288 OFFCURVE",
"360 269 OFFCURVE",
"360 250 CURVE SMOOTH",
"360 120 OFFCURVE",
"321 80 OFFCURVE",
"270 80 CURVE SMOOTH"
);
},
{
closed = 1;
nodes = (
"179 211 OFFCURVE",
"180 229 OFFCURVE",
"180 250 CURVE SMOOTH",
"180 380 OFFCURVE",
"219 420 OFFCURVE",
"270 420 CURVE SMOOTH",
"293 420 OFFCURVE",
"312 411 OFFCURVE",
"327 393 CURVE",
"182 195 LINE"
);
}
);
width = 540;
}
);
unicode = 00F8;
},
{
glyphname = oe;
lastChange = "2016-09-19 21:25:12 +0000";
layers = (
{
layerId = UUID0;
paths = (
{
closed = 1;
nodes = (
"336 -10 OFFCURVE",
"385 15 OFFCURVE",
"421 70 CURVE",
"460 15 OFFCURVE",
"520 -10 OFFCURVE",
"585 -10 CURVE SMOOTH",
"636 -10 OFFCURVE",
"676 2 OFFCURVE",
"705 17 CURVE SMOOTH",
"722 25 OFFCURVE",
"737 34 OFFCURVE",
"750 45 CURVE",
"715 105 LINE",
"705 105 LINE",
"695 96 OFFCURVE",
"684 89 OFFCURVE",
"672 82 CURVE SMOOTH",
"652 71 OFFCURVE",
"626 60 OFFCURVE",
"595 60 CURVE SMOOTH",
"524 60 OFFCURVE",
"475 110 OFFCURVE",
"475 215 CURVE",
"755 215 LINE",
"775 235 LINE",
"775 250 LINE SMOOTH",
"775 425 OFFCURVE",
"690 510 OFFCURVE",
"575 510 CURVE SMOOTH",
"506 510 OFFCURVE",
"455 475 OFFCURVE",
"420 430 CURVE",
"385 475 OFFCURVE",
"336 510 OFFCURVE",
"260 510 CURVE SMOOTH",
"135 510 OFFCURVE",
"50 425 OFFCURVE",
"50 250 CURVE SMOOTH",
"50 75 OFFCURVE",
"135 -10 OFFCURVE",
"260 -10 CURVE SMOOTH"
);
},
{
closed = 1;
nodes = (
"199 60 OFFCURVE",
"150 110 OFFCURVE",
"150 250 CURVE SMOOTH",
"150 390 OFFCURVE",
"199 440 OFFCURVE",
"260 440 CURVE SMOOTH",
"319 440 OFFCURVE",
"367 392 OFFCURVE",
"370 260 CURVE SMOOTH",
"370 250 LINE",
"370 239 LINE SMOOTH",
"367 107 OFFCURVE",
"319 60 OFFCURVE",
"260 60 CURVE SMOOTH"
);
},
{
closed = 1;
nodes = (
"475 394 OFFCURVE",
"520 440 OFFCURVE",
"575 440 CURVE SMOOTH",
"630 440 OFFCURVE",
"675 394 OFFCURVE",
"675 285 CURVE",
"475 285 LINE"
);
}
);
width = 820;
},
{
layerId = "6710F4E3-34F6-4C2D-8CE3-6A261897B433";
paths = (
{
closed = 1;
nodes = (
"341 -10 OFFCURVE",
"390 15 OFFCURVE",
"430 60 CURVE",
"470 15 OFFCURVE",
"535 -10 OFFCURVE",
"615 -10 CURVE SMOOTH",
"666 -10 OFFCURVE",
"706 2 OFFCURVE",
"737 15 CURVE SMOOTH",
"754 22 OFFCURVE",
"770 31 OFFCURVE",
"785 40 CURVE",
"740 120 LINE",
"730 120 LINE",
"722 113 OFFCURVE",
"713 106 OFFCURVE",
"702 100 CURVE SMOOTH",
"683 89 OFFCURVE",
"657 80 OFFCURVE",
"625 80 CURVE SMOOTH",
"545 80 OFFCURVE",
"505 122 OFFCURVE",
"505 205 CURVE",
"775 205 LINE",
"805 235 LINE",
"805 260 LINE SMOOTH",
"805 425 OFFCURVE",
"720 510 OFFCURVE",
"585 510 CURVE SMOOTH",
"525 510 OFFCURVE",
"470 485 OFFCURVE",
"430 440 CURVE",
"390 485 OFFCURVE",
"330 510 OFFCURVE",
"270 510 CURVE SMOOTH",
"125 510 OFFCURVE",
"40 426 OFFCURVE",
"40 250 CURVE SMOOTH",
"40 74 OFFCURVE",
"125 -10 OFFCURVE",
"270 -10 CURVE SMOOTH"
);
},
{
closed = 1;
nodes = (
"219 80 OFFCURVE",
"180 120 OFFCURVE",
"180 250 CURVE SMOOTH",
"180 380 OFFCURVE",
"219 420 OFFCURVE",
"270 420 CURVE SMOOTH",
"321 420 OFFCURVE",
"360 380 OFFCURVE",
"360 250 CURVE SMOOTH",
"360 120 OFFCURVE",
"321 80 OFFCURVE",
"270 80 CURVE SMOOTH"
);
},
{
closed = 1;
nodes = (
"505 380 OFFCURVE",
"545 420 OFFCURVE",
"585 420 CURVE SMOOTH",
"625 420 OFFCURVE",
"665 380 OFFCURVE",
"665 295 CURVE",
"505 295 LINE"
);
}
);
width = 845;
}
);
unicode = 0153;
},
{
glyphname = p;
lastChange = "2016-09-19 21:25:12 +0000";
layers = (
{
layerId = UUID0;
paths = (
{
closed = 1;
nodes = (
"145 -200 LINE",
"175 -170 LINE",
"175 20 LINE",
"184 14 OFFCURVE",
"195 9 OFFCURVE",
"207 5 CURVE SMOOTH",
"227 -3 OFFCURVE",
"254 -10 OFFCURVE",
"285 -10 CURVE SMOOTH",
"400 -10 OFFCURVE",
"485 75 OFFCURVE",
"485 250 CURVE SMOOTH",
"485 425 OFFCURVE",
"400 510 OFFCURVE",
"305 510 CURVE SMOOTH",
"254 510 OFFCURVE",
"219 492 OFFCURVE",
"195 475 CURVE SMOOTH",
"181 464 OFFCURVE",
"169 453 OFFCURVE",
"160 440 CURVE",
"155 440 LINE",
"145 500 LINE",
"75 500 LINE",
"75 -200 LINE"
);
},
{
closed = 1;
nodes = (
"242 60 OFFCURVE",
"219 65 OFFCURVE",
"202 70 CURVE SMOOTH",
"192 73 OFFCURVE",
"183 76 OFFCURVE",
"175 80 CURVE",
"175 375 LINE",
"184 386 OFFCURVE",
"194 396 OFFCURVE",
"205 405 CURVE SMOOTH",
"224 420 OFFCURVE",
"249 435 OFFCURVE",
"280 435 CURVE SMOOTH",
"336 435 OFFCURVE",
"385 385 OFFCURVE",
"385 250 CURVE SMOOTH",
"385 110 OFFCURVE",
"334 60 OFFCURVE",
"270 60 CURVE SMOOTH"
);
}
);
width = 535;
},
{
layerId = "6710F4E3-34F6-4C2D-8CE3-6A261897B433";
paths = (
{
closed = 1;
nodes = (
"170 -200 LINE",
"210 -160 LINE",
"210 20 LINE",
"217 14 OFFCURVE",
"226 9 OFFCURVE",
"237 5 CURVE",
"254 -3 OFFCURVE",
"279 -10 OFFCURVE",
"310 -10 CURVE SMOOTH",
"435 -10 OFFCURVE",
"520 75 OFFCURVE",
"520 250 CURVE SMOOTH",
"520 425 OFFCURVE",
"435 510 OFFCURVE",
"320 510 CURVE SMOOTH",
"275 510 OFFCURVE",
"242 492 OFFCURVE",
"219 475 CURVE",
"206 464 OFFCURVE",
"194 453 OFFCURVE",
"185 440 CURVE",
"180 440 LINE",
"170 500 LINE",
"70 500 LINE",
"70 -200 LINE"
);
},
{
closed = 1;
nodes = (
"262 80 OFFCURVE",
"244 87 OFFCURVE",
"231 95 CURVE SMOOTH",
"224 99 OFFCURVE",
"217 104 OFFCURVE",
"210 110 CURVE",
"210 355 LINE",
"217 366 OFFCURVE",
"224 376 OFFCURVE",
"232 385 CURVE SMOOTH",
"247 400 OFFCURVE",
"267 415 OFFCURVE",
"295 415 CURVE SMOOTH",
"340 415 OFFCURVE",
"380 375 OFFCURVE",
"380 250 CURVE SMOOTH",
"380 120 OFFCURVE",
"340 80 OFFCURVE",
"285 80 CURVE SMOOTH"
);
}
);
width = 560;
}
);
unicode = 0070;
},
{
glyphname = thorn;
lastChange = "2016-09-19 21:25:12 +0000";
layers = (
{
layerId = UUID0;
paths = (
{
closed = 1;
nodes = (
"180 -200 LINE",
"180 20 LINE",
"189 14 OFFCURVE",
"200 9 OFFCURVE",
"212 5 CURVE SMOOTH",
"232 -3 OFFCURVE",
"259 -10 OFFCURVE",
"290 -10 CURVE SMOOTH",
"405 -10 OFFCURVE",
"490 75 OFFCURVE",
"490 250 CURVE SMOOTH",
"490 425 OFFCURVE",
"405 510 OFFCURVE",
"290 510 CURVE SMOOTH",
"259 510 OFFCURVE",
"232 502 OFFCURVE",
"212 495 CURVE SMOOTH",
"200 490 OFFCURVE",
"189 485 OFFCURVE",
"180 480 CURVE",
"180 700 LINE",
"110 700 LINE",
"80 670 LINE",
"80 -200 LINE"
);
},
{
closed = 1;
nodes = (
"247 60 OFFCURVE",
"224 65 OFFCURVE",
"207 70 CURVE SMOOTH",
"197 73 OFFCURVE",
"188 76 OFFCURVE",
"180 80 CURVE",
"180 420 LINE",
"188 424 OFFCURVE",
"197 427 OFFCURVE",
"207 430 CURVE SMOOTH",
"224 435 OFFCURVE",
"247 440 OFFCURVE",
"275 440 CURVE SMOOTH",
"339 440 OFFCURVE",
"390 390 OFFCURVE",
"390 250 CURVE SMOOTH",
"390 110 OFFCURVE",
"339 60 OFFCURVE",
"275 60 CURVE SMOOTH"
);
}
);
width = 540;
},
{
layerId = "6710F4E3-34F6-4C2D-8CE3-6A261897B433";
paths = (
{
closed = 1;
nodes = (
"210 -200 LINE",
"210 20 LINE",
"217 14 OFFCURVE",
"226 9 OFFCURVE",
"237 5 CURVE",
"254 -3 OFFCURVE",
"279 -10 OFFCURVE",
"310 -10 CURVE SMOOTH",
"435 -10 OFFCURVE",
"520 75 OFFCURVE",
"520 250 CURVE SMOOTH",
"520 425 OFFCURVE",
"435 510 OFFCURVE",
"310 510 CURVE SMOOTH",
"279 510 OFFCURVE",
"254 502 OFFCURVE",
"237 495 CURVE SMOOTH",
"226 490 OFFCURVE",
"217 485 OFFCURVE",
"210 480 CURVE",
"210 700 LINE",
"110 700 LINE",
"70 660 LINE",
"70 -200 LINE"
);
},
{
closed = 1;
nodes = (
"262 80 OFFCURVE",
"244 87 OFFCURVE",
"231 95 CURVE SMOOTH",
"224 99 OFFCURVE",
"217 104 OFFCURVE",
"210 110 CURVE",
"210 390 LINE",
"231 405 LINE",
"244 412 OFFCURVE",
"262 420 OFFCURVE",
"285 420 CURVE SMOOTH",
"340 420 OFFCURVE",
"380 380 OFFCURVE",
"380 250 CURVE SMOOTH",
"380 120 OFFCURVE",
"340 80 OFFCURVE",
"285 80 CURVE SMOOTH"
);
}
);
width = 560;
}
);
unicode = 00FE;
},
{
glyphname = q;
lastChange = "2016-09-19 21:25:12 +0000";
layers = (
{
layerId = UUID0;
paths = (
{
closed = 1;
nodes = (
"460 -200 LINE",
"460 500 LINE",
"390 500 LINE",
"380 440 LINE",
"375 440 LINE",
"366 453 OFFCURVE",
"354 464 OFFCURVE",
"340 475 CURVE SMOOTH",
"316 492 OFFCURVE",
"281 510 OFFCURVE",
"230 510 CURVE SMOOTH",
"135 510 OFFCURVE",
"50 425 OFFCURVE",
"50 250 CURVE SMOOTH",
"50 75 OFFCURVE",
"135 -10 OFFCURVE",
"250 -10 CURVE SMOOTH",
"281 -10 OFFCURVE",
"307 -3 OFFCURVE",
"327 5 CURVE SMOOTH",
"339 9 OFFCURVE",
"350 14 OFFCURVE",
"360 20 CURVE",
"360 -170 LINE",
"390 -200 LINE"
);
},
{
closed = 1;
nodes = (
"201 60 OFFCURVE",
"150 110 OFFCURVE",
"150 250 CURVE SMOOTH",
"150 385 OFFCURVE",
"199 435 OFFCURVE",
"255 435 CURVE SMOOTH",
"286 435 OFFCURVE",
"311 420 OFFCURVE",
"330 405 CURVE SMOOTH",
"341 396 OFFCURVE",
"351 386 OFFCURVE",
"360 375 CURVE",
"360 80 LINE",
"352 76 OFFCURVE",
"343 73 OFFCURVE",
"333 70 CURVE SMOOTH",
"316 65 OFFCURVE",
"292 60 OFFCURVE",
"265 60 CURVE SMOOTH"
);
}
);
width = 535;
},
{
layerId = "6710F4E3-34F6-4C2D-8CE3-6A261897B433";
paths = (
{
closed = 1;
nodes = (
"490 -200 LINE",
"490 500 LINE",
"390 500 LINE",
"380 440 LINE",
"375 440 LINE",
"365 453 OFFCURVE",
"354 464 OFFCURVE",
"341 475 CURVE",
"318 492 OFFCURVE",
"285 510 OFFCURVE",
"240 510 CURVE SMOOTH",
"125 510 OFFCURVE",
"40 425 OFFCURVE",
"40 250 CURVE SMOOTH",
"40 75 OFFCURVE",
"125 -10 OFFCURVE",
"250 -10 CURVE SMOOTH",
"281 -10 OFFCURVE",
"303 -3 OFFCURVE",
"322 5 CURVE SMOOTH",
"332 9 OFFCURVE",
"341 14 OFFCURVE",
"350 20 CURVE",
"350 -160 LINE",
"390 -200 LINE"
);
},
{
closed = 1;
nodes = (
"220 80 OFFCURVE",
"180 120 OFFCURVE",
"180 250 CURVE SMOOTH",
"180 375 OFFCURVE",
"220 415 OFFCURVE",
"265 415 CURVE SMOOTH",
"292 415 OFFCURVE",
"313 400 OFFCURVE",
"328 385 CURVE SMOOTH",
"336 376 OFFCURVE",
"343 366 OFFCURVE",
"350 355 CURVE",
"350 110 LINE",
"343 104 OFFCURVE",
"336 99 OFFCURVE",
"329 95 CURVE SMOOTH",
"316 87 OFFCURVE",
"298 80 OFFCURVE",
"275 80 CURVE SMOOTH"
);
}
);
width = 560;
}
);
unicode = 0071;
},
{
glyphname = r;
lastChange = "2016-09-19 21:25:12 +0000";
layers = (
{
layerId = UUID0;
paths = (
{
closed = 1;
nodes = (
"175 0 LINE",
"175 370 LINE",
"184 381 OFFCURVE",
"193 391 OFFCURVE",
"204 400 CURVE SMOOTH",
"223 415 OFFCURVE",
"247 430 OFFCURVE",
"275 430 CURVE SMOOTH",
"290 430 OFFCURVE",
"306 428 OFFCURVE",
"319 425 CURVE SMOOTH",
"326 423 OFFCURVE",
"333 421 OFFCURVE",
"340 420 CURVE",
"350 420 LINE",
"365 500 LINE",
"346 505 LINE SMOOTH",
"334 508 OFFCURVE",
"317 510 OFFCURVE",
"300 510 CURVE SMOOTH",
"252 510 OFFCURVE",
"217 492 OFFCURVE",
"194 475 CURVE",
"181 464 OFFCURVE",
"169 453 OFFCURVE",
"160 440 CURVE",
"155 440 LINE",
"145 500 LINE",
"75 500 LINE",
"75 0 LINE"
);
}
);
width = 365;
},
{
layerId = "6710F4E3-34F6-4C2D-8CE3-6A261897B433";
paths = (
{
closed = 1;
nodes = (
"210 0 LINE",
"210 350 LINE",
"217 361 OFFCURVE",
"224 371 OFFCURVE",
"232 380 CURVE SMOOTH",
"247 395 OFFCURVE",
"267 410 OFFCURVE",
"295 410 CURVE SMOOTH",
"312 410 OFFCURVE",
"330 408 OFFCURVE",
"343 405 CURVE SMOOTH",
"350 403 OFFCURVE",
"358 401 OFFCURVE",
"365 400 CURVE",
"375 400 LINE",
"395 500 LINE",
"387 501 OFFCURVE",
"379 503 OFFCURVE",
"371 505 CURVE SMOOTH",
"356 508 OFFCURVE",
"337 510 OFFCURVE",
"320 510 CURVE SMOOTH",
"275 510 OFFCURVE",
"242 492 OFFCURVE",
"219 475 CURVE",
"206 464 OFFCURVE",
"194 453 OFFCURVE",
"185 440 CURVE",
"180 440 LINE",
"170 500 LINE",
"70 500 LINE",
"70 0 LINE"
);
}
);
width = 395;
}
);
unicode = 0072;
},
{
glyphname = s;
lastChange = "2016-09-19 21:25:12 +0000";
layers = (
{
layerId = UUID0;
paths = (
{
closed = 1;
nodes = (
"365 -10 OFFCURVE",
"425 50 OFFCURVE",
"425 140 CURVE SMOOTH",
"425 309 OFFCURVE",
"145 266 OFFCURVE",
"145 375 CURVE SMOOTH",
"145 410 OFFCURVE",
"174 440 OFFCURVE",
"245 440 CURVE SMOOTH",
"280 440 OFFCURVE",
"310 428 OFFCURVE",
"331 417 CURVE SMOOTH",
"343 410 OFFCURVE",
"354 403 OFFCURVE",
"365 395 CURVE",
"375 395 LINE",
"410 455 LINE",
"397 465 OFFCURVE",
"381 474 OFFCURVE",
"364 482 CURVE SMOOTH",
"333 497 OFFCURVE",
"291 510 OFFCURVE",
"235 510 CURVE SMOOTH",
"104 510 OFFCURVE",
"45 450 OFFCURVE",
"45 365 CURVE SMOOTH",
"45 195 OFFCURVE",
"325 240 OFFCURVE",
"325 130 CURVE SMOOTH",
"325 90 OFFCURVE",
"295 60 OFFCURVE",
"210 60 CURVE SMOOTH",
"170 60 OFFCURVE",
"138 71 OFFCURVE",
"115 82 CURVE SMOOTH",
"102 89 OFFCURVE",
"90 96 OFFCURVE",
"80 105 CURVE",
"70 105 LINE",
"35 45 LINE",
"48 34 OFFCURVE",
"64 25 OFFCURVE",
"82 17 CURVE SMOOTH",
"113 2 OFFCURVE",
"160 -10 OFFCURVE",
"220 -10 CURVE SMOOTH"
);
}
);
width = 460;
},
{
layerId = "6710F4E3-34F6-4C2D-8CE3-6A261897B433";
paths = (
{
closed = 1;
nodes = (
"390 -10 OFFCURVE",
"455 55 OFFCURVE",
"455 146 CURVE SMOOTH",
"455 316 OFFCURVE",
"180 286 OFFCURVE",
"180 370 CURVE SMOOTH",
"180 395 OFFCURVE",
"204 420 OFFCURVE",
"260 420 CURVE SMOOTH",
"297 420 OFFCURVE",
"328 411 OFFCURVE",
"351 400 CURVE SMOOTH",
"364 394 OFFCURVE",
"375 387 OFFCURVE",
"385 380 CURVE",
"395 380 LINE",
"440 460 LINE",
"424 469 OFFCURVE",
"406 478 OFFCURVE",
"386 485 CURVE SMOOTH",
"351 497 OFFCURVE",
"306 510 OFFCURVE",
"250 510 CURVE SMOOTH",
"105 510 OFFCURVE",
"40 445 OFFCURVE",
"40 360 CURVE SMOOTH",
"40 190 OFFCURVE",
"315 221 OFFCURVE",
"315 136 CURVE SMOOTH",
"315 105 OFFCURVE",
"291 80 OFFCURVE",
"220 80 CURVE SMOOTH",
"177 80 OFFCURVE",
"144 89 OFFCURVE",
"121 100 CURVE SMOOTH",
"108 106 OFFCURVE",
"96 113 OFFCURVE",
"85 120 CURVE",
"75 120 LINE",
"30 40 LINE",
"47 31 OFFCURVE",
"66 22 OFFCURVE",
"87 15 CURVE SMOOTH",
"123 2 OFFCURVE",
"175 -10 OFFCURVE",
"235 -10 CURVE SMOOTH"
);
}
);
width = 485;
}
);
unicode = 0073;
},
{
glyphname = germandbls;
lastChange = "2016-09-19 21:25:12 +0000";
layers = (
{
layerId = UUID0;
paths = (
{
closed = 1;
nodes = (
"511 -10 OFFCURVE",
"585 64 OFFCURVE",
"585 180 CURVE SMOOTH",
"585 330 OFFCURVE",
"400 345 OFFCURVE",
"400 450 CURVE SMOOTH",
"400 501 OFFCURVE",
"440 509 OFFCURVE",
"440 570 CURVE SMOOTH",
"440 650 OFFCURVE",
"381 710 OFFCURVE",
"265 710 CURVE SMOOTH",
"165 710 OFFCURVE",
"100 646 OFFCURVE",
"100 550 CURVE SMOOTH",
"100 490 LINE",
"35 490 LINE",
"35 420 LINE",
"100 420 LINE",
"100 0 LINE",
"200 0 LINE",
"200 550 LINE SMOOTH",
"200 610 OFFCURVE",
"230 640 OFFCURVE",
"275 640 CURVE SMOOTH",
"310 640 OFFCURVE",
"340 610 OFFCURVE",
"340 570 CURVE SMOOTH",
"340 519 OFFCURVE",
"310 501 OFFCURVE",
"310 450 CURVE SMOOTH",
"310 300 OFFCURVE",
"485 286 OFFCURVE",
"485 170 CURVE SMOOTH",
"485 99 OFFCURVE",
"445 60 OFFCURVE",
"380 60 CURVE SMOOTH",
"360 60 OFFCURVE",
"343 65 OFFCURVE",
"332 72 CURVE",
"325 75 OFFCURVE",
"320 80 OFFCURVE",
"315 85 CURVE",
"305 85 LINE",
"280 20 LINE",
"288 14 OFFCURVE",
"298 9 OFFCURVE",
"309 5 CURVE SMOOTH",
"328 -3 OFFCURVE",
"355 -10 OFFCURVE",
"390 -10 CURVE SMOOTH"
);
}
);
width = 620;
},
{
layerId = "6710F4E3-34F6-4C2D-8CE3-6A261897B433";
paths = (
{
closed = 1;
nodes = (
"525 -10 OFFCURVE",
"600 66 OFFCURVE",
"600 170 CURVE SMOOTH",
"600 320 OFFCURVE",
"415 330 OFFCURVE",
"415 420 CURVE SMOOTH",
"415 470 OFFCURVE",
"465 499 OFFCURVE",
"465 560 CURVE SMOOTH",
"465 635 OFFCURVE",
"390 710 OFFCURVE",
"260 710 CURVE SMOOTH",
"151 710 OFFCURVE",
"75 635 OFFCURVE",
"75 550 CURVE SMOOTH",
"75 500 LINE",
"20 500 LINE",
"20 410 LINE",
"75 410 LINE",
"75 0 LINE",
"215 0 LINE",
"215 550 LINE SMOOTH",
"215 595 OFFCURVE",
"239 620 OFFCURVE",
"270 620 CURVE SMOOTH",
"301 620 OFFCURVE",
"325 595 OFFCURVE",
"325 560 CURVE SMOOTH",
"325 510 OFFCURVE",
"285 480 OFFCURVE",
"285 420 CURVE SMOOTH",
"285 281 OFFCURVE",
"460 269 OFFCURVE",
"460 170 CURVE SMOOTH",
"460 110 OFFCURVE",
"432 80 OFFCURVE",
"375 80 CURVE SMOOTH",
"355 80 OFFCURVE",
"338 85 OFFCURVE",
"327 92 CURVE",
"320 95 OFFCURVE",
"315 100 OFFCURVE",
"310 105 CURVE",
"300 105 LINE",
"265 20 LINE",
"276 14 OFFCURVE",
"287 9 OFFCURVE",
"299 5 CURVE SMOOTH",
"320 -3 OFFCURVE",
"350 -10 OFFCURVE",
"385 -10 CURVE SMOOTH"
);
}
);
width = 620;
}
);
unicode = 00DF;
},
{
glyphname = t;
lastChange = "2016-09-19 21:25:12 +0000";
layers = (
{
layerId = UUID0;
paths = (
{
closed = 1;
nodes = (
"300 -10 OFFCURVE",
"335 2 OFFCURVE",
"360 15 CURVE SMOOTH",
"375 22 OFFCURVE",
"388 31 OFFCURVE",
"400 40 CURVE",
"365 100 LINE",
"355 100 LINE",
"347 93 OFFCURVE",
"338 86 OFFCURVE",
"329 80 CURVE SMOOTH",
"313 69 OFFCURVE",
"293 60 OFFCURVE",
"270 60 CURVE SMOOTH",
"225 60 OFFCURVE",
"195 90 OFFCURVE",
"195 150 CURVE SMOOTH",
"195 430 LINE",
"320 430 LINE",
"320 500 LINE",
"195 500 LINE",
"195 620 LINE",
"150 620 LINE",
"20 490 LINE",
"20 430 LINE",
"95 430 LINE",
"95 150 LINE SMOOTH",
"95 54 OFFCURVE",
"160 -10 OFFCURVE",
"260 -10 CURVE SMOOTH"
);
}
);
width = 400;
},
{
layerId = "6710F4E3-34F6-4C2D-8CE3-6A261897B433";
paths = (
{
closed = 1;
nodes = (
"305 -10 OFFCURVE",
"342 2 OFFCURVE",
"370 15 CURVE SMOOTH",
"386 22 OFFCURVE",
"401 31 OFFCURVE",
"415 40 CURVE",
"370 120 LINE",
"360 120 LINE",
"352 113 OFFCURVE",
"343 106 OFFCURVE",
"334 100 CURVE SMOOTH",
"318 89 OFFCURVE",
"298 80 OFFCURVE",
"275 80 CURVE SMOOTH",
"244 80 OFFCURVE",
"220 104 OFFCURVE",
"220 160 CURVE SMOOTH",
"220 410 LINE",
"335 410 LINE",
"335 500 LINE",
"220 500 LINE",
"220 620 LINE",
"165 620 LINE",
"15 470 LINE",
"15 410 LINE",
"80 410 LINE",
"80 160 LINE SMOOTH",
"80 60 OFFCURVE",
"149 -10 OFFCURVE",
"265 -10 CURVE SMOOTH"
);
}
);
width = 415;
}
);
unicode = 0074;
},
{
glyphname = tcaron;
lastChange = "2016-09-19 21:25:12 +0000";
layers = (
{
layerId = UUID0;
paths = (
{
closed = 1;
nodes = (
"300 -10 OFFCURVE",
"335 2 OFFCURVE",
"360 15 CURVE SMOOTH",
"375 22 OFFCURVE",
"388 31 OFFCURVE",
"400 40 CURVE",
"365 100 LINE",
"355 100 LINE",
"347 93 OFFCURVE",
"338 86 OFFCURVE",
"329 80 CURVE SMOOTH",
"313 69 OFFCURVE",
"293 60 OFFCURVE",
"270 60 CURVE SMOOTH",
"225 60 OFFCURVE",
"195 90 OFFCURVE",
"195 150 CURVE SMOOTH",
"195 430 LINE",
"320 430 LINE",
"320 500 LINE",
"195 500 LINE",
"195 620 LINE",
"150 620 LINE",
"20 490 LINE",
"20 430 LINE",
"95 430 LINE",
"95 150 LINE SMOOTH",
"95 54 OFFCURVE",
"160 -10 OFFCURVE",
"260 -10 CURVE SMOOTH"
);
},
{
closed = 1;
nodes = (
"405 413 OFFCURVE",
"418 425 OFFCURVE",
"430 440 CURVE SMOOTH",
"450 465 OFFCURVE",
"470 503 OFFCURVE",
"470 556 CURVE SMOOTH",
"470 595 OFFCURVE",
"445 620 OFFCURVE",
"410 620 CURVE SMOOTH",
"385 620 OFFCURVE",
"360 596 OFFCURVE",
"360 565 CURVE SMOOTH",
"360 534 OFFCURVE",
"385 510 OFFCURVE",
"410 510 CURVE",
"410 490 OFFCURVE",
"397 472 OFFCURVE",
"385 457 CURVE SMOOTH",
"378 449 OFFCURVE",
"369 442 OFFCURVE",
"360 435 CURVE",
"390 404 LINE"
);
}
);
width = 480;
},
{
layerId = "6710F4E3-34F6-4C2D-8CE3-6A261897B433";
paths = (
{
closed = 1;
nodes = (
"305 -10 OFFCURVE",
"342 2 OFFCURVE",
"370 15 CURVE SMOOTH",
"386 22 OFFCURVE",
"401 31 OFFCURVE",
"415 40 CURVE",
"370 120 LINE",
"360 120 LINE",
"352 113 OFFCURVE",
"343 106 OFFCURVE",
"334 100 CURVE SMOOTH",
"318 89 OFFCURVE",
"298 80 OFFCURVE",
"275 80 CURVE SMOOTH",
"244 80 OFFCURVE",
"220 104 OFFCURVE",
"220 160 CURVE SMOOTH",
"220 410 LINE",
"335 410 LINE",
"335 500 LINE",
"220 500 LINE",
"220 620 LINE",
"165 620 LINE",
"15 470 LINE",
"15 410 LINE",
"80 410 LINE",
"80 160 LINE SMOOTH",
"80 60 OFFCURVE",
"149 -10 OFFCURVE",
"265 -10 CURVE SMOOTH"
);
},
{
closed = 1;
nodes = (
"431 390 OFFCURVE",
"445 403 OFFCURVE",
"457 419 CURVE SMOOTH",
"478 446 OFFCURVE",
"500 486 OFFCURVE",
"500 545 CURVE SMOOTH",
"500 592 OFFCURVE",
"473 620 OFFCURVE",
"430 620 CURVE SMOOTH",
"398 620 OFFCURVE",
"370 592 OFFCURVE",
"370 555 CURVE SMOOTH",
"370 523 OFFCURVE",
"397 495 OFFCURVE",
"440 495 CURVE",
"440 472 OFFCURVE",
"427 453 OFFCURVE",
"412 438 CURVE SMOOTH",
"404 429 OFFCURVE",
"395 421 OFFCURVE",
"385 414 CURVE",
"415 380 LINE"
);
}
);
width = 510;
}
);
unicode = 0165;
},
{
glyphname = u;
lastChange = "2016-09-19 21:25:12 +0000";
layers = (
{
layerId = UUID0;
paths = (
{
closed = 1;
nodes = (
"296 -10 OFFCURVE",
"331 6 OFFCURVE",
"355 25 CURVE SMOOTH",
"369 35 OFFCURVE",
"381 47 OFFCURVE",
"390 60 CURVE",
"395 60 LINE",
"405 0 LINE",
"475 0 LINE",
"475 500 LINE",
"375 500 LINE",
"375 125 LINE",
"366 114 OFFCURVE",
"356 104 OFFCURVE",
"345 95 CURVE SMOOTH",
"326 80 OFFCURVE",
"301 65 OFFCURVE",
"270 65 CURVE SMOOTH",
"214 65 OFFCURVE",
"175 104 OFFCURVE",
"175 160 CURVE SMOOTH",
"175 500 LINE",
"75 500 LINE",
"75 160 LINE SMOOTH",
"75 60 OFFCURVE",
"145 -10 OFFCURVE",
"245 -10 CURVE SMOOTH"
);
}
);
width = 550;
},
{
layerId = "6710F4E3-34F6-4C2D-8CE3-6A261897B433";
paths = (
{
closed = 1;
nodes = (
"305 -10 OFFCURVE",
"338 6 OFFCURVE",
"361 25 CURVE SMOOTH",
"374 35 OFFCURVE",
"385 47 OFFCURVE",
"395 60 CURVE",
"400 60 LINE",
"410 0 LINE",
"510 0 LINE",
"510 500 LINE",
"370 500 LINE",
"370 145 LINE",
"363 134 OFFCURVE",
"356 124 OFFCURVE",
"348 115 CURVE SMOOTH",
"333 100 OFFCURVE",
"312 85 OFFCURVE",
"285 85 CURVE SMOOTH",
"240 85 OFFCURVE",
"210 115 OFFCURVE",
"210 180 CURVE SMOOTH",
"210 500 LINE",
"70 500 LINE",
"70 180 LINE SMOOTH",
"70 59 OFFCURVE",
"139 -10 OFFCURVE",
"260 -10 CURVE SMOOTH"
);
}
);
width = 580;
}
);
unicode = 0075;
},
{
glyphname = v;
lastChange = "2016-09-03 14:45:43 +0000";
layers = (
{
layerId = UUID0;
paths = (
{
closed = 1;
nodes = (
"295 0 LINE",
"455 500 LINE",
"355 500 LINE",
"250 170 LINE SMOOTH",
"245 155 OFFCURVE",
"243 139 OFFCURVE",
"240 124 CURVE",
"237 100 LINE",
"233 100 LINE",
"230 124 LINE",
"227 139 OFFCURVE",
"225 155 OFFCURVE",
"220 170 CURVE SMOOTH",
"115 500 LINE",
"15 500 LINE",
"175 0 LINE"
);
}
);
width = 470;
},
{
layerId = "6710F4E3-34F6-4C2D-8CE3-6A261897B433";
paths = (
{
closed = 1;
nodes = (
"325 0 LINE",
"490 500 LINE",
"350 500 LINE",
"260 190 LINE SMOOTH",
"257 179 OFFCURVE",
"255 166 OFFCURVE",
"254 155 CURVE SMOOTH",
"252 135 LINE",
"248 135 LINE",
"246 155 LINE SMOOTH",
"245 166 OFFCURVE",
"243 179 OFFCURVE",
"240 190 CURVE SMOOTH",
"150 500 LINE",
"10 500 LINE",
"175 0 LINE"
);
}
);
width = 500;
}
);
unicode = 0076;
},
{
glyphname = w;
lastChange = "2016-09-19 21:25:12 +0000";
layers = (
{
layerId = UUID0;
paths = (
{
closed = 1;
nodes = (
"255 0 LINE",
"340 315 LINE SMOOTH",
"343 327 OFFCURVE",
"346 344 OFFCURVE",
"349 359 CURVE SMOOTH",
"353 385 LINE",
"357 385 LINE",
"361 359 LINE SMOOTH",
"364 344 OFFCURVE",
"366 327 OFFCURVE",
"370 315 CURVE",
"455 0 LINE",
"565 0 LINE",
"695 500 LINE",
"600 500 LINE",
"520 195 LINE SMOOTH",
"516 179 OFFCURVE",
"513 164 OFFCURVE",
"512 151 CURVE SMOOTH",
"511 144 OFFCURVE",
"510 137 OFFCURVE",
"510 130 CURVE",
"506 130 LINE",
"503 151 LINE",
"500 163 OFFCURVE",
"499 180 OFFCURVE",
"495 195 CURVE SMOOTH",
"415 500 LINE",
"295 500 LINE",
"215 195 LINE SMOOTH",
"211 180 OFFCURVE",
"209 163 OFFCURVE",
"206 151 CURVE SMOOTH",
"205 144 OFFCURVE",
"204 137 OFFCURVE",
"204 130 CURVE",
"200 130 LINE",
"198 151 LINE",
"195 163 OFFCURVE",
"194 180 OFFCURVE",
"190 195 CURVE SMOOTH",
"110 500 LINE",
"15 500 LINE",
"145 0 LINE"
);
}
);
width = 710;
},
{
layerId = "6710F4E3-34F6-4C2D-8CE3-6A261897B433";
paths = (
{
closed = 1;
nodes = (
"285 0 LINE",
"365 295 LINE SMOOTH",
"368 306 OFFCURVE",
"370 319 OFFCURVE",
"371 330 CURVE SMOOTH",
"373 350 LINE",
"377 350 LINE",
"379 330 LINE SMOOTH",
"380 319 OFFCURVE",
"382 306 OFFCURVE",
"385 295 CURVE SMOOTH",
"465 0 LINE",
"605 0 LINE",
"740 500 LINE",
"600 500 LINE",
"530 225 LINE SMOOTH",
"527 214 OFFCURVE",
"525 201 OFFCURVE",
"524 190 CURVE SMOOTH",
"522 170 LINE",
"518 170 LINE",
"516 190 LINE SMOOTH",
"515 201 OFFCURVE",
"513 214 OFFCURVE",
"510 225 CURVE SMOOTH",
"445 500 LINE",
"305 500 LINE",
"240 225 LINE SMOOTH",
"237 214 OFFCURVE",
"235 201 OFFCURVE",
"234 190 CURVE SMOOTH",
"232 170 LINE",
"228 170 LINE",
"226 190 LINE SMOOTH",
"225 201 OFFCURVE",
"223 214 OFFCURVE",
"220 225 CURVE SMOOTH",
"150 500 LINE",
"10 500 LINE",
"145 0 LINE"
);
}
);
width = 750;
}
);
unicode = 0077;
},
{
glyphname = x;
lastChange = "2016-09-19 21:25:12 +0000";
layers = (
{
layerId = UUID0;
paths = (
{
closed = 1;
nodes = (
"125 0 LINE",
"210 145 LINE SMOOTH",
"215 154 OFFCURVE",
"220 162 OFFCURVE",
"223 171 CURVE SMOOTH",
"225 176 OFFCURVE",
"227 180 OFFCURVE",
"228 185 CURVE",
"232 185 LINE",
"233 180 OFFCURVE",
"235 176 OFFCURVE",
"237 171 CURVE SMOOTH",
"240 162 OFFCURVE",
"245 154 OFFCURVE",
"250 145 CURVE SMOOTH",
"335 0 LINE",
"445 0 LINE",
"290 255 LINE",
"440 500 LINE",
"330 500 LINE",
"250 360 LINE SMOOTH",
"245 352 OFFCURVE",
"241 342 OFFCURVE",
"238 334 CURVE SMOOTH",
"232 320 LINE",
"228 320 LINE",
"222 334 LINE SMOOTH",
"219 342 OFFCURVE",
"214 352 OFFCURVE",
"210 360 CURVE SMOOTH",
"130 500 LINE",
"20 500 LINE",
"170 255 LINE",
"15 0 LINE"
);
}
);
width = 460;
},
{
layerId = "6710F4E3-34F6-4C2D-8CE3-6A261897B433";
paths = (
{
closed = 1;
nodes = (
"155 0 LINE",
"230 135 LINE",
"235 146 OFFCURVE",
"239 155 OFFCURVE",
"241 162 CURVE SMOOTH",
"242 166 OFFCURVE",
"243 170 OFFCURVE",
"243 175 CURVE",
"247 175 LINE",
"247 170 OFFCURVE",
"248 166 OFFCURVE",
"249 162 CURVE SMOOTH",
"252 154 OFFCURVE",
"253 146 OFFCURVE",
"260 135 CURVE",
"335 0 LINE",
"480 0 LINE",
"330 255 LINE",
"475 500 LINE",
"330 500 LINE",
"260 370 LINE",
"253 359 OFFCURVE",
"252 349 OFFCURVE",
"249 342 CURVE",
"248 337 OFFCURVE",
"247 333 OFFCURVE",
"247 330 CURVE",
"243 330 LINE",
"243 333 OFFCURVE",
"242 337 OFFCURVE",
"241 342 CURVE",
"238 349 OFFCURVE",
"235 359 OFFCURVE",
"230 370 CURVE",
"160 500 LINE",
"15 500 LINE",
"160 255 LINE",
"10 0 LINE"
);
}
);
width = 490;
}
);
unicode = 0078;
},
{
glyphname = y;
lastChange = "2016-09-19 21:25:12 +0000";
layers = (
{
layerId = UUID0;
paths = (
{
closed = 1;
nodes = (
"220 -210 OFFCURVE",
"277 -150 OFFCURVE",
"300 -70 CURVE SMOOTH",
"460 500 LINE",
"360 500 LINE",
"269 170 LINE",
"256 119 LINE SMOOTH",
"253 110 OFFCURVE",
"251 100 OFFCURVE",
"250 90 CURVE",
"246 90 LINE",
"244 100 OFFCURVE",
"242 110 OFFCURVE",
"239 119 CURVE SMOOTH",
"235 135 OFFCURVE",
"230 155 OFFCURVE",
"225 170 CURVE SMOOTH",
"115 500 LINE",
"15 500 LINE",
"180 0 LINE",
"220 0 LINE",
"200 -70 LINE SMOOTH",
"189 -110 OFFCURVE",
"160 -140 OFFCURVE",
"125 -140 CURVE SMOOTH",
"110 -140 OFFCURVE",
"97 -135 OFFCURVE",
"86 -128 CURVE SMOOTH",
"80 -125 OFFCURVE",
"75 -120 OFFCURVE",
"70 -115 CURVE",
"60 -115 LINE",
"35 -180 LINE",
"42 -186 OFFCURVE",
"51 -191 OFFCURVE",
"62 -195 CURVE",
"79 -203 OFFCURVE",
"104 -210 OFFCURVE",
"135 -210 CURVE SMOOTH"
);
}
);
width = 475;
},
{
layerId = "6710F4E3-34F6-4C2D-8CE3-6A261897B433";
paths = (
{
closed = 1;
nodes = (
"241 -210 OFFCURVE",
"299 -150 OFFCURVE",
"330 -50 CURVE",
"495 500 LINE",
"355 500 LINE",
"270 175 LINE SMOOTH",
"267 164 OFFCURVE",
"265 151 OFFCURVE",
"264 140 CURVE SMOOTH",
"262 120 LINE",
"258 120 LINE",
"256 140 LINE SMOOTH",
"255 151 OFFCURVE",
"253 164 OFFCURVE",
"250 175 CURVE SMOOTH",
"150 500 LINE",
"10 500 LINE",
"175 0 LINE",
"215 0 LINE",
"201 -50 LINE SMOOTH",
"188 -97 OFFCURVE",
"166 -120 OFFCURVE",
"135 -120 CURVE SMOOTH",
"120 -120 OFFCURVE",
"107 -115 OFFCURVE",
"96 -108 CURVE SMOOTH",
"90 -105 OFFCURVE",
"85 -100 OFFCURVE",
"80 -95 CURVE",
"70 -95 LINE",
"35 -180 LINE",
"44 -186 OFFCURVE",
"55 -191 OFFCURVE",
"67 -195 CURVE SMOOTH",
"87 -203 OFFCURVE",
"114 -210 OFFCURVE",
"145 -210 CURVE SMOOTH"
);
}
);
width = 505;
}
);
unicode = 0079;
},
{
glyphname = z;
lastChange = "2016-09-03 14:45:43 +0000";
layers = (
{
layerId = UUID0;
paths = (
{
closed = 1;
nodes = (
"405 0 LINE",
"405 70 LINE",
"155 70 LINE",
"400 425 LINE",
"400 500 LINE",
"35 500 LINE",
"35 430 LINE",
"280 430 LINE",
"35 75 LINE",
"35 0 LINE"
);
}
);
width = 440;
},
{
layerId = "6710F4E3-34F6-4C2D-8CE3-6A261897B433";
paths = (
{
closed = 1;
nodes = (
"435 0 LINE",
"435 90 LINE",
"195 90 LINE",
"430 405 LINE",
"430 500 LINE",
"35 500 LINE",
"35 410 LINE",
"270 410 LINE",
"35 95 LINE",
"35 0 LINE"
);
}
);
width = 470;
}
);
unicode = 007A;
},
{
glyphname = ordfeminine;
lastChange = "2016-09-19 21:25:12 +0000";
layers = (
{
layerId = UUID0;
paths = (
{
closed = 1;
nodes = (
"185 350 OFFCURVE",
"208 362 OFFCURVE",
"223 375 CURVE SMOOTH",
"232 382 OFFCURVE",
"239 391 OFFCURVE",
"245 400 CURVE",
"250 400 LINE",
"256 360 LINE",
"325 360 LINE",
"325 590 LINE SMOOTH",
"325 661 OFFCURVE",
"276 710 OFFCURVE",
"185 710 CURVE SMOOTH",
"145 710 OFFCURVE",
"113 698 OFFCURVE",
"92 687 CURVE SMOOTH",
"79 680 OFFCURVE",
"68 673 OFFCURVE",
"59 665 CURVE",
"85 620 LINE",
"95 620 LINE",
"100 625 OFFCURVE",
"107 630 OFFCURVE",
"114 635 CURVE SMOOTH",
"126 642 OFFCURVE",
"145 650 OFFCURVE",
"170 650 CURVE SMOOTH",
"210 650 OFFCURVE",
"235 625 OFFCURVE",
"235 590 CURVE SMOOTH",
"235 565 LINE",
"190 565 LINE SMOOTH",
"79 565 OFFCURVE",
"35 520 OFFCURVE",
"35 455 CURVE SMOOTH",
"35 395 OFFCURVE",
"80 350 OFFCURVE",
"156 350 CURVE SMOOTH"
);
},
{
closed = 1;
nodes = (
"144 410 OFFCURVE",
"125 430 OFFCURVE",
"125 455 CURVE SMOOTH",
"125 486 OFFCURVE",
"145 505 OFFCURVE",
"190 505 CURVE SMOOTH",
"235 505 LINE",
"235 440 LINE",
"230 434 OFFCURVE",
"225 429 OFFCURVE",
"218 425 CURVE SMOOTH",
"207 417 OFFCURVE",
"192 410 OFFCURVE",
"175 410 CURVE SMOOTH"
);
}
);
width = 360;
},
{
layerId = "6710F4E3-34F6-4C2D-8CE3-6A261897B433";
paths = (
{
closed = 1;
nodes = (
"177 350 OFFCURVE",
"201 361 OFFCURVE",
"217 372 CURVE SMOOTH",
"226 379 OFFCURVE",
"234 386 OFFCURVE",
"240 395 CURVE",
"245 395 LINE",
"251 360 LINE",
"345 360 LINE",
"345 580 LINE SMOOTH",
"345 660 OFFCURVE",
"296 710 OFFCURVE",
"185 710 CURVE SMOOTH",
"145 710 OFFCURVE",
"110 698 OFFCURVE",
"86 687 CURVE SMOOTH",
"72 680 OFFCURVE",
"59 673 OFFCURVE",
"48 665 CURVE",
"84 605 LINE",
"94 605 LINE",
"116 620 LINE",
"129 627 OFFCURVE",
"146 635 OFFCURVE",
"165 635 CURVE SMOOTH",
"205 635 OFFCURVE",
"225 617 OFFCURVE",
"225 580 CURVE SMOOTH",
"225 565 LINE",
"185 565 LINE SMOOTH",
"70 565 OFFCURVE",
"25 520 OFFCURVE",
"25 455 CURVE SMOOTH",
"25 395 OFFCURVE",
"69 350 OFFCURVE",
"145 350 CURVE SMOOTH"
);
},
{
closed = 1;
nodes = (
"153 430 OFFCURVE",
"140 440 OFFCURVE",
"140 460 CURVE SMOOTH",
"140 480 OFFCURVE",
"155 490 OFFCURVE",
"185 490 CURVE SMOOTH",
"225 490 LINE",
"225 455 LINE",
"221 450 OFFCURVE",
"217 445 OFFCURVE",
"212 442 CURVE SMOOTH",
"204 435 OFFCURVE",
"192 430 OFFCURVE",
"180 430 CURVE SMOOTH"
);
}
);
width = 380;
}
);
unicode = 00AA;
},
{
glyphname = ordmasculine;
lastChange = "2016-09-19 21:25:11 +0000";
layers = (
{
layerId = UUID0;
paths = (
{
closed = 1;
nodes = (
"291 350 OFFCURVE",
"355 414 OFFCURVE",
"355 530 CURVE SMOOTH",
"355 646 OFFCURVE",
"291 710 OFFCURVE",
"195 710 CURVE SMOOTH",
"99 710 OFFCURVE",
"35 646 OFFCURVE",
"35 530 CURVE SMOOTH",
"35 414 OFFCURVE",
"99 350 OFFCURVE",
"195 350 CURVE SMOOTH"
);
},
{
closed = 1;
nodes = (
"155 410 OFFCURVE",
"125 439 OFFCURVE",
"125 530 CURVE SMOOTH",
"125 619 OFFCURVE",
"155 650 OFFCURVE",
"195 650 CURVE SMOOTH",
"235 650 OFFCURVE",
"265 619 OFFCURVE",
"265 530 CURVE SMOOTH",
"265 439 OFFCURVE",
"235 410 OFFCURVE",
"195 410 CURVE SMOOTH"
);
}
);
width = 390;
},
{
layerId = "6710F4E3-34F6-4C2D-8CE3-6A261897B433";
paths = (
{
closed = 1;
nodes = (
"310 350 OFFCURVE",
"385 426 OFFCURVE",
"385 530 CURVE SMOOTH",
"385 634 OFFCURVE",
"310 710 OFFCURVE",
"210 710 CURVE SMOOTH",
"110 710 OFFCURVE",
"35 634 OFFCURVE",
"35 530 CURVE SMOOTH",
"35 426 OFFCURVE",
"110 350 OFFCURVE",
"210 350 CURVE SMOOTH"
);
},
{
closed = 1;
nodes = (
"179 430 OFFCURVE",
"155 455 OFFCURVE",
"155 530 CURVE SMOOTH",
"155 605 OFFCURVE",
"179 630 OFFCURVE",
"210 630 CURVE SMOOTH",
"239 630 OFFCURVE",
"265 605 OFFCURVE",
"265 530 CURVE SMOOTH",
"265 455 OFFCURVE",
"239 430 OFFCURVE",
"210 430 CURVE SMOOTH"
);
}
);
width = 420;
}
);
unicode = 00BA;
},
{
color = 4;
glyphname = "Be-cy";
lastChange = "2016-09-19 21:25:12 +0000";
layers = (
{
layerId = UUID0;
paths = (
{
closed = 1;
nodes = (
"280 0 LINE SMOOTH",
"445 0 OFFCURVE",
"525 79 OFFCURVE",
"525 210 CURVE SMOOTH",
"525 339 OFFCURVE",
"445 420 OFFCURVE",
"280 420 CURVE SMOOTH",
"190 420 LINE",
"190 630 LINE",
"480 630 LINE",
"480 700 LINE",
"90 700 LINE",
"90 0 LINE"
);
},
{
closed = 1;
nodes = (
"190 350 LINE",
"280 350 LINE",
"376 350 OFFCURVE",
"425 301 OFFCURVE",
"425 210 CURVE SMOOTH",
"425 119 OFFCURVE",
"376 70 OFFCURVE",
"280 70 CURVE SMOOTH",
"190 70 LINE"
);
}
);
width = 570;
},
{
layerId = "6710F4E3-34F6-4C2D-8CE3-6A261897B433";
paths = (
{
closed = 1;
nodes = (
"290 0 LINE SMOOTH",
"479 0 OFFCURVE",
"560 80 OFFCURVE",
"560 215 CURVE SMOOTH",
"560 340 OFFCURVE",
"479 430 OFFCURVE",
"290 430 CURVE SMOOTH",
"225 430 LINE",
"225 610 LINE",
"505 610 LINE",
"505 700 LINE",
"85 700 LINE",
"85 0 LINE"
);
},
{
closed = 1;
nodes = (
"225 340 LINE",
"290 340 LINE",
"381 340 OFFCURVE",
"420 300 OFFCURVE",
"420 215 CURVE SMOOTH",
"420 130 OFFCURVE",
"381 90 OFFCURVE",
"290 90 CURVE SMOOTH",
"225 90 LINE"
);
}
);
width = 600;
}
);
unicode = 0411;
},
{
color = 4;
glyphname = "Ge-cy";
lastChange = "2016-09-19 20:27:48 +0000";
layers = (
{
anchors = (
{
name = bottomright;
position = "{90, 0}";
},
{
name = center;
position = "{167, 350}";
},
{
name = top;
position = "{305, 700}";
}
);
layerId = UUID0;
paths = (
{
closed = 1;
nodes = (
"190 0 LINE",
"190 630 LINE",
"480 630 LINE",
"480 700 LINE",
"90 700 LINE",
"90 0 LINE"
);
}
);
width = 490;
},
{
anchors = (
{
name = bottomright;
position = "{85, 0}";
},
{
name = center;
position = "{179, 350}";
},
{
name = top;
position = "{308, 700}";
}
);
layerId = "6710F4E3-34F6-4C2D-8CE3-6A261897B433";
paths = (
{
closed = 1;
nodes = (
"225 0 LINE",
"225 610 LINE",
"505 610 LINE",
"505 700 LINE",
"85 700 LINE",
"85 0 LINE"
);
}
);
width = 515;
}
);
unicode = 0413;
},
{
color = 4;
glyphname = "Gheupturn-cy";
lastChange = "2016-09-19 21:25:12 +0000";
layers = (
{
layerId = UUID0;
paths = (
{
closed = 1;
nodes = (
"190 0 LINE",
"190 630 LINE",
"480 630 LINE",
"480 800 LINE",
"400 800 LINE",
"390 700 LINE",
"90 700 LINE",
"90 0 LINE"
);
}
);
width = 490;
},
{
layerId = "6710F4E3-34F6-4C2D-8CE3-6A261897B433";
paths = (
{
closed = 1;
nodes = (
"225 0 LINE",
"225 610 LINE",
"505 610 LINE",
"505 810 LINE",
"410 810 LINE",
"395 700 LINE",
"85 700 LINE",
"85 0 LINE"
);
}
);
width = 515;
}
);
unicode = 0490;
},
{
color = 4;
glyphname = "De-cy";
lastChange = "2016-09-19 21:25:12 +0000";
layers = (
{
layerId = UUID0;
paths = (
{
closed = 1;
nodes = (
"95 -150 LINE",
"110 0 LINE",
"485 0 LINE",
"500 -150 LINE",
"580 -150 LINE",
"580 70 LINE",
"515 70 LINE",
"515 700 LINE",
"140 700 LINE",
"115 250 LINE SMOOTH",
"111 186 OFFCURVE",
"98 142 OFFCURVE",
"85 113 CURVE SMOOTH",
"78 96 OFFCURVE",
"69 81 OFFCURVE",
"60 70 CURVE",
"10 70 LINE",
"10 -150 LINE"
);
},
{
closed = 1;
nodes = (
"169 81 OFFCURVE",
"178 96 OFFCURVE",
"185 113 CURVE SMOOTH",
"198 142 OFFCURVE",
"211 186 OFFCURVE",
"215 250 CURVE",
"235 630 LINE",
"415 630 LINE",
"415 70 LINE",
"160 70 LINE"
);
}
);
width = 620;
},
{
layerId = "6710F4E3-34F6-4C2D-8CE3-6A261897B433";
paths = (
{
closed = 1;
nodes = (
"115 -150 LINE",
"135 0 LINE",
"490 0 LINE",
"510 -150 LINE",
"615 -150 LINE",
"615 90 LINE",
"550 90 LINE",
"550 700 LINE",
"135 700 LINE",
"110 240 LINE SMOOTH",
"107 184 OFFCURVE",
"93 148 OFFCURVE",
"80 124 CURVE SMOOTH",
"73 110 OFFCURVE",
"64 99 OFFCURVE",
"55 90 CURVE",
"5 90 LINE",
"5 -150 LINE"
);
},
{
closed = 1;
nodes = (
"199 99 OFFCURVE",
"208 110 OFFCURVE",
"215 124 CURVE SMOOTH",
"228 148 OFFCURVE",
"242 184 OFFCURVE",
"245 240 CURVE SMOOTH",
"265 610 LINE",
"410 610 LINE",
"410 90 LINE",
"190 90 LINE"
);
}
);
width = 655;
}
);
unicode = 0414;
},
{
color = 4;
glyphname = "Zhe-cy";
lastChange = "2016-09-19 21:25:12 +0000";
layers = (
{
anchors = (
{
name = bottomright;
position = "{675, 0}";
},
{
name = top;
position = "{430, 700}";
}
);
layerId = UUID0;
paths = (
{
closed = 1;
nodes = (
"150 -10 OFFCURVE",
"187 30 OFFCURVE",
"200 90 CURVE SMOOTH",
"235 250 LINE",
"246 295 OFFCURVE",
"274 325 OFFCURVE",
"325 325 CURVE SMOOTH",
"380 325 LINE",
"380 0 LINE",
"480 0 LINE",
"480 325 LINE",
"535 325 LINE SMOOTH",
"586 325 OFFCURVE",
"614 295 OFFCURVE",
"625 250 CURVE",
"660 90 LINE SMOOTH",
"673 30 OFFCURVE",
"710 -10 OFFCURVE",
"775 -10 CURVE SMOOTH",
"799 -10 OFFCURVE",
"819 -6 OFFCURVE",
"835 0 CURVE",
"825 65 LINE",
"820 65 LINE",
"812 61 OFFCURVE",
"808 60 OFFCURVE",
"800 60 CURVE SMOOTH",
"780 60 OFFCURVE",
"767 75 OFFCURVE",
"760 105 CURVE SMOOTH",
"725 265 LINE",
"714 308 OFFCURVE",
"689 332 OFFCURVE",
"665 347 CURVE SMOOTH",
"651 355 OFFCURVE",
"636 361 OFFCURVE",
"620 365 CURVE",
"637 368 OFFCURVE",
"652 373 OFFCURVE",
"665 380 CURVE SMOOTH",
"688 392 OFFCURVE",
"713 415 OFFCURVE",
"720 455 CURVE SMOOTH",
"745 595 LINE SMOOTH",
"750 626 OFFCURVE",
"765 640 OFFCURVE",
"785 640 CURVE SMOOTH",
"790 640 OFFCURVE",
"795 638 OFFCURVE",
"799 637 CURVE SMOOTH",
"802 636 OFFCURVE",
"804 636 OFFCURVE",
"805 635 CURVE",
"810 635 LINE",
"820 700 LINE",
"805 705 LINE SMOOTH",
"794 708 OFFCURVE",
"780 710 OFFCURVE",
"760 710 CURVE SMOOTH",
"695 710 OFFCURVE",
"656 670 OFFCURVE",
"645 610 CURVE SMOOTH",
"620 470 LINE SMOOTH",
"612 425 OFFCURVE",
"581 395 OFFCURVE",
"525 395 CURVE SMOOTH",
"480 395 LINE",
"480 700 LINE",
"380 700 LINE",
"380 395 LINE",
"335 395 LINE SMOOTH",
"279 395 OFFCURVE",
"248 425 OFFCURVE",
"240 470 CURVE SMOOTH",
"215 610 LINE SMOOTH",
"204 670 OFFCURVE",
"165 710 OFFCURVE",
"100 710 CURVE SMOOTH",
"80 710 OFFCURVE",
"66 708 OFFCURVE",
"55 705 CURVE SMOOTH",
"40 700 LINE",
"50 635 LINE",
"55 635 LINE",
"56 636 OFFCURVE",
"58 636 OFFCURVE",
"61 637 CURVE SMOOTH",
"65 638 OFFCURVE",
"70 640 OFFCURVE",
"75 640 CURVE SMOOTH",
"96 640 OFFCURVE",
"110 625 OFFCURVE",
"115 595 CURVE SMOOTH",
"140 455 LINE SMOOTH",
"147 415 OFFCURVE",
"172 392 OFFCURVE",
"195 380 CURVE SMOOTH",
"208 373 OFFCURVE",
"223 368 OFFCURVE",
"240 365 CURVE",
"224 361 OFFCURVE",
"209 355 OFFCURVE",
"195 347 CURVE SMOOTH",
"171 332 OFFCURVE",
"144 308 OFFCURVE",
"135 265 CURVE SMOOTH",
"100 105 LINE SMOOTH",
"93 75 OFFCURVE",
"79 60 OFFCURVE",
"60 60 CURVE SMOOTH",
"56 60 OFFCURVE",
"51 61 OFFCURVE",
"46 62 CURVE",
"40 65 LINE",
"35 65 LINE",
"25 0 LINE",
"29 -2 OFFCURVE",
"34 -4 OFFCURVE",
"40 -5 CURVE SMOOTH",
"51 -8 OFFCURVE",
"66 -10 OFFCURVE",
"85 -10 CURVE SMOOTH"
);
}
);
width = 860;
},
{
anchors = (
{
name = bottomright;
position = "{674, 0}";
},
{
name = top;
position = "{450, 700}";
}
);
layerId = "6710F4E3-34F6-4C2D-8CE3-6A261897B433";
paths = (
{
closed = 1;
nodes = (
"181 -10 OFFCURVE",
"223 34 OFFCURVE",
"235 90 CURVE SMOOTH",
"270 250 LINE",
"281 295 OFFCURVE",
"300 315 OFFCURVE",
"345 315 CURVE SMOOTH",
"380 315 LINE",
"380 0 LINE",
"520 0 LINE",
"520 315 LINE",
"555 315 LINE SMOOTH",
"600 315 OFFCURVE",
"619 295 OFFCURVE",
"630 250 CURVE",
"665 90 LINE SMOOTH",
"677 34 OFFCURVE",
"719 -10 OFFCURVE",
"790 -10 CURVE SMOOTH",
"820 -10 OFFCURVE",
"844 -8 OFFCURVE",
"875 5 CURVE",
"865 85 LINE",
"860 85 LINE",
"854 81 OFFCURVE",
"850 80 OFFCURVE",
"841 80 CURVE SMOOTH",
"822 80 OFFCURVE",
"810 92 OFFCURVE",
"805 115 CURVE SMOOTH",
"775 255 LINE",
"764 302 OFFCURVE",
"737 330 OFFCURVE",
"710 346 CURVE SMOOTH",
"695 355 OFFCURVE",
"678 362 OFFCURVE",
"660 365 CURVE",
"676 368 OFFCURVE",
"691 374 OFFCURVE",
"705 383 CURVE SMOOTH",
"729 398 OFFCURVE",
"754 423 OFFCURVE",
"765 470 CURVE SMOOTH",
"790 585 LINE SMOOTH",
"795 608 OFFCURVE",
"806 620 OFFCURVE",
"825 620 CURVE SMOOTH",
"830 620 OFFCURVE",
"835 618 OFFCURVE",
"839 617 CURVE SMOOTH",
"842 616 OFFCURVE",
"844 616 OFFCURVE",
"845 615 CURVE",
"850 615 LINE",
"860 695 LINE",
"836 702 LINE SMOOTH",
"821 706 OFFCURVE",
"800 710 OFFCURVE",
"775 710 CURVE SMOOTH",
"704 710 OFFCURVE",
"662 666 OFFCURVE",
"650 610 CURVE SMOOTH",
"620 475 LINE SMOOTH",
"609 424 OFFCURVE",
"591 405 OFFCURVE",
"540 405 CURVE SMOOTH",
"520 405 LINE",
"520 700 LINE",
"380 700 LINE",
"380 405 LINE",
"360 405 LINE SMOOTH",
"309 405 OFFCURVE",
"291 424 OFFCURVE",
"280 475 CURVE SMOOTH",
"250 610 LINE SMOOTH",
"238 666 OFFCURVE",
"196 710 OFFCURVE",
"125 710 CURVE SMOOTH",
"100 710 OFFCURVE",
"79 706 OFFCURVE",
"64 702 CURVE SMOOTH",
"40 695 LINE",
"50 615 LINE",
"55 615 LINE",
"56 616 OFFCURVE",
"58 616 OFFCURVE",
"61 617 CURVE SMOOTH",
"65 618 OFFCURVE",
"70 620 OFFCURVE",
"75 620 CURVE SMOOTH",
"94 620 OFFCURVE",
"105 608 OFFCURVE",
"110 585 CURVE SMOOTH",
"135 470 LINE SMOOTH",
"146 423 OFFCURVE",
"171 398 OFFCURVE",
"195 383 CURVE SMOOTH",
"209 374 OFFCURVE",
"224 368 OFFCURVE",
"240 365 CURVE",
"222 362 OFFCURVE",
"205 355 OFFCURVE",
"190 346 CURVE SMOOTH",
"163 330 OFFCURVE",
"136 302 OFFCURVE",
"125 255 CURVE",
"95 115 LINE SMOOTH",
"90 92 OFFCURVE",
"78 80 OFFCURVE",
"59 80 CURVE SMOOTH",
"54 80 OFFCURVE",
"50 81 OFFCURVE",
"46 82 CURVE SMOOTH",
"40 85 LINE",
"35 85 LINE",
"25 5 LINE",
"47 -3 LINE",
"62 -7 OFFCURVE",
"82 -10 OFFCURVE",
"110 -10 CURVE SMOOTH"
);
}
);
width = 900;
}
);
unicode = 0416;
},
{
color = 4;
glyphname = "Ze-cy";
lastChange = "2016-09-19 21:25:12 +0000";
layers = (
{
anchors = (
{
name = bottom;
position = "{220, 0}";
},
{
name = top;
position = "{221, 700}";
}
);
layerId = UUID0;
paths = (
{
closed = 1;
nodes = (
"391 -10 OFFCURVE",
"470 70 OFFCURVE",
"470 185 CURVE SMOOTH",
"470 266 OFFCURVE",
"434 310 OFFCURVE",
"400 337 CURVE",
"379 352 OFFCURVE",
"356 363 OFFCURVE",
"330 370 CURVE",
"353 377 OFFCURVE",
"374 387 OFFCURVE",
"392 401 CURVE SMOOTH",
"423 425 OFFCURVE",
"455 465 OFFCURVE",
"455 530 CURVE SMOOTH",
"455 630 OFFCURVE",
"374 710 OFFCURVE",
"225 710 CURVE SMOOTH",
"165 710 OFFCURVE",
"118 697 OFFCURVE",
"87 682 CURVE SMOOTH",
"69 674 OFFCURVE",
"53 665 OFFCURVE",
"40 655 CURVE",
"75 595 LINE",
"85 595 LINE",
"95 603 OFFCURVE",
"107 610 OFFCURVE",
"120 617 CURVE SMOOTH",
"143 628 OFFCURVE",
"175 640 OFFCURVE",
"215 640 CURVE SMOOTH",
"306 640 OFFCURVE",
"355 591 OFFCURVE",
"355 520 CURVE SMOOTH",
"355 449 OFFCURVE",
"305 400 OFFCURVE",
"225 400 CURVE SMOOTH",
"135 400 LINE",
"135 330 LINE",
"225 330 LINE SMOOTH",
"321 330 OFFCURVE",
"370 280 OFFCURVE",
"370 195 CURVE SMOOTH",
"370 110 OFFCURVE",
"321 60 OFFCURVE",
"205 60 CURVE SMOOTH",
"160 60 OFFCURVE",
"125 71 OFFCURVE",
"101 82 CURVE SMOOTH",
"87 89 OFFCURVE",
"75 96 OFFCURVE",
"65 105 CURVE",
"55 105 LINE",
"20 45 LINE",
"33 34 OFFCURVE",
"50 25 OFFCURVE",
"69 17 CURVE SMOOTH",
"101 2 OFFCURVE",
"150 -10 OFFCURVE",
"215 -10 CURVE SMOOTH"
);
}
);
width = 520;
},
{
anchors = (
{
name = bottom;
position = "{218, 0}";
},
{
name = top;
position = "{218, 700}";
}
);
layerId = "6710F4E3-34F6-4C2D-8CE3-6A261897B433";
paths = (
{
closed = 1;
nodes = (
"409 -10 OFFCURVE",
"490 70 OFFCURVE",
"490 190 CURVE SMOOTH",
"490 270 OFFCURVE",
"452 315 OFFCURVE",
"415 340 CURVE SMOOTH",
"393 355 OFFCURVE",
"368 365 OFFCURVE",
"340 370 CURVE",
"365 375 OFFCURVE",
"387 384 OFFCURVE",
"407 397 CURVE SMOOTH",
"442 420 OFFCURVE",
"475 457 OFFCURVE",
"475 525 CURVE SMOOTH",
"475 630 OFFCURVE",
"396 710 OFFCURVE",
"225 710 CURVE SMOOTH",
"161 710 OFFCURVE",
"114 697 OFFCURVE",
"81 682 CURVE SMOOTH",
"62 674 OFFCURVE",
"45 665 OFFCURVE",
"30 655 CURVE",
"75 575 LINE",
"85 575 LINE",
"94 583 OFFCURVE",
"105 590 OFFCURVE",
"118 597 CURVE SMOOTH",
"141 608 OFFCURVE",
"172 620 OFFCURVE",
"215 620 CURVE SMOOTH",
"300 620 OFFCURVE",
"335 580 OFFCURVE",
"335 515 CURVE SMOOTH",
"335 450 OFFCURVE",
"296 410 OFFCURVE",
"220 410 CURVE SMOOTH",
"125 410 LINE",
"125 320 LINE",
"220 320 LINE SMOOTH",
"311 320 OFFCURVE",
"350 280 OFFCURVE",
"350 200 CURVE SMOOTH",
"350 120 OFFCURVE",
"310 80 OFFCURVE",
"210 80 CURVE SMOOTH",
"162 80 OFFCURVE",
"127 91 OFFCURVE",
"104 102 CURVE SMOOTH",
"91 109 OFFCURVE",
"79 116 OFFCURVE",
"70 125 CURVE",
"60 125 LINE",
"15 45 LINE",
"30 34 OFFCURVE",
"47 25 OFFCURVE",
"67 17 CURVE SMOOTH",
"102 2 OFFCURVE",
"152 -10 OFFCURVE",
"220 -10 CURVE SMOOTH"
);
}
);
width = 535;
}
);
unicode = 0417;
},
{
color = 4;
glyphname = "Ii-cy";
lastChange = "2016-09-19 21:25:12 +0000";
layers = (
{
anchors = (
{
name = bottomright;
position = "{440, 0}";
},
{
name = top;
position = "{315, 700}";
}
);
layerId = UUID0;
paths = (
{
closed = 1;
nodes = (
"190 0 LINE",
"410 445 LINE SMOOTH",
"417 460 OFFCURVE",
"424 480 OFFCURVE",
"431 499 CURVE",
"440 530 LINE",
"444 530 LINE",
"442 499 LINE SMOOTH",
"441 480 OFFCURVE",
"440 460 OFFCURVE",
"440 445 CURVE SMOOTH",
"440 0 LINE",
"540 0 LINE",
"540 700 LINE",
"440 700 LINE",
"220 255 LINE SMOOTH",
"212 240 OFFCURVE",
"206 218 OFFCURVE",
"199 201 CURVE",
"190 170 LINE",
"186 170 LINE",
"188 201 LINE SMOOTH",
"189 218 OFFCURVE",
"190 240 OFFCURVE",
"190 255 CURVE SMOOTH",
"190 700 LINE",
"90 700 LINE",
"90 0 LINE"
);
}
);
width = 630;
},
{
anchors = (
{
name = bottomright;
position = "{435, 0}";
},
{
name = top;
position = "{330, 700}";
}
);
layerId = "6710F4E3-34F6-4C2D-8CE3-6A261897B433";
paths = (
{
closed = 1;
nodes = (
"220 0 LINE",
"410 395 LINE SMOOTH",
"417 410 OFFCURVE",
"424 426 OFFCURVE",
"429 439 CURVE SMOOTH",
"432 446 OFFCURVE",
"434 454 OFFCURVE",
"436 461 CURVE",
"440 461 LINE",
"437 439 LINE SMOOTH",
"436 426 OFFCURVE",
"435 410 OFFCURVE",
"435 395 CURVE SMOOTH",
"435 0 LINE",
"575 0 LINE",
"575 700 LINE",
"440 700 LINE",
"250 305 LINE",
"242 290 OFFCURVE",
"236 274 OFFCURVE",
"231 261 CURVE SMOOTH",
"228 254 OFFCURVE",
"226 246 OFFCURVE",
"224 239 CURVE",
"220 239 LINE",
"222 261 LINE SMOOTH",
"223 274 OFFCURVE",
"225 290 OFFCURVE",
"225 305 CURVE SMOOTH",
"225 700 LINE",
"85 700 LINE",
"85 0 LINE"
);
}
);
width = 660;
}
);
unicode = 0418;
},
{
color = 4;
glyphname = "Ka-cy";
lastChange = "2016-09-19 21:25:12 +0000";
layers = (
{
anchors = (
{
name = bottomright;
position = "{405, 0}";
},
{
name = center;
position = "{293, 350}";
},
{
name = top;
position = "{293, 700}";
}
);
layerId = UUID0;
paths = (
{
closed = 1;
nodes = (
"519 -10 OFFCURVE",
"534 -8 OFFCURVE",
"545 -5 CURVE SMOOTH",
"551 -4 OFFCURVE",
"556 -2 OFFCURVE",
"560 0 CURVE",
"550 65 LINE",
"545 65 LINE",
"539 62 LINE",
"534 61 OFFCURVE",
"529 60 OFFCURVE",
"525 60 CURVE SMOOTH",
"505 60 OFFCURVE",
"492 75 OFFCURVE",
"485 105 CURVE SMOOTH",
"450 265 LINE",
"439 308 OFFCURVE",
"414 332 OFFCURVE",
"390 347 CURVE SMOOTH",
"376 355 OFFCURVE",
"361 361 OFFCURVE",
"345 365 CURVE",
"362 368 OFFCURVE",
"377 373 OFFCURVE",
"390 380 CURVE SMOOTH",
"413 392 OFFCURVE",
"438 415 OFFCURVE",
"445 455 CURVE SMOOTH",
"470 595 LINE SMOOTH",
"475 626 OFFCURVE",
"490 640 OFFCURVE",
"510 640 CURVE SMOOTH",
"515 640 OFFCURVE",
"520 638 OFFCURVE",
"524 637 CURVE SMOOTH",
"527 636 OFFCURVE",
"529 636 OFFCURVE",
"530 635 CURVE",
"535 635 LINE",
"545 700 LINE",
"530 705 LINE SMOOTH",
"519 708 OFFCURVE",
"505 710 OFFCURVE",
"485 710 CURVE SMOOTH",
"420 710 OFFCURVE",
"381 670 OFFCURVE",
"370 610 CURVE SMOOTH",
"345 470 LINE SMOOTH",
"337 425 OFFCURVE",
"306 395 OFFCURVE",
"250 395 CURVE SMOOTH",
"190 395 LINE",
"190 700 LINE",
"90 700 LINE",
"90 0 LINE",
"190 0 LINE",
"190 325 LINE",
"260 325 LINE SMOOTH",
"311 325 OFFCURVE",
"339 295 OFFCURVE",
"350 250 CURVE",
"385 90 LINE SMOOTH",
"398 30 OFFCURVE",
"435 -10 OFFCURVE",
"500 -10 CURVE SMOOTH"
);
}
);
width = 585;
},
{
anchors = (
{
name = bottomright;
position = "{395, 0}";
},
{
name = center;
position = "{288, 350}";
},
{
name = top;
position = "{298, 700}";
}
);
layerId = "6710F4E3-34F6-4C2D-8CE3-6A261897B433";
paths = (
{
closed = 1;
nodes = (
"532 -10 OFFCURVE",
"553 -7 OFFCURVE",
"568 -3 CURVE",
"590 5 LINE",
"580 85 LINE",
"575 85 LINE",
"569 82 LINE",
"564 81 OFFCURVE",
"559 80 OFFCURVE",
"556 80 CURVE SMOOTH",
"537 80 OFFCURVE",
"525 92 OFFCURVE",
"520 115 CURVE SMOOTH",
"490 255 LINE",
"479 302 OFFCURVE",
"452 330 OFFCURVE",
"425 346 CURVE SMOOTH",
"410 355 OFFCURVE",
"393 362 OFFCURVE",
"375 365 CURVE",
"391 368 OFFCURVE",
"406 374 OFFCURVE",
"420 383 CURVE SMOOTH",
"444 398 OFFCURVE",
"469 423 OFFCURVE",
"480 470 CURVE SMOOTH",
"505 585 LINE SMOOTH",
"510 608 OFFCURVE",
"521 620 OFFCURVE",
"540 620 CURVE SMOOTH",
"545 620 OFFCURVE",
"550 618 OFFCURVE",
"554 617 CURVE SMOOTH",
"557 616 OFFCURVE",
"559 616 OFFCURVE",
"560 615 CURVE",
"565 615 LINE",
"575 695 LINE",
"551 702 LINE SMOOTH",
"536 706 OFFCURVE",
"515 710 OFFCURVE",
"490 710 CURVE SMOOTH",
"419 710 OFFCURVE",
"377 666 OFFCURVE",
"365 610 CURVE SMOOTH",
"335 475 LINE SMOOTH",
"324 424 OFFCURVE",
"306 405 OFFCURVE",
"255 405 CURVE SMOOTH",
"225 405 LINE",
"225 700 LINE",
"85 700 LINE",
"85 0 LINE",
"225 0 LINE",
"225 315 LINE",
"270 315 LINE SMOOTH",
"315 315 OFFCURVE",
"334 295 OFFCURVE",
"345 250 CURVE",
"380 90 LINE SMOOTH",
"392 34 OFFCURVE",
"434 -10 OFFCURVE",
"505 -10 CURVE SMOOTH"
);
}
);
width = 615;
}
);
unicode = 041A;
},
{
color = 4;
glyphname = "El-cy";
lastChange = "2016-09-19 21:25:12 +0000";
layers = (
{
layerId = UUID0;
paths = (
{
closed = 1;
nodes = (
"141 -10 OFFCURVE",
"193 44 OFFCURVE",
"200 160 CURVE",
"225 630 LINE",
"420 630 LINE",
"420 0 LINE",
"520 0 LINE",
"520 700 LINE",
"130 700 LINE",
"100 160 LINE SMOOTH",
"96 85 OFFCURVE",
"70 60 OFFCURVE",
"45 60 CURVE SMOOTH",
"41 60 OFFCURVE",
"36 61 OFFCURVE",
"31 62 CURVE",
"25 65 LINE",
"15 65 LINE",
"10 0 LINE",
"15 -2 OFFCURVE",
"20 -4 OFFCURVE",
"26 -5 CURVE SMOOTH",
"37 -8 OFFCURVE",
"50 -10 OFFCURVE",
"65 -10 CURVE SMOOTH"
);
}
);
width = 610;
},
{
layerId = "6710F4E3-34F6-4C2D-8CE3-6A261897B433";
paths = (
{
closed = 1;
nodes = (
"175 -10 OFFCURVE",
"228 49 OFFCURVE",
"235 160 CURVE",
"260 610 LINE",
"410 610 LINE",
"410 0 LINE",
"550 0 LINE",
"550 700 LINE",
"125 700 LINE",
"95 160 LINE SMOOTH",
"92 100 OFFCURVE",
"75 80 OFFCURVE",
"50 80 CURVE SMOOTH",
"46 80 OFFCURVE",
"41 81 OFFCURVE",
"34 82 CURVE",
"25 85 LINE",
"15 85 LINE",
"5 5 LINE",
"27 -3 LINE SMOOTH",
"40 -7 OFFCURVE",
"56 -10 OFFCURVE",
"75 -10 CURVE SMOOTH"
);
}
);
width = 635;
}
);
unicode = 041B;
},
{
color = 4;
glyphname = "Pe-cy";
lastChange = "2016-09-19 21:25:12 +0000";
layers = (
{
anchors = (
{
name = bottomright;
position = "{440, 0}";
}
);
layerId = UUID0;
paths = (
{
closed = 1;
nodes = (
"190 0 LINE",
"190 630 LINE",
"440 630 LINE",
"440 0 LINE",
"540 0 LINE",
"540 700 LINE",
"90 700 LINE",
"90 0 LINE"
);
}
);
width = 630;
},
{
anchors = (
{
name = bottomright;
position = "{435, 0}";
}
);
layerId = "6710F4E3-34F6-4C2D-8CE3-6A261897B433";
paths = (
{
closed = 1;
nodes = (
"225 0 LINE",
"225 610 LINE",
"435 610 LINE",
"435 0 LINE",
"575 0 LINE",
"575 700 LINE",
"85 700 LINE",
"85 0 LINE"
);
}
);
width = 660;
}
);
unicode = 041F;
},
{
color = 4;
glyphname = "U-cy";
lastChange = "2016-09-19 21:25:12 +0000";
layers = (
{
anchors = (
{
name = top;
position = "{268, 700}";
}
);
layerId = UUID0;
paths = (
{
closed = 1;
nodes = (
"251 -15 OFFCURVE",
"317 50 OFFCURVE",
"341 125 CURVE SMOOTH",
"526 700 LINE",
"426 700 LINE",
"306 335 LINE",
"293 288 LINE SMOOTH",
"290 279 OFFCURVE",
"288 269 OFFCURVE",
"287 260 CURVE",
"283 260 LINE",
"276 288 LINE SMOOTH",
"272 304 OFFCURVE",
"266 322 OFFCURVE",
"261 335 CURVE SMOOTH",
"115 700 LINE",
"10 700 LINE",
"216 185 LINE",
"261 185 LINE",
"241 125 LINE SMOOTH",
"228 85 OFFCURVE",
"196 55 OFFCURVE",
"156 55 CURVE SMOOTH",
"137 55 OFFCURVE",
"124 60 OFFCURVE",
"113 67 CURVE",
"106 70 OFFCURVE",
"101 75 OFFCURVE",
"96 80 CURVE",
"86 80 LINE",
"61 15 LINE",
"69 9 OFFCURVE",
"78 4 OFFCURVE",
"89 0 CURVE SMOOTH",
"108 -8 OFFCURVE",
"133 -15 OFFCURVE",
"166 -15 CURVE SMOOTH"
);
}
);
width = 536;
},
{
anchors = (
{
name = top;
position = "{288, 700}";
}
);
layerId = "6710F4E3-34F6-4C2D-8CE3-6A261897B433";
paths = (
{
closed = 1;
nodes = (
"295 -15 OFFCURVE",
"358 50 OFFCURVE",
"385 135 CURVE SMOOTH",
"565 700 LINE",
"420 700 LINE",
"320 365 LINE",
"313 346 OFFCURVE",
"312 329 OFFCURVE",
"309 314 CURVE SMOOTH",
"308 306 OFFCURVE",
"307 298 OFFCURVE",
"307 290 CURVE",
"303 290 LINE",
"302 298 OFFCURVE",
"301 306 OFFCURVE",
"299 314 CURVE SMOOTH",
"296 329 OFFCURVE",
"292 346 OFFCURVE",
"285 365 CURVE SMOOTH",
"155 700 LINE",
"10 700 LINE",
"224 185 LINE",
"265 185 LINE",
"250 135 LINE SMOOTH",
"239 100 OFFCURVE",
"215 75 OFFCURVE",
"180 75 CURVE SMOOTH",
"161 75 OFFCURVE",
"148 80 OFFCURVE",
"137 87 CURVE",
"130 90 OFFCURVE",
"125 95 OFFCURVE",
"120 100 CURVE",
"110 100 LINE",
"75 15 LINE",
"85 9 OFFCURVE",
"96 4 OFFCURVE",
"108 0 CURVE SMOOTH",
"129 -8 OFFCURVE",
"157 -15 OFFCURVE",
"190 -15 CURVE SMOOTH"
);
}
);
width = 575;
}
);
unicode = 0423;
},
{
color = 4;
glyphname = "Ef-cy";
lastChange = "2016-09-19 21:25:12 +0000";
layers = (
{
layerId = UUID0;
paths = (
{
closed = 1;
nodes = (
"435 -30 LINE",
"435 40 LINE",
"622 51 OFFCURVE",
"725 154 OFFCURVE",
"725 350 CURVE SMOOTH",
"725 546 OFFCURVE",
"622 649 OFFCURVE",
"435 660 CURVE",
"435 730 LINE",
"335 730 LINE",
"335 660 LINE",
"148 649 OFFCURVE",
"45 546 OFFCURVE",
"45 350 CURVE SMOOTH",
"45 154 OFFCURVE",
"148 51 OFFCURVE",
"335 40 CURVE",
"335 -30 LINE"
);
},
{
closed = 1;
nodes = (
"220 119 OFFCURVE",
"145 195 OFFCURVE",
"145 350 CURVE SMOOTH",
"145 506 OFFCURVE",
"220 579 OFFCURVE",
"335 590 CURVE",
"335 110 LINE"
);
},
{
closed = 1;
nodes = (
"435 590 LINE",
"550 579 OFFCURVE",
"625 506 OFFCURVE",
"625 350 CURVE SMOOTH",
"625 195 OFFCURVE",
"550 119 OFFCURVE",
"435 110 CURVE"
);
}
);
width = 770;
},
{
layerId = "6710F4E3-34F6-4C2D-8CE3-6A261897B433";
paths = (
{
closed = 1;
nodes = (
"465 -30 LINE",
"465 40 LINE",
"645 51 OFFCURVE",
"755 160 OFFCURVE",
"755 350 CURVE SMOOTH",
"755 540 OFFCURVE",
"645 649 OFFCURVE",
"465 660 CURVE",
"465 730 LINE",
"325 730 LINE",
"325 660 LINE",
"145 649 OFFCURVE",
"35 540 OFFCURVE",
"35 350 CURVE SMOOTH",
"35 160 OFFCURVE",
"145 51 OFFCURVE",
"325 40 CURVE",
"325 -30 LINE"
);
},
{
closed = 1;
nodes = (
"235 141 OFFCURVE",
"175 200 OFFCURVE",
"175 350 CURVE SMOOTH",
"175 500 OFFCURVE",
"235 559 OFFCURVE",
"325 570 CURVE",
"325 130 LINE"
);
},
{
closed = 1;
nodes = (
"465 570 LINE",
"555 559 OFFCURVE",
"615 500 OFFCURVE",
"615 350 CURVE SMOOTH",
"615 200 OFFCURVE",
"555 141 OFFCURVE",
"465 130 CURVE"
);
}
);
width = 790;
}
);
unicode = 0424;
},
{
color = 4;
glyphname = "Che-cy";
lastChange = "2016-09-19 21:25:12 +0000";
layers = (
{
anchors = (
{
name = bottomright;
position = "{410, 0}";
},
{
name = center;
position = "{300, 300}";
},
{
name = top;
position = "{280, 700}";
}
);
layerId = UUID0;
paths = (
{
closed = 1;
nodes = (
"510 0 LINE",
"510 700 LINE",
"410 700 LINE",
"410 345 LINE",
"400 342 OFFCURVE",
"389 340 OFFCURVE",
"377 337 CURVE SMOOTH",
"356 333 OFFCURVE",
"327 330 OFFCURVE",
"295 330 CURVE SMOOTH",
"210 330 OFFCURVE",
"160 379 OFFCURVE",
"160 455 CURVE SMOOTH",
"160 700 LINE",
"60 700 LINE",
"60 455 LINE SMOOTH",
"60 340 OFFCURVE",
"139 260 OFFCURVE",
"270 260 CURVE SMOOTH",
"310 260 OFFCURVE",
"345 263 OFFCURVE",
"370 267 CURVE SMOOTH",
"385 270 OFFCURVE",
"398 272 OFFCURVE",
"410 275 CURVE",
"410 0 LINE"
);
}
);
width = 600;
},
{
anchors = (
{
name = bottomright;
position = "{405, 0}";
},
{
name = center;
position = "{305, 290}";
},
{
name = top;
position = "{295, 700}";
}
);
layerId = "6710F4E3-34F6-4C2D-8CE3-6A261897B433";
paths = (
{
closed = 1;
nodes = (
"545 0 LINE",
"545 700 LINE",
"405 700 LINE",
"405 345 LINE",
"397 342 OFFCURVE",
"388 340 OFFCURVE",
"378 337 CURVE SMOOTH",
"361 333 OFFCURVE",
"337 330 OFFCURVE",
"310 330 CURVE SMOOTH",
"233 330 OFFCURVE",
"195 368 OFFCURVE",
"195 445 CURVE SMOOTH",
"195 700 LINE",
"55 700 LINE",
"55 445 LINE SMOOTH",
"55 320 OFFCURVE",
"134 240 OFFCURVE",
"285 240 CURVE SMOOTH",
"320 240 OFFCURVE",
"350 243 OFFCURVE",
"371 247 CURVE SMOOTH",
"405 255 LINE",
"405 0 LINE"
);
}
);
width = 630;
}
);
unicode = 0427;
},
{
color = 4;
glyphname = "Tse-cy";
lastChange = "2016-09-19 21:25:12 +0000";
layers = (
{
layerId = UUID0;
paths = (
{
closed = 1;
nodes = (
"595 -150 LINE",
"595 70 LINE",
"530 70 LINE",
"530 700 LINE",
"430 700 LINE",
"430 70 LINE",
"190 70 LINE",
"190 700 LINE",
"90 700 LINE",
"90 0 LINE",
"500 0 LINE",
"515 -150 LINE"
);
}
);
width = 635;
},
{
layerId = "6710F4E3-34F6-4C2D-8CE3-6A261897B433";
paths = (
{
closed = 1;
nodes = (
"630 -150 LINE",
"630 90 LINE",
"565 90 LINE",
"565 700 LINE",
"425 700 LINE",
"425 90 LINE",
"225 90 LINE",
"225 700 LINE",
"85 700 LINE",
"85 0 LINE",
"505 0 LINE",
"525 -150 LINE"
);
}
);
width = 670;
}
);
unicode = 0426;
},
{
color = 4;
glyphname = "Sha-cy";
lastChange = "2016-09-19 21:25:12 +0000";
layers = (
{
layerId = UUID0;
paths = (
{
closed = 1;
nodes = (
"830 0 LINE",
"830 700 LINE",
"730 700 LINE",
"730 70 LINE",
"510 70 LINE",
"510 700 LINE",
"410 700 LINE",
"410 70 LINE",
"190 70 LINE",
"190 700 LINE",
"90 700 LINE",
"90 0 LINE"
);
}
);
width = 920;
},
{
layerId = "6710F4E3-34F6-4C2D-8CE3-6A261897B433";
paths = (
{
closed = 1;
nodes = (
"865 0 LINE",
"865 700 LINE",
"725 700 LINE",
"725 90 LINE",
"545 90 LINE",
"545 700 LINE",
"405 700 LINE",
"405 90 LINE",
"225 90 LINE",
"225 700 LINE",
"85 700 LINE",
"85 0 LINE"
);
}
);
width = 950;
}
);
unicode = 0428;
},
{
color = 4;
glyphname = "Shcha-cy";
lastChange = "2016-09-19 21:25:12 +0000";
layers = (
{
layerId = UUID0;
paths = (
{
closed = 1;
nodes = (
"895 -150 LINE",
"895 70 LINE",
"830 70 LINE",
"830 700 LINE",
"730 700 LINE",
"730 70 LINE",
"510 70 LINE",
"510 700 LINE",
"410 700 LINE",
"410 70 LINE",
"190 70 LINE",
"190 700 LINE",
"90 700 LINE",
"90 0 LINE",
"800 0 LINE",
"815 -150 LINE"
);
}
);
width = 935;
},
{
layerId = "6710F4E3-34F6-4C2D-8CE3-6A261897B433";
paths = (
{
closed = 1;
nodes = (
"930 -150 LINE",
"930 90 LINE",
"865 90 LINE",
"865 700 LINE",
"725 700 LINE",
"725 90 LINE",
"545 90 LINE",
"545 700 LINE",
"405 700 LINE",
"405 90 LINE",
"225 90 LINE",
"225 700 LINE",
"85 700 LINE",
"85 0 LINE",
"805 0 LINE",
"825 -150 LINE"
);
}
);
width = 970;
}
);
unicode = 0429;
},
{
color = 4;
glyphname = "Dzhe-cy";
lastChange = "2016-09-19 21:25:12 +0000";
layers = (
{
layerId = UUID0;
paths = (
{
closed = 1;
nodes = (
"355 -150 LINE",
"365 0 LINE",
"540 0 LINE",
"540 700 LINE",
"440 700 LINE",
"440 70 LINE",
"190 70 LINE",
"190 700 LINE",
"90 700 LINE",
"90 0 LINE",
"265 0 LINE",
"275 -150 LINE"
);
}
);
width = 630;
},
{
layerId = "6710F4E3-34F6-4C2D-8CE3-6A261897B433";
paths = (
{
closed = 1;
nodes = (
"380 -150 LINE",
"395 0 LINE",
"575 0 LINE",
"575 700 LINE",
"435 700 LINE",
"435 90 LINE",
"225 90 LINE",
"225 700 LINE",
"85 700 LINE",
"85 0 LINE",
"265 0 LINE",
"280 -150 LINE"
);
}
);
width = 660;
}
);
unicode = 040F;
},
{
color = 4;
glyphname = "Softsign-cy";
lastChange = "2016-09-19 21:25:12 +0000";
layers = (
{
layerId = UUID0;
paths = (
{
closed = 1;
nodes = (
"280 0 LINE SMOOTH",
"447 0 OFFCURVE",
"525 79 OFFCURVE",
"525 220 CURVE SMOOTH",
"525 361 OFFCURVE",
"447 440 OFFCURVE",
"280 440 CURVE SMOOTH",
"190 440 LINE",
"190 700 LINE",
"90 700 LINE",
"90 0 LINE"
);
},
{
closed = 1;
nodes = (
"190 370 LINE",
"280 370 LINE",
"377 370 OFFCURVE",
"425 320 OFFCURVE",
"425 220 CURVE SMOOTH",
"425 120 OFFCURVE",
"377 70 OFFCURVE",
"280 70 CURVE SMOOTH",
"190 70 LINE"
);
}
);
width = 560;
},
{
layerId = "6710F4E3-34F6-4C2D-8CE3-6A261897B433";
paths = (
{
closed = 1;
nodes = (
"290 0 LINE SMOOTH",
"479 0 OFFCURVE",
"560 80 OFFCURVE",
"560 225 CURVE SMOOTH",
"560 370 OFFCURVE",
"479 450 OFFCURVE",
"290 450 CURVE SMOOTH",
"225 450 LINE",
"225 700 LINE",
"85 700 LINE",
"85 0 LINE"
);
},
{
closed = 1;
nodes = (
"225 360 LINE",
"290 360 LINE",
"381 360 OFFCURVE",
"420 321 OFFCURVE",
"420 225 CURVE SMOOTH",
"420 129 OFFCURVE",
"381 90 OFFCURVE",
"290 90 CURVE SMOOTH",
"225 90 LINE"
);
}
);
width = 595;
}
);
unicode = 042C;
},
{
color = 4;
glyphname = "Hardsign-cy";
lastChange = "2016-09-19 21:25:12 +0000";
layers = (
{
layerId = UUID0;
paths = (
{
closed = 1;
nodes = (
"340 0 LINE SMOOTH",
"507 0 OFFCURVE",
"585 79 OFFCURVE",
"585 220 CURVE SMOOTH",
"585 361 OFFCURVE",
"507 440 OFFCURVE",
"340 440 CURVE SMOOTH",
"250 440 LINE",
"250 700 LINE",
"10 700 LINE",
"10 630 LINE",
"150 630 LINE",
"150 0 LINE"
);
},
{
closed = 1;
nodes = (
"250 370 LINE",
"340 370 LINE",
"437 370 OFFCURVE",
"485 320 OFFCURVE",
"485 220 CURVE SMOOTH",
"485 120 OFFCURVE",
"437 70 OFFCURVE",
"340 70 CURVE SMOOTH",
"250 70 LINE"
);
}
);
width = 620;
},
{
layerId = "6710F4E3-34F6-4C2D-8CE3-6A261897B433";
paths = (
{
closed = 1;
nodes = (
"350 0 LINE",
"359 0 LINE SMOOTH",
"370 0 OFFCURVE",
"381 1 OFFCURVE",
"392 2 CURVE SMOOTH",
"548 14 OFFCURVE",
"615 92 OFFCURVE",
"615 225 CURVE SMOOTH",
"615 370 OFFCURVE",
"534 450 OFFCURVE",
"345 450 CURVE SMOOTH",
"280 450 LINE",
"280 700 LINE",
"10 700 LINE",
"10 610 LINE",
"140 610 LINE",
"140 0 LINE"
);
},
{
closed = 1;
nodes = (
"280 360 LINE",
"345 360 LINE",
"436 360 OFFCURVE",
"475 321 OFFCURVE",
"475 225 CURVE SMOOTH",
"475 129 OFFCURVE",
"436 90 OFFCURVE",
"345 90 CURVE SMOOTH",
"280 90 LINE"
);
}
);
width = 650;
}
);
unicode = 042A;
},
{
color = 4;
glyphname = "Yeru-cy";
lastChange = "2016-09-19 21:25:12 +0000";
layers = (
{
anchors = (
{
name = top;
position = "{400, 700}";
}
);
layerId = UUID0;
paths = (
{
closed = 1;
nodes = (
"270 0 LINE SMOOTH",
"437 0 OFFCURVE",
"515 79 OFFCURVE",
"515 220 CURVE SMOOTH",
"515 361 OFFCURVE",
"437 440 OFFCURVE",
"270 440 CURVE SMOOTH",
"190 440 LINE",
"190 700 LINE",
"90 700 LINE",
"90 0 LINE"
);
},
{
closed = 1;
nodes = (
"190 370 LINE",
"270 370 LINE",
"367 370 OFFCURVE",
"415 320 OFFCURVE",
"415 220 CURVE SMOOTH",
"415 120 OFFCURVE",
"367 70 OFFCURVE",
"270 70 CURVE SMOOTH",
"190 70 LINE"
);
},
{
closed = 1;
nodes = (
"710 0 LINE",
"710 700 LINE",
"610 700 LINE",
"610 0 LINE"
);
}
);
width = 800;
},
{
anchors = (
{
name = top;
position = "{428, 700}";
}
);
layerId = "6710F4E3-34F6-4C2D-8CE3-6A261897B433";
paths = (
{
closed = 1;
nodes = (
"280 0 LINE SMOOTH",
"469 0 OFFCURVE",
"550 80 OFFCURVE",
"550 225 CURVE SMOOTH",
"550 370 OFFCURVE",
"469 450 OFFCURVE",
"280 450 CURVE SMOOTH",
"225 450 LINE",
"225 700 LINE",
"85 700 LINE",
"85 0 LINE"
);
},
{
closed = 1;
nodes = (
"225 360 LINE",
"280 360 LINE",
"371 360 OFFCURVE",
"410 321 OFFCURVE",
"410 225 CURVE SMOOTH",
"410 129 OFFCURVE",
"371 90 OFFCURVE",
"280 90 CURVE SMOOTH",
"225 90 LINE"
);
},
{
closed = 1;
nodes = (
"770 0 LINE",
"770 700 LINE",
"630 700 LINE",
"630 0 LINE"
);
}
);
width = 855;
}
);
unicode = 042B;
},
{
color = 4;
glyphname = "Lje-cy";
lastChange = "2016-09-19 21:25:12 +0000";
layers = (
{
layerId = UUID0;
paths = (
{
closed = 1;
nodes = (
"141 -10 OFFCURVE",
"193 44 OFFCURVE",
"200 160 CURVE",
"225 630 LINE",
"410 630 LINE",
"410 0 LINE",
"601 0 LINE SMOOTH",
"768 0 OFFCURVE",
"846 79 OFFCURVE",
"846 220 CURVE SMOOTH",
"846 361 OFFCURVE",
"768 440 OFFCURVE",
"601 440 CURVE SMOOTH",
"511 440 LINE",
"511 700 LINE",
"130 700 LINE",
"100 160 LINE SMOOTH",
"96 85 OFFCURVE",
"70 60 OFFCURVE",
"45 60 CURVE SMOOTH",
"41 60 OFFCURVE",
"36 61 OFFCURVE",
"31 62 CURVE",
"25 65 LINE",
"15 65 LINE",
"10 0 LINE",
"15 -2 OFFCURVE",
"20 -4 OFFCURVE",
"26 -5 CURVE SMOOTH",
"37 -8 OFFCURVE",
"50 -10 OFFCURVE",
"65 -10 CURVE SMOOTH"
);
},
{
closed = 1;
nodes = (
"511 370 LINE",
"601 370 LINE",
"698 370 OFFCURVE",
"746 320 OFFCURVE",
"746 220 CURVE SMOOTH",
"746 120 OFFCURVE",
"698 70 OFFCURVE",
"601 70 CURVE SMOOTH",
"511 70 LINE"
);
}
);
width = 881;
},
{
layerId = "6710F4E3-34F6-4C2D-8CE3-6A261897B433";
paths = (
{
closed = 1;
nodes = (
"175 -10 OFFCURVE",
"228 49 OFFCURVE",
"235 160 CURVE",
"260 610 LINE",
"410 610 LINE",
"410 0 LINE",
"620 0 LINE SMOOTH",
"809 0 OFFCURVE",
"890 80 OFFCURVE",
"890 225 CURVE SMOOTH",
"890 370 OFFCURVE",
"809 450 OFFCURVE",
"620 450 CURVE SMOOTH",
"550 450 LINE",
"550 700 LINE",
"125 700 LINE",
"95 160 LINE SMOOTH",
"92 100 OFFCURVE",
"74 80 OFFCURVE",
"50 80 CURVE SMOOTH",
"46 80 OFFCURVE",
"41 81 OFFCURVE",
"34 82 CURVE",
"25 85 LINE",
"15 85 LINE",
"5 5 LINE",
"27 -3 LINE SMOOTH",
"40 -7 OFFCURVE",
"56 -10 OFFCURVE",
"75 -10 CURVE SMOOTH"
);
},
{
closed = 1;
nodes = (
"550 360 LINE",
"620 360 LINE",
"711 360 OFFCURVE",
"750 321 OFFCURVE",
"750 225 CURVE SMOOTH",
"750 129 OFFCURVE",
"711 90 OFFCURVE",
"620 90 CURVE SMOOTH",
"550 90 LINE"
);
}
);
width = 910;
}
);
unicode = 0409;
},
{
color = 4;
glyphname = "Nje-cy";
lastChange = "2016-09-19 21:25:12 +0000";
layers = (
{
layerId = UUID0;
paths = (
{
closed = 1;
nodes = (
"190 0 LINE",
"190 350 LINE",
"430 350 LINE",
"430 0 LINE",
"620 0 LINE SMOOTH",
"785 0 OFFCURVE",
"865 79 OFFCURVE",
"865 210 CURVE SMOOTH",
"865 339 OFFCURVE",
"785 420 OFFCURVE",
"620 420 CURVE SMOOTH",
"530 420 LINE",
"530 700 LINE",
"430 700 LINE",
"430 420 LINE",
"190 420 LINE",
"190 700 LINE",
"90 700 LINE",
"90 0 LINE"
);
},
{
closed = 1;
nodes = (
"530 350 LINE",
"620 350 LINE",
"716 350 OFFCURVE",
"765 301 OFFCURVE",
"765 210 CURVE SMOOTH",
"765 119 OFFCURVE",
"716 70 OFFCURVE",
"620 70 CURVE SMOOTH",
"530 70 LINE"
);
}
);
width = 900;
},
{
layerId = "6710F4E3-34F6-4C2D-8CE3-6A261897B433";
paths = (
{
closed = 1;
nodes = (
"225 0 LINE",
"225 340 LINE",
"420 340 LINE",
"420 0 LINE",
"630 0 LINE SMOOTH",
"819 0 OFFCURVE",
"900 80 OFFCURVE",
"900 215 CURVE SMOOTH",
"900 350 OFFCURVE",
"819 430 OFFCURVE",
"630 430 CURVE SMOOTH",
"560 430 LINE",
"560 700 LINE",
"420 700 LINE",
"420 430 LINE",
"225 430 LINE",
"225 700 LINE",
"85 700 LINE",
"85 0 LINE"
);
},
{
closed = 1;
nodes = (
"560 340 LINE",
"630 340 LINE",
"721 340 OFFCURVE",
"760 300 OFFCURVE",
"760 215 CURVE SMOOTH",
"760 130 OFFCURVE",
"721 90 OFFCURVE",
"630 90 CURVE SMOOTH",
"560 90 LINE"
);
}
);
width = 920;
}
);
unicode = 040A;
},
{
color = 4;
glyphname = "E-cy";
lastChange = "2016-09-19 21:25:12 +0000";
layers = (
{
layerId = UUID0;
paths = (
{
closed = 1;
nodes = (
"371 -10 OFFCURVE",
"413 2 OFFCURVE",
"444 17 CURVE SMOOTH",
"461 25 OFFCURVE",
"477 34 OFFCURVE",
"490 45 CURVE",
"455 105 LINE",
"445 105 LINE",
"434 96 OFFCURVE",
"423 89 OFFCURVE",
"411 82 CURVE SMOOTH",
"390 71 OFFCURVE",
"360 60 OFFCURVE",
"325 60 CURVE SMOOTH",
"230 60 OFFCURVE",
"160 124 OFFCURVE",
"155 320 CURVE",
"390 320 LINE",
"390 390 LINE",
"156 390 LINE",
"164 579 OFFCURVE",
"231 640 OFFCURVE",
"315 640 CURVE SMOOTH",
"350 640 OFFCURVE",
"380 628 OFFCURVE",
"401 617 CURVE SMOOTH",
"413 610 OFFCURVE",
"424 603 OFFCURVE",
"435 595 CURVE",
"445 595 LINE",
"480 655 LINE",
"467 665 OFFCURVE",
"451 674 OFFCURVE",
"434 682 CURVE SMOOTH",
"403 697 OFFCURVE",
"361 710 OFFCURVE",
"305 710 CURVE SMOOTH",
"156 710 OFFCURVE",
"55 610 OFFCURVE",
"55 350 CURVE SMOOTH",
"55 90 OFFCURVE",
"155 -10 OFFCURVE",
"315 -10 CURVE SMOOTH"
);
}
);
width = 515;
},
{
layerId = "6710F4E3-34F6-4C2D-8CE3-6A261897B433";
paths = (
{
closed = 1;
nodes = (
"387 -10 OFFCURVE",
"434 2 OFFCURVE",
"466 17 CURVE SMOOTH",
"485 25 OFFCURVE",
"501 34 OFFCURVE",
"515 45 CURVE",
"470 125 LINE",
"460 125 LINE",
"451 116 OFFCURVE",
"440 109 OFFCURVE",
"428 102 CURVE SMOOTH",
"407 91 OFFCURVE",
"377 80 OFFCURVE",
"340 80 CURVE SMOOTH",
"255 80 OFFCURVE",
"201 130 OFFCURVE",
"190 310 CURVE",
"415 310 LINE",
"415 400 LINE",
"190 400 LINE",
"201 570 OFFCURVE",
"255 620 OFFCURVE",
"330 620 CURVE SMOOTH",
"367 620 OFFCURVE",
"397 608 OFFCURVE",
"418 597 CURVE SMOOTH",
"430 590 OFFCURVE",
"441 583 OFFCURVE",
"450 575 CURVE",
"460 575 LINE",
"505 655 LINE",
"491 665 OFFCURVE",
"475 674 OFFCURVE",
"456 682 CURVE SMOOTH",
"424 697 OFFCURVE",
"377 710 OFFCURVE",
"320 710 CURVE SMOOTH",
"155 710 OFFCURVE",
"50 605 OFFCURVE",
"50 350 CURVE SMOOTH",
"50 95 OFFCURVE",
"154 -10 OFFCURVE",
"330 -10 CURVE SMOOTH"
);
}
);
width = 535;
}
);
unicode = 0404;
},
{
color = 4;
glyphname = "Ereversed-cy";
lastChange = "2016-09-19 21:25:12 +0000";
layers = (
{
layerId = UUID0;
paths = (
{
closed = 1;
nodes = (
"360 -10 OFFCURVE",
"460 90 OFFCURVE",
"460 350 CURVE SMOOTH",
"460 610 OFFCURVE",
"359 710 OFFCURVE",
"210 710 CURVE SMOOTH",
"154 710 OFFCURVE",
"112 697 OFFCURVE",
"81 682 CURVE SMOOTH",
"64 674 OFFCURVE",
"48 665 OFFCURVE",
"35 655 CURVE",
"70 595 LINE",
"80 595 LINE",
"91 603 OFFCURVE",
"102 610 OFFCURVE",
"114 617 CURVE SMOOTH",
"135 628 OFFCURVE",
"165 640 OFFCURVE",
"200 640 CURVE SMOOTH",
"284 640 OFFCURVE",
"351 579 OFFCURVE",
"359 390 CURVE",
"125 390 LINE",
"125 320 LINE",
"360 320 LINE",
"355 124 OFFCURVE",
"285 60 OFFCURVE",
"190 60 CURVE SMOOTH",
"155 60 OFFCURVE",
"125 71 OFFCURVE",
"104 82 CURVE SMOOTH",
"92 89 OFFCURVE",
"81 96 OFFCURVE",
"70 105 CURVE",
"60 105 LINE",
"25 45 LINE",
"38 34 OFFCURVE",
"54 25 OFFCURVE",
"71 17 CURVE SMOOTH",
"102 2 OFFCURVE",
"144 -10 OFFCURVE",
"200 -10 CURVE SMOOTH"
);
}
);
width = 515;
},
{
layerId = "6710F4E3-34F6-4C2D-8CE3-6A261897B433";
paths = (
{
closed = 1;
nodes = (
"381 -10 OFFCURVE",
"485 95 OFFCURVE",
"485 350 CURVE SMOOTH",
"485 605 OFFCURVE",
"380 710 OFFCURVE",
"215 710 CURVE SMOOTH",
"156 710 OFFCURVE",
"111 697 OFFCURVE",
"79 682 CURVE SMOOTH",
"60 674 OFFCURVE",
"44 665 OFFCURVE",
"30 655 CURVE",
"75 575 LINE",
"85 575 LINE",
"94 583 OFFCURVE",
"105 590 OFFCURVE",
"117 597 CURVE SMOOTH",
"138 608 OFFCURVE",
"166 620 OFFCURVE",
"205 620 CURVE SMOOTH",
"280 620 OFFCURVE",
"334 570 OFFCURVE",
"345 400 CURVE",
"120 400 LINE",
"120 310 LINE",
"345 310 LINE",
"334 130 OFFCURVE",
"280 80 OFFCURVE",
"195 80 CURVE SMOOTH",
"156 80 OFFCURVE",
"128 91 OFFCURVE",
"107 102 CURVE SMOOTH",
"95 109 OFFCURVE",
"84 116 OFFCURVE",
"75 125 CURVE",
"65 125 LINE",
"20 45 LINE",
"34 34 OFFCURVE",
"50 25 OFFCURVE",
"69 17 CURVE SMOOTH",
"101 2 OFFCURVE",
"146 -10 OFFCURVE",
"205 -10 CURVE SMOOTH"
);
}
);
width = 535;
}
);
unicode = 042D;
},
{
color = 4;
glyphname = "Tshe-cy";
lastChange = "2016-09-19 21:25:12 +0000";
layers = (
{
layerId = UUID0;
paths = (
{
closed = 1;
nodes = (
"240 0 LINE",
"240 365 LINE",
"273 372 LINE SMOOTH",
"294 376 OFFCURVE",
"322 380 OFFCURVE",
"355 380 CURVE SMOOTH",
"440 380 OFFCURVE",
"490 331 OFFCURVE",
"490 255 CURVE SMOOTH",
"490 0 LINE",
"590 0 LINE",
"590 255 LINE SMOOTH",
"590 370 OFFCURVE",
"511 450 OFFCURVE",
"380 450 CURVE SMOOTH",
"340 450 OFFCURVE",
"305 446 OFFCURVE",
"280 442 CURVE SMOOTH",
"240 435 LINE",
"240 630 LINE",
"420 630 LINE",
"420 700 LINE",
"0 700 LINE",
"0 630 LINE",
"140 630 LINE",
"140 0 LINE"
);
}
);
width = 650;
},
{
layerId = "6710F4E3-34F6-4C2D-8CE3-6A261897B433";
paths = (
{
closed = 1;
nodes = (
"270 0 LINE",
"270 355 LINE",
"297 362 LINE SMOOTH",
"314 366 OFFCURVE",
"337 370 OFFCURVE",
"365 370 CURVE SMOOTH",
"442 370 OFFCURVE",
"480 332 OFFCURVE",
"480 255 CURVE SMOOTH",
"480 0 LINE",
"620 0 LINE",
"620 255 LINE SMOOTH",
"620 380 OFFCURVE",
"541 460 OFFCURVE",
"390 460 CURVE SMOOTH",
"355 460 OFFCURVE",
"325 456 OFFCURVE",
"304 452 CURVE SMOOTH",
"292 449 OFFCURVE",
"281 447 OFFCURVE",
"270 445 CURVE",
"270 610 LINE",
"440 610 LINE",
"440 700 LINE",
"0 700 LINE",
"0 610 LINE",
"130 610 LINE",
"130 0 LINE"
);
}
);
width = 670;
}
);
unicode = 040B;
},
{
color = 4;
glyphname = "Iu-cy";
lastChange = "2016-09-19 21:25:12 +0000";
layers = (
{
layerId = UUID0;
paths = (
{
closed = 1;
nodes = (
"656 -10 OFFCURVE",
"755 90 OFFCURVE",
"755 350 CURVE SMOOTH",
"755 610 OFFCURVE",
"656 710 OFFCURVE",
"520 710 CURVE SMOOTH",
"389 710 OFFCURVE",
"296 620 OFFCURVE",
"285 390 CURVE",
"190 390 LINE",
"190 700 LINE",
"90 700 LINE",
"90 0 LINE",
"190 0 LINE",
"190 320 LINE",
"285 320 LINE",
"296 80 OFFCURVE",
"389 -10 OFFCURVE",
"520 -10 CURVE SMOOTH"
);
},
{
closed = 1;
nodes = (
"455 60 OFFCURVE",
"385 130 OFFCURVE",
"385 350 CURVE SMOOTH",
"385 570 OFFCURVE",
"455 640 OFFCURVE",
"520 640 CURVE SMOOTH",
"585 640 OFFCURVE",
"655 570 OFFCURVE",
"655 350 CURVE SMOOTH",
"655 130 OFFCURVE",
"585 60 OFFCURVE",
"520 60 CURVE SMOOTH"
);
}
);
width = 810;
},
{
layerId = "6710F4E3-34F6-4C2D-8CE3-6A261897B433";
paths = (
{
closed = 1;
nodes = (
"704 -10 OFFCURVE",
"810 95 OFFCURVE",
"810 350 CURVE SMOOTH",
"810 605 OFFCURVE",
"704 710 OFFCURVE",
"555 710 CURVE SMOOTH",
"410 710 OFFCURVE",
"311 611 OFFCURVE",
"300 400 CURVE",
"225 400 LINE",
"225 700 LINE",
"85 700 LINE",
"85 0 LINE",
"225 0 LINE",
"225 310 LINE",
"300 310 LINE",
"311 90 OFFCURVE",
"410 -10 OFFCURVE",
"555 -10 CURVE SMOOTH"
);
},
{
closed = 1;
nodes = (
"499 80 OFFCURVE",
"440 139 OFFCURVE",
"440 350 CURVE SMOOTH",
"440 561 OFFCURVE",
"499 620 OFFCURVE",
"555 620 CURVE SMOOTH",
"611 620 OFFCURVE",
"670 561 OFFCURVE",
"670 350 CURVE SMOOTH",
"670 139 OFFCURVE",
"611 80 OFFCURVE",
"555 80 CURVE SMOOTH"
);
}
);
width = 860;
}
);
unicode = 042E;
},
{
color = 4;
glyphname = "Ia-cy";
lastChange = "2016-09-19 21:25:12 +0000";
layers = (
{
layerId = UUID0;
paths = (
{
closed = 1;
nodes = (
"140 -10 OFFCURVE",
"176 25 OFFCURVE",
"195 90 CURVE SMOOTH",
"225 195 LINE SMOOTH",
"238 240 OFFCURVE",
"270 270 OFFCURVE",
"315 270 CURVE SMOOTH",
"380 270 LINE",
"380 0 LINE",
"480 0 LINE",
"480 700 LINE",
"305 700 LINE SMOOTH",
"134 700 OFFCURVE",
"55 621 OFFCURVE",
"55 485 CURVE SMOOTH",
"55 380 OFFCURVE",
"130 306 OFFCURVE",
"205 295 CURVE",
"193 292 OFFCURVE",
"182 286 OFFCURVE",
"172 279 CURVE SMOOTH",
"153 266 OFFCURVE",
"136 245 OFFCURVE",
"125 210 CURVE",
"95 105 LINE",
"87 74 OFFCURVE",
"70 60 OFFCURVE",
"55 60 CURVE SMOOTH",
"51 60 OFFCURVE",
"46 61 OFFCURVE",
"41 62 CURVE",
"35 65 LINE",
"30 65 LINE",
"20 0 LINE",
"24 -2 OFFCURVE",
"29 -4 OFFCURVE",
"35 -5 CURVE SMOOTH",
"46 -8 OFFCURVE",
"61 -10 OFFCURVE",
"80 -10 CURVE SMOOTH"
);
},
{
closed = 1;
nodes = (
"205 340 OFFCURVE",
"155 388 OFFCURVE",
"155 485 CURVE SMOOTH",
"155 582 OFFCURVE",
"205 630 OFFCURVE",
"305 630 CURVE SMOOTH",
"380 630 LINE",
"380 340 LINE",
"305 340 LINE"
);
}
);
width = 570;
},
{
layerId = "6710F4E3-34F6-4C2D-8CE3-6A261897B433";
paths = (
{
closed = 1;
nodes = (
"175 -10 OFFCURVE",
"221 34 OFFCURVE",
"236 90 CURVE SMOOTH",
"265 195 LINE SMOOTH",
"277 240 OFFCURVE",
"296 260 OFFCURVE",
"340 260 CURVE SMOOTH",
"385 260 LINE",
"385 0 LINE",
"525 0 LINE",
"525 700 LINE",
"329 700 LINE SMOOTH",
"140 700 OFFCURVE",
"59 620 OFFCURVE",
"59 479 CURVE SMOOTH",
"59 395 OFFCURVE",
"97 348 OFFCURVE",
"134 324 CURVE SMOOTH",
"156 309 OFFCURVE",
"181 300 OFFCURVE",
"210 295 CURVE",
"197 291 OFFCURVE",
"185 285 OFFCURVE",
"174 277 CURVE SMOOTH",
"154 262 OFFCURVE",
"132 240 OFFCURVE",
"120 200 CURVE SMOOTH",
"95 115 LINE SMOOTH",
"88 90 OFFCURVE",
"80 80 OFFCURVE",
"59 80 CURVE SMOOTH",
"54 80 OFFCURVE",
"50 81 OFFCURVE",
"46 82 CURVE SMOOTH",
"40 85 LINE",
"35 85 LINE",
"25 5 LINE",
"31 2 OFFCURVE",
"38 0 OFFCURVE",
"47 -3 CURVE SMOOTH",
"62 -7 OFFCURVE",
"84 -10 OFFCURVE",
"115 -10 CURVE SMOOTH"
);
},
{
closed = 1;
nodes = (
"238 350 OFFCURVE",
"199 389 OFFCURVE",
"199 480 CURVE SMOOTH",
"199 571 OFFCURVE",
"238 610 OFFCURVE",
"329 610 CURVE SMOOTH",
"385 610 LINE",
"385 350 LINE",
"329 350 LINE"
);
}
);
width = 610;
}
);
unicode = 042F;
},
{
color = 4;
glyphname = "Dje-cy";
lastChange = "2016-09-19 21:25:12 +0000";
layers = (
{
layerId = UUID0;
paths = (
{
closed = 1;
nodes = (
"526 -30 OFFCURVE",
"590 34 OFFCURVE",
"590 130 CURVE SMOOTH",
"590 255 LINE SMOOTH",
"590 370 OFFCURVE",
"511 450 OFFCURVE",
"380 450 CURVE SMOOTH",
"340 450 OFFCURVE",
"305 446 OFFCURVE",
"280 442 CURVE SMOOTH",
"240 435 LINE",
"240 630 LINE",
"420 630 LINE",
"420 700 LINE",
"0 700 LINE",
"0 630 LINE",
"140 630 LINE",
"140 0 LINE",
"240 0 LINE",
"240 365 LINE",
"273 372 LINE SMOOTH",
"294 376 OFFCURVE",
"322 380 OFFCURVE",
"355 380 CURVE SMOOTH",
"440 380 OFFCURVE",
"490 331 OFFCURVE",
"490 255 CURVE SMOOTH",
"490 130 LINE SMOOTH",
"490 70 OFFCURVE",
"460 40 OFFCURVE",
"415 40 CURVE SMOOTH",
"405 40 OFFCURVE",
"395 42 OFFCURVE",
"385 45 CURVE SMOOTH",
"380 46 OFFCURVE",
"375 48 OFFCURVE",
"370 50 CURVE",
"360 50 LINE",
"350 -15 LINE",
"358 -18 OFFCURVE",
"367 -20 OFFCURVE",
"376 -23 CURVE SMOOTH",
"392 -27 OFFCURVE",
"412 -30 OFFCURVE",
"435 -30 CURVE SMOOTH"
);
}
);
width = 640;
},
{
layerId = "6710F4E3-34F6-4C2D-8CE3-6A261897B433";
paths = (
{
closed = 1;
nodes = (
"551 -30 OFFCURVE",
"620 40 OFFCURVE",
"620 140 CURVE SMOOTH",
"620 255 LINE SMOOTH",
"620 380 OFFCURVE",
"541 460 OFFCURVE",
"390 460 CURVE SMOOTH",
"355 460 OFFCURVE",
"325 456 OFFCURVE",
"304 452 CURVE SMOOTH",
"292 449 OFFCURVE",
"281 447 OFFCURVE",
"270 445 CURVE",
"270 610 LINE",
"440 610 LINE",
"440 700 LINE",
"0 700 LINE",
"0 610 LINE",
"130 610 LINE",
"130 0 LINE",
"270 0 LINE",
"270 355 LINE",
"297 362 LINE SMOOTH",
"314 366 OFFCURVE",
"337 370 OFFCURVE",
"365 370 CURVE SMOOTH",
"442 370 OFFCURVE",
"480 332 OFFCURVE",
"480 255 CURVE SMOOTH",
"480 140 LINE SMOOTH",
"480 84 OFFCURVE",
"456 60 OFFCURVE",
"425 60 CURVE SMOOTH",
"411 60 OFFCURVE",
"399 62 OFFCURVE",
"389 65 CURVE SMOOTH",
"384 66 OFFCURVE",
"379 68 OFFCURVE",
"375 70 CURVE",
"365 70 LINE",
"350 -10 LINE",
"357 -14 OFFCURVE",
"365 -17 OFFCURVE",
"374 -20 CURVE SMOOTH",
"389 -25 OFFCURVE",
"410 -30 OFFCURVE",
"435 -30 CURVE SMOOTH"
);
}
);
width = 670;
}
);
unicode = 0402;
},
{
color = 4;
glyphname = "Yat-cy";
lastChange = "2016-09-19 21:25:12 +0000";
layers = (
{
background = {
paths = (
{
closed = 1;
nodes = (
"445 530 LINE",
"445 620 LINE",
"35 620 LINE",
"35 530 LINE"
);
},
{
closed = 1;
nodes = (
"354 360 LINE",
"445 360 OFFCURVE",
"484 321 OFFCURVE",
"484 225 CURVE SMOOTH",
"484 129 OFFCURVE",
"445 90 OFFCURVE",
"354 90 CURVE SMOOTH",
"289 90 LINE",
"289 360 LINE"
);
},
{
closed = 1;
nodes = (
"289 450 LINE",
"289 730 LINE",
"149 730 LINE",
"149 0 LINE",
"354 0 LINE SMOOTH",
"543 0 OFFCURVE",
"624 80 OFFCURVE",
"624 225 CURVE SMOOTH",
"624 370 OFFCURVE",
"543 450 OFFCURVE",
"354 450 CURVE SMOOTH"
);
}
);
};
layerId = UUID0;
paths = (
{
closed = 1;
nodes = (
"354 0 LINE SMOOTH",
"521 0 OFFCURVE",
"599 79 OFFCURVE",
"599 220 CURVE SMOOTH",
"599 361 OFFCURVE",
"521 440 OFFCURVE",
"354 440 CURVE SMOOTH",
"264 440 LINE",
"264 730 LINE",
"164 730 LINE",
"164 0 LINE"
);
},
{
closed = 1;
nodes = (
"264 370 LINE",
"354 370 LINE",
"451 370 OFFCURVE",
"499 320 OFFCURVE",
"499 220 CURVE SMOOTH",
"499 120 OFFCURVE",
"451 70 OFFCURVE",
"354 70 CURVE SMOOTH",
"264 70 LINE"
);
},
{
closed = 1;
nodes = (
"465 530 LINE",
"465 600 LINE",
"15 600 LINE",
"15 530 LINE"
);
}
);
width = 634;
},
{
background = {
paths = (
{
closed = 1;
nodes = (
"445 530 LINE",
"445 620 LINE",
"35 620 LINE",
"35 530 LINE"
);
},
{
closed = 1;
nodes = (
"354 360 LINE",
"445 360 OFFCURVE",
"484 321 OFFCURVE",
"484 225 CURVE SMOOTH",
"484 129 OFFCURVE",
"445 90 OFFCURVE",
"354 90 CURVE SMOOTH",
"289 90 LINE",
"289 360 LINE"
);
},
{
closed = 1;
nodes = (
"289 450 LINE",
"289 730 LINE",
"149 730 LINE",
"149 0 LINE",
"354 0 LINE SMOOTH",
"543 0 OFFCURVE",
"624 80 OFFCURVE",
"624 225 CURVE SMOOTH",
"624 370 OFFCURVE",
"543 450 OFFCURVE",
"354 450 CURVE SMOOTH"
);
}
);
};
layerId = "6710F4E3-34F6-4C2D-8CE3-6A261897B433";
paths = (
{
closed = 1;
nodes = (
"354 0 LINE SMOOTH",
"543 0 OFFCURVE",
"624 80 OFFCURVE",
"624 225 CURVE SMOOTH",
"624 370 OFFCURVE",
"543 450 OFFCURVE",
"354 450 CURVE SMOOTH",
"289 450 LINE",
"289 730 LINE",
"149 730 LINE",
"149 0 LINE"
);
},
{
closed = 1;
nodes = (
"289 360 LINE",
"354 360 LINE",
"445 360 OFFCURVE",
"484 321 OFFCURVE",
"484 225 CURVE SMOOTH",
"484 129 OFFCURVE",
"445 90 OFFCURVE",
"354 90 CURVE SMOOTH",
"289 90 LINE"
);
},
{
closed = 1;
nodes = (
"465 530 LINE",
"465 620 LINE",
"15 620 LINE",
"15 530 LINE"
);
}
);
width = 659;
}
);
rightMetricsKey = "Softsign-cy";
unicode = 0462;
},
{
color = 4;
glyphname = "Yusbig-cy";
lastChange = "2016-09-19 21:25:12 +0000";
layers = (
{
background = {
paths = (
{
closed = 1;
nodes = (
"650 700 LINE",
"190 700 LINE",
"190 630 LINE",
"650 630 LINE"
);
},
{
closed = 1;
nodes = (
"241 700 LINE",
"141 700 LINE",
"386 294 LINE",
"474 294 LINE",
"719 700 LINE",
"619 700 LINE",
"432 395 LINE",
"428 395 LINE"
);
}
);
};
guideLines = (
{
angle = 90;
position = "{380, 163}";
},
{
angle = 90;
position = "{480, 163}";
}
);
layerId = UUID0;
paths = (
{
closed = 1;
nodes = (
"150 -10 OFFCURVE",
"187 30 OFFCURVE",
"200 90 CURVE SMOOTH",
"235 250 LINE SMOOTH",
"246 295 OFFCURVE",
"274 325 OFFCURVE",
"325 325 CURVE SMOOTH",
"380 325 LINE",
"380 0 LINE",
"480 0 LINE",
"480 325 LINE",
"535 325 LINE SMOOTH",
"586 325 OFFCURVE",
"614 295 OFFCURVE",
"625 250 CURVE SMOOTH",
"660 90 LINE SMOOTH",
"673 30 OFFCURVE",
"710 -10 OFFCURVE",
"775 -10 CURVE SMOOTH",
"799 -10 OFFCURVE",
"819 -6 OFFCURVE",
"835 0 CURVE",
"825 65 LINE",
"820 65 LINE",
"812 61 OFFCURVE",
"808 60 OFFCURVE",
"800 60 CURVE SMOOTH",
"780 60 OFFCURVE",
"767 75 OFFCURVE",
"760 105 CURVE SMOOTH",
"725 265 LINE SMOOTH",
"704 348 OFFCURVE",
"681 386 OFFCURVE",
"537 394 CURVE",
"739 700 LINE",
"121 700 LINE",
"323 393 LINE",
"178 384 OFFCURVE",
"151 337 OFFCURVE",
"135 265 CURVE SMOOTH",
"100 105 LINE SMOOTH",
"93 75 OFFCURVE",
"79 60 OFFCURVE",
"60 60 CURVE SMOOTH",
"51 60 OFFCURVE",
"47 61 OFFCURVE",
"40 65 CURVE",
"35 65 LINE",
"25 0 LINE",
"40 -6 OFFCURVE",
"56 -10 OFFCURVE",
"85 -10 CURVE SMOOTH"
);
},
{
closed = 1;
nodes = (
"269 630 LINE",
"591 630 LINE",
"432 375 LINE",
"428 375 LINE"
);
}
);
width = 860;
},
{
background = {
paths = (
{
closed = 1;
nodes = (
"645 700 LINE",
"225 700 LINE",
"225 610 LINE",
"645 610 LINE"
);
}
);
};
layerId = "6710F4E3-34F6-4C2D-8CE3-6A261897B433";
paths = (
{
closed = 1;
nodes = (
"181 -10 OFFCURVE",
"223 34 OFFCURVE",
"235 90 CURVE SMOOTH",
"270 250 LINE SMOOTH",
"281 295 OFFCURVE",
"300 315 OFFCURVE",
"345 315 CURVE SMOOTH",
"380 315 LINE",
"380 0 LINE",
"520 0 LINE",
"520 315 LINE",
"555 315 LINE SMOOTH",
"600 315 OFFCURVE",
"619 295 OFFCURVE",
"630 250 CURVE SMOOTH",
"665 90 LINE SMOOTH",
"677 34 OFFCURVE",
"719 -10 OFFCURVE",
"790 -10 CURVE SMOOTH",
"820 -10 OFFCURVE",
"844 -8 OFFCURVE",
"875 5 CURVE",
"865 85 LINE",
"860 85 LINE",
"854 81 OFFCURVE",
"850 80 OFFCURVE",
"841 80 CURVE SMOOTH",
"822 80 OFFCURVE",
"810 92 OFFCURVE",
"805 115 CURVE SMOOTH",
"775 255 LINE SMOOTH",
"754 343 OFFCURVE",
"677 368 OFFCURVE",
"572 374 CURVE",
"771 700 LINE",
"119 700 LINE",
"318 373 LINE",
"202 365 OFFCURVE",
"143 331 OFFCURVE",
"125 255 CURVE SMOOTH",
"95 115 LINE SMOOTH",
"90 92 OFFCURVE",
"78 80 OFFCURVE",
"59 80 CURVE SMOOTH",
"54 80 OFFCURVE",
"50 81 OFFCURVE",
"46 82 CURVE",
"40 85 LINE",
"35 85 LINE",
"25 5 LINE",
"47 -3 LINE",
"62 -7 OFFCURVE",
"82 -10 OFFCURVE",
"110 -10 CURVE SMOOTH"
);
},
{
closed = 1;
nodes = (
"296 610 LINE",
"599 610 LINE",
"451 365 LINE",
"447 365 LINE"
);
}
);
width = 900;
}
);
leftMetricsKey = "=|Ka-cy";
rightMetricsKey = "Ka-cy";
unicode = 046A;
},
{
color = 4;
glyphname = "Izhitsa-cy";
lastChange = "2016-09-19 21:25:12 +0000";
layers = (
{
background = {
paths = (
{
closed = 1;
nodes = (
"554 640 OFFCURVE",
"560 638 OFFCURVE",
"566 635 CURVE",
"570 635 LINE",
"575 700 LINE",
"559 706 OFFCURVE",
"544 710 OFFCURVE",
"520 710 CURVE SMOOTH",
"444 710 OFFCURVE",
"416 658 OFFCURVE",
"385 540 CURVE SMOOTH",
"287 165 LINE",
"340 0 LINE",
"485 540 LINE SMOOTH",
"507 622 OFFCURVE",
"522 640 OFFCURVE",
"545 640 CURVE SMOOTH"
);
}
);
};
layerId = UUID0;
paths = (
{
closed = 1;
nodes = (
"335 0 LINE",
"480 540 LINE SMOOTH",
"502 622 OFFCURVE",
"522 640 OFFCURVE",
"545 640 CURVE SMOOTH",
"554 640 OFFCURVE",
"560 638 OFFCURVE",
"566 635 CURVE",
"570 635 LINE",
"575 700 LINE",
"559 706 OFFCURVE",
"544 710 OFFCURVE",
"520 710 CURVE SMOOTH",
"444 710 OFFCURVE",
"416 658 OFFCURVE",
"385 540 CURVE SMOOTH",
"290 175 LINE SMOOTH",
"286 160 OFFCURVE",
"283 144 OFFCURVE",
"280 129 CURVE",
"277 105 LINE",
"273 105 LINE",
"269 129 LINE SMOOTH",
"266 144 OFFCURVE",
"264 160 OFFCURVE",
"260 175 CURVE SMOOTH",
"115 700 LINE",
"15 700 LINE",
"210 0 LINE"
);
}
);
width = 550;
},
{
background = {
paths = (
{
closed = 1;
nodes = (
"548 621 OFFCURVE",
"571 621 CURVE SMOOTH",
"577 621 OFFCURVE",
"584 619 OFFCURVE",
"591 615 CURVE",
"597 615 LINE",
"607 695 LINE",
"578 706 OFFCURVE",
"564 710 OFFCURVE",
"537 710 CURVE SMOOTH",
"437 710 OFFCURVE",
"401 649 OFFCURVE",
"377 540 CURVE SMOOTH",
"306 223 LINE",
"374 0 LINE",
"517 540 LINE SMOOTH",
"532 597 OFFCURVE"
);
}
);
};
layerId = "6710F4E3-34F6-4C2D-8CE3-6A261897B433";
paths = (
{
closed = 1;
nodes = (
"365 0 LINE",
"507 540 LINE SMOOTH",
"521 593 OFFCURVE",
"545 621 OFFCURVE",
"571 621 CURVE SMOOTH",
"578 621 OFFCURVE",
"585 619 OFFCURVE",
"592 615 CURVE",
"597 615 LINE",
"607 695 LINE",
"578 706 OFFCURVE",
"564 710 OFFCURVE",
"537 710 CURVE SMOOTH",
"437 710 OFFCURVE",
"401 649 OFFCURVE",
"377 540 CURVE SMOOTH",
"310 240 LINE",
"305 224 OFFCURVE",
"303 205 OFFCURVE",
"300 190 CURVE",
"297 165 LINE",
"293 165 LINE",
"289 191 LINE",
"286 206 OFFCURVE",
"284 224 OFFCURVE",
"280 240 CURVE SMOOTH",
"155 700 LINE",
"15 700 LINE",
"215 0 LINE"
);
}
);
width = 592;
}
);
unicode = 0474;
},
{
color = 4;
glyphname = "Ghemiddlehook-cy";
lastChange = "2016-09-19 21:25:12 +0000";
layers = (
{
components = (
{
name = "Ge-cy";
}
);
layerId = UUID0;
paths = (
{
closed = 1;
nodes = (
"476 -100 OFFCURVE",
"540 -36 OFFCURVE",
"540 60 CURVE SMOOTH",
"540 215 LINE SMOOTH",
"540 330 OFFCURVE",
"461 410 OFFCURVE",
"330 410 CURVE SMOOTH",
"290 410 OFFCURVE",
"255 406 OFFCURVE",
"230 402 CURVE SMOOTH",
"190 395 LINE",
"190 325 LINE",
"223 332 LINE SMOOTH",
"244 336 OFFCURVE",
"272 340 OFFCURVE",
"305 340 CURVE SMOOTH",
"390 340 OFFCURVE",
"440 291 OFFCURVE",
"440 215 CURVE SMOOTH",
"440 60 LINE SMOOTH",
"440 0 OFFCURVE",
"410 -30 OFFCURVE",
"365 -30 CURVE SMOOTH",
"355 -30 OFFCURVE",
"345 -27 OFFCURVE",
"335 -25 CURVE SMOOTH",
"330 -24 OFFCURVE",
"325 -22 OFFCURVE",
"320 -20 CURVE",
"310 -20 LINE",
"300 -85 LINE",
"308 -88 OFFCURVE",
"317 -90 OFFCURVE",
"326 -93 CURVE SMOOTH",
"342 -98 OFFCURVE",
"362 -100 OFFCURVE",
"385 -100 CURVE SMOOTH"
);
}
);
width = 580;
},
{
components = (
{
name = "Ge-cy";
}
);
layerId = "6710F4E3-34F6-4C2D-8CE3-6A261897B433";
paths = (
{
closed = 1;
nodes = (
"506 -100 OFFCURVE",
"575 -30 OFFCURVE",
"575 70 CURVE SMOOTH",
"575 205 LINE SMOOTH",
"575 330 OFFCURVE",
"496 410 OFFCURVE",
"345 410 CURVE SMOOTH",
"310 410 OFFCURVE",
"280 406 OFFCURVE",
"259 402 CURVE SMOOTH",
"247 400 OFFCURVE",
"236 397 OFFCURVE",
"225 395 CURVE",
"225 305 LINE",
"252 312 LINE SMOOTH",
"269 316 OFFCURVE",
"292 320 OFFCURVE",
"320 320 CURVE SMOOTH",
"397 320 OFFCURVE",
"435 282 OFFCURVE",
"435 205 CURVE SMOOTH",
"435 70 LINE SMOOTH",
"435 14 OFFCURVE",
"411 -10 OFFCURVE",
"380 -10 CURVE SMOOTH",
"364 -10 OFFCURVE",
"348 -9 OFFCURVE",
"330 0 CURVE",
"320 0 LINE",
"305 -80 LINE",
"325 -92 OFFCURVE",
"354 -100 OFFCURVE",
"390 -100 CURVE SMOOTH"
);
}
);
width = 610;
}
);
unicode = 0494;
},
{
color = 4;
glyphname = "Zhedescender-cy";
lastChange = "2016-09-19 21:25:12 +0000";
layers = (
{
components = (
{
name = "Zhe-cy";
}
);
layerId = UUID0;
paths = (
{
closed = 1;
nodes = (
"835 -150 LINE",
"835 0 LINE",
"740 0 LINE",
"755 -150 LINE"
);
}
);
width = 860;
},
{
components = (
{
name = "Zhe-cy";
}
);
layerId = "6710F4E3-34F6-4C2D-8CE3-6A261897B433";
paths = (
{
closed = 1;
nodes = (
"875 -150 LINE",
"875 5 LINE",
"750 0 LINE",
"770 -150 LINE"
);
}
);
width = 900;
}
);
unicode = 0496;
},
{
color = 4;
glyphname = "Zedescender-cy";
lastChange = "2016-09-19 21:25:12 +0000";
layers = (
{
components = (
{
name = "Ze-cy";
}
);
layerId = UUID0;
paths = (
{
closed = 1;
nodes = (
"290 -150 LINE",
"290 0 LINE",
"195 0 LINE",
"210 -150 LINE"
);
}
);
width = 520;
},
{
components = (
{
name = "Ze-cy";
}
);
layerId = "6710F4E3-34F6-4C2D-8CE3-6A261897B433";
paths = (
{
closed = 1;
nodes = (
"320 -150 LINE",
"320 5 LINE",
"195 0 LINE",
"215 -150 LINE"
);
}
);
width = 535;
}
);
unicode = 0498;
},
{
color = 4;
glyphname = "Kadescender-cy";
lastChange = "2016-09-19 21:25:12 +0000";
layers = (
{
components = (
{
name = "Ka-cy";
}
);
layerId = UUID0;
paths = (
{
closed = 1;
nodes = (
"560 -150 LINE",
"560 0 LINE",
"465 0 LINE",
"480 -150 LINE"
);
}
);
width = 585;
},
{
components = (
{
name = "Ka-cy";
}
);
layerId = "6710F4E3-34F6-4C2D-8CE3-6A261897B433";
paths = (
{
closed = 1;
nodes = (
"590 -150 LINE",
"590 5 LINE",
"465 0 LINE",
"485 -150 LINE"
);
}
);
width = 615;
}
);
unicode = 049A;
},
{
color = 4;
glyphname = "Kaverticalstroke-cy";
lastChange = "2016-09-19 21:25:12 +0000";
layers = (
{
background = {
anchors = (
{
name = _center;
position = "{293, 350}";
},
{
name = bottomright;
position = "{405, 0}";
},
{
name = center;
position = "{293, 350}";
},
{
name = top;
position = "{293, 700}";
}
);
paths = (
{
closed = 1;
nodes = (
"392 368 OFFCURVE",
"407 373 OFFCURVE",
"420 380 CURVE SMOOTH",
"443 392 OFFCURVE",
"468 415 OFFCURVE",
"475 455 CURVE SMOOTH",
"500 595 LINE SMOOTH",
"506 626 OFFCURVE",
"520 640 OFFCURVE",
"540 640 CURVE SMOOTH",
"545 640 OFFCURVE",
"550 638 OFFCURVE",
"554 637 CURVE SMOOTH",
"557 636 OFFCURVE",
"559 636 OFFCURVE",
"560 635 CURVE",
"565 635 LINE",
"575 700 LINE",
"560 705 LINE SMOOTH",
"549 709 OFFCURVE",
"535 710 OFFCURVE",
"515 710 CURVE SMOOTH",
"450 710 OFFCURVE",
"411 670 OFFCURVE",
"400 610 CURVE SMOOTH",
"375 470 LINE SMOOTH",
"367 425 OFFCURVE",
"336 395 OFFCURVE",
"280 395 CURVE SMOOTH",
"190 395 LINE",
"190 700 LINE",
"90 700 LINE",
"90 0 LINE",
"190 0 LINE",
"190 325 LINE",
"290 325 LINE SMOOTH",
"341 325 OFFCURVE",
"369 295 OFFCURVE",
"380 250 CURVE",
"415 90 LINE SMOOTH",
"428 30 OFFCURVE",
"465 -10 OFFCURVE",
"530 -10 CURVE SMOOTH",
"549 -10 OFFCURVE",
"564 -9 OFFCURVE",
"575 -5 CURVE SMOOTH",
"581 -3 OFFCURVE",
"586 -2 OFFCURVE",
"590 0 CURVE",
"580 65 LINE",
"575 65 LINE",
"569 62 LINE",
"564 61 OFFCURVE",
"559 60 OFFCURVE",
"555 60 CURVE SMOOTH",
"535 60 OFFCURVE",
"522 75 OFFCURVE",
"515 105 CURVE SMOOTH",
"480 265 LINE",
"469 308 OFFCURVE",
"444 332 OFFCURVE",
"420 347 CURVE SMOOTH",
"406 356 OFFCURVE",
"391 361 OFFCURVE",
"375 365 CURVE"
);
},
{
closed = 1;
nodes = (
"270 210 LINE",
"315 210 LINE",
"315 490 LINE",
"270 490 LINE"
);
}
);
};
components = (
{
name = "verticalbar-cy.case";
transform = "{1, 0, 0, 1, 220, -17}";
}
);
layerId = UUID0;
paths = (
{
closed = 1;
nodes = (
"549 -10 OFFCURVE",
"564 -9 OFFCURVE",
"575 -5 CURVE SMOOTH",
"581 -3 OFFCURVE",
"586 -2 OFFCURVE",
"590 0 CURVE",
"580 65 LINE",
"575 65 LINE",
"569 62 LINE",
"564 61 OFFCURVE",
"559 60 OFFCURVE",
"555 60 CURVE SMOOTH",
"535 60 OFFCURVE",
"522 75 OFFCURVE",
"515 105 CURVE SMOOTH",
"480 265 LINE",
"469 308 OFFCURVE",
"444 332 OFFCURVE",
"420 347 CURVE SMOOTH",
"406 356 OFFCURVE",
"391 361 OFFCURVE",
"375 365 CURVE",
"392 368 OFFCURVE",
"407 373 OFFCURVE",
"420 380 CURVE SMOOTH",
"443 392 OFFCURVE",
"468 415 OFFCURVE",
"475 455 CURVE SMOOTH",
"500 595 LINE SMOOTH",
"506 626 OFFCURVE",
"520 640 OFFCURVE",
"540 640 CURVE SMOOTH",
"545 640 OFFCURVE",
"550 638 OFFCURVE",
"554 637 CURVE SMOOTH",
"557 636 OFFCURVE",
"559 636 OFFCURVE",
"560 635 CURVE",
"565 635 LINE",
"575 700 LINE",
"560 705 LINE SMOOTH",
"549 709 OFFCURVE",
"535 710 OFFCURVE",
"515 710 CURVE SMOOTH",
"450 710 OFFCURVE",
"411 670 OFFCURVE",
"400 610 CURVE SMOOTH",
"375 470 LINE SMOOTH",
"367 425 OFFCURVE",
"336 395 OFFCURVE",
"280 395 CURVE SMOOTH",
"190 395 LINE",
"190 700 LINE",
"90 700 LINE",
"90 0 LINE",
"190 0 LINE",
"190 325 LINE",
"290 325 LINE SMOOTH",
"341 325 OFFCURVE",
"369 295 OFFCURVE",
"380 250 CURVE",
"415 90 LINE SMOOTH",
"428 30 OFFCURVE",
"465 -10 OFFCURVE",
"530 -10 CURVE SMOOTH"
);
}
);
width = 615;
},
{
background = {
anchors = (
{
name = _center;
position = "{288, 350}";
},
{
name = bottomright;
position = "{395, 0}";
},
{
name = center;
position = "{288, 350}";
},
{
name = top;
position = "{298, 700}";
}
);
paths = (
{
closed = 1;
nodes = (
"421 368 OFFCURVE",
"436 374 OFFCURVE",
"450 383 CURVE SMOOTH",
"474 398 OFFCURVE",
"500 423 OFFCURVE",
"510 470 CURVE SMOOTH",
"535 585 LINE SMOOTH",
"540 608 OFFCURVE",
"551 620 OFFCURVE",
"570 620 CURVE SMOOTH",
"575 620 OFFCURVE",
"580 618 OFFCURVE",
"584 617 CURVE SMOOTH",
"587 616 OFFCURVE",
"589 616 OFFCURVE",
"590 615 CURVE",
"595 615 LINE",
"605 695 LINE",
"581 702 LINE SMOOTH",
"566 706 OFFCURVE",
"545 710 OFFCURVE",
"520 710 CURVE SMOOTH",
"449 710 OFFCURVE",
"407 666 OFFCURVE",
"395 610 CURVE SMOOTH",
"365 475 LINE SMOOTH",
"354 424 OFFCURVE",
"336 405 OFFCURVE",
"255 405 CURVE SMOOTH",
"225 405 LINE",
"225 700 LINE",
"85 700 LINE",
"85 0 LINE",
"225 0 LINE",
"225 315 LINE",
"270 315 LINE SMOOTH",
"345 315 OFFCURVE",
"364 295 OFFCURVE",
"375 250 CURVE",
"410 90 LINE SMOOTH",
"422 34 OFFCURVE",
"464 -10 OFFCURVE",
"535 -10 CURVE SMOOTH",
"562 -10 OFFCURVE",
"583 -7 OFFCURVE",
"598 -3 CURVE",
"620 5 LINE",
"610 85 LINE",
"605 85 LINE",
"599 82 LINE",
"594 81 OFFCURVE",
"589 80 OFFCURVE",
"586 80 CURVE SMOOTH",
"567 80 OFFCURVE",
"555 92 OFFCURVE",
"550 115 CURVE SMOOTH",
"520 255 LINE",
"509 302 OFFCURVE",
"482 330 OFFCURVE",
"455 346 CURVE SMOOTH",
"440 355 OFFCURVE",
"423 362 OFFCURVE",
"405 365 CURVE"
);
},
{
closed = 1;
nodes = (
"259 200 LINE",
"317 200 LINE",
"317 500 LINE",
"259 500 LINE"
);
}
);
};
components = (
{
name = "verticalbar-cy.case";
transform = "{1, 0, 0, 1, 209, -17}";
}
);
layerId = "6710F4E3-34F6-4C2D-8CE3-6A261897B433";
paths = (
{
closed = 1;
nodes = (
"562 -10 OFFCURVE",
"583 -7 OFFCURVE",
"598 -3 CURVE",
"620 5 LINE",
"610 85 LINE",
"605 85 LINE",
"599 82 LINE",
"594 81 OFFCURVE",
"589 80 OFFCURVE",
"586 80 CURVE SMOOTH",
"567 80 OFFCURVE",
"555 92 OFFCURVE",
"550 115 CURVE SMOOTH",
"520 255 LINE",
"509 302 OFFCURVE",
"482 330 OFFCURVE",
"455 346 CURVE SMOOTH",
"440 355 OFFCURVE",
"423 362 OFFCURVE",
"405 365 CURVE",
"421 368 OFFCURVE",
"436 374 OFFCURVE",
"450 383 CURVE SMOOTH",
"474 398 OFFCURVE",
"500 423 OFFCURVE",
"510 470 CURVE SMOOTH",
"535 585 LINE SMOOTH",
"540 608 OFFCURVE",
"551 620 OFFCURVE",
"570 620 CURVE SMOOTH",
"575 620 OFFCURVE",
"580 618 OFFCURVE",
"584 617 CURVE SMOOTH",
"587 616 OFFCURVE",
"589 616 OFFCURVE",
"590 615 CURVE",
"595 615 LINE",
"605 695 LINE",
"581 702 LINE SMOOTH",
"566 706 OFFCURVE",
"545 710 OFFCURVE",
"520 710 CURVE SMOOTH",
"449 710 OFFCURVE",
"407 666 OFFCURVE",
"395 610 CURVE SMOOTH",
"365 475 LINE SMOOTH",
"354 424 OFFCURVE",
"336 405 OFFCURVE",
"255 405 CURVE SMOOTH",
"225 405 LINE",
"225 700 LINE",
"85 700 LINE",
"85 0 LINE",
"225 0 LINE",
"225 315 LINE",
"270 315 LINE SMOOTH",
"345 315 OFFCURVE",
"364 295 OFFCURVE",
"375 250 CURVE",
"410 90 LINE SMOOTH",
"422 34 OFFCURVE",
"464 -10 OFFCURVE",
"535 -10 CURVE SMOOTH"
);
}
);
width = 645;
}
);
leftMetricsKey = "En-cy";
rightMetricsKey = "Ka-cy";
unicode = 049C;
},
{
color = 4;
glyphname = "Kabashkir-cy";
lastChange = "2016-09-19 21:25:12 +0000";
layers = (
{
components = (
{
name = "Ka-cy";
transform = "{1, 0, 0, 1, 110, 0}";
}
);
layerId = UUID0;
paths = (
{
closed = 1;
nodes = (
"200 630 LINE",
"300 700 LINE",
"10 700 LINE",
"10 630 LINE"
);
}
);
width = 695;
},
{
components = (
{
name = "Ka-cy";
transform = "{1, 0, 0, 1, 135, 0}";
}
);
layerId = "6710F4E3-34F6-4C2D-8CE3-6A261897B433";
paths = (
{
closed = 1;
nodes = (
"220 610 LINE",
"360 700 LINE",
"10 700 LINE",
"10 610 LINE"
);
}
);
width = 750;
}
);
leftMetricsKey = T;
rightMetricsKey = "Ka-cy";
unicode = 04A0;
},
{
color = 4;
glyphname = "Esdescender-cy";
lastChange = "2016-09-19 21:25:12 +0000";
layers = (
{
components = (
{
name = "Es-cy";
}
);
layerId = UUID0;
paths = (
{
closed = 1;
nodes = (
"355 -150 LINE",
"355 0 LINE",
"260 0 LINE",
"275 -150 LINE"
);
}
);
width = 515;
},
{
components = (
{
name = "Es-cy";
}
);
layerId = "6710F4E3-34F6-4C2D-8CE3-6A261897B433";
paths = (
{
closed = 1;
nodes = (
"378 -150 LINE",
"378 5 LINE",
"253 0 LINE",
"273 -150 LINE"
);
}
);
width = 535;
}
);
unicode = 04AA;
},
{
color = 4;
glyphname = "Chekhakassian-cy";
lastChange = "2016-09-19 21:25:12 +0000";
layers = (
{
components = (
{
name = "Che-cy";
}
);
layerId = UUID0;
paths = (
{
closed = 1;
nodes = (
"425 -150 LINE",
"440 0 LINE",
"510 0 LINE",
"510 70 LINE",
"345 70 LINE",
"345 -150 LINE"
);
}
);
width = 600;
},
{
background = {
components = (
{
name = "Che-cy";
}
);
paths = (
{
closed = 1;
nodes = (
"356 90 LINE",
"314 -150 LINE",
"419 -150 LINE",
"465 0 LINE",
"545 0 LINE",
"561 90 LINE"
);
}
);
};
components = (
{
name = "Che-cy";
}
);
layerId = "6710F4E3-34F6-4C2D-8CE3-6A261897B433";
paths = (
{
closed = 1;
nodes = (
"445 -150 LINE",
"465 0 LINE",
"545 0 LINE",
"545 90 LINE",
"340 90 LINE",
"340 -150 LINE"
);
}
);
width = 630;
}
);
leftMetricsKey = "Che-cy";
rightMetricsKey = "En-cy";
unicode = 04CB;
},
{
color = 4;
glyphname = "Schwa-cy";
lastChange = "2016-09-19 21:25:12 +0000";
layers = (
{
background = {
components = (
{
name = H;
transform = "{1, 0, 0, 1, -7, 0}";
}
);
paths = (
{
closed = 1;
nodes = (
"148 570 OFFCURVE",
"218 640 OFFCURVE",
"293 640 CURVE SMOOTH",
"368 640 OFFCURVE",
"438 570 OFFCURVE",
"438 350 CURVE SMOOTH",
"438 130 OFFCURVE",
"368 60 OFFCURVE",
"293 60 CURVE SMOOTH",
"218 60 OFFCURVE",
"148 130 OFFCURVE",
"148 350 CURVE SMOOTH"
);
},
{
closed = 1;
nodes = (
"538 610 OFFCURVE",
"438 710 OFFCURVE",
"293 710 CURVE SMOOTH",
"148 710 OFFCURVE",
"48 610 OFFCURVE",
"48 350 CURVE SMOOTH",
"48 90 OFFCURVE",
"148 -10 OFFCURVE",
"293 -10 CURVE SMOOTH",
"438 -10 OFFCURVE",
"538 90 OFFCURVE",
"538 350 CURVE SMOOTH"
);
}
);
};
layerId = UUID0;
paths = (
{
closed = 1;
nodes = (
"439 -10 OFFCURVE",
"540 105 OFFCURVE",
"539 340 CURVE SMOOTH",
"538 602 OFFCURVE",
"439 710 OFFCURVE",
"285 710 CURVE SMOOTH",
"214 710 OFFCURVE",
"148 683 OFFCURVE",
"80 623 CURVE",
"109 577 LINE",
"123 577 LINE",
"188 627 OFFCURVE",
"234 640 OFFCURVE",
"279 640 CURVE SMOOTH",
"398 640 OFFCURVE",
"438 546 OFFCURVE",
"438 366 CURVE SMOOTH",
"438 348 LINE SMOOTH",
"438 145 OFFCURVE",
"387 61 OFFCURVE",
"302 61 CURVE SMOOTH",
"222 61 OFFCURVE",
"155 137 OFFCURVE",
"155 320 CURVE",
"474 320 LINE",
"474 390 LINE",
"83 390 LINE",
"55 362 LINE",
"55 341 LINE SMOOTH",
"55 102 OFFCURVE",
"162 -10 OFFCURVE",
"302 -10 CURVE SMOOTH"
);
}
);
width = 594;
},
{
background = {
components = (
{
name = O;
transform = "{1, 0, 0, 1, -14, 0}";
}
);
guideLines = (
{
position = "{276, 620}";
}
);
};
guideLines = (
{
position = "{286, 80}";
},
{
position = "{276, 620}";
}
);
layerId = "6710F4E3-34F6-4C2D-8CE3-6A261897B433";
paths = (
{
closed = 1;
nodes = (
"459 -11 OFFCURVE",
"559 105 OFFCURVE",
"559 350 CURVE SMOOTH",
"559 588 OFFCURVE",
"465 710 OFFCURVE",
"289 710 CURVE SMOOTH",
"203 710 OFFCURVE",
"136 683 OFFCURVE",
"67 624 CURVE",
"104 564 LINE",
"118 564 LINE",
"151 596 OFFCURVE",
"216 620 OFFCURVE",
"275 620 CURVE SMOOTH",
"386 620 OFFCURVE",
"438 536 OFFCURVE",
"433 377 CURVE SMOOTH",
"433 336 LINE SMOOTH",
"438 163 OFFCURVE",
"393 80 OFFCURVE",
"301 80 CURVE SMOOTH",
"213 80 OFFCURVE",
"169 155 OFFCURVE",
"169 310 CURVE",
"479 310 LINE",
"479 400 LINE",
"92 400 LINE",
"50 358 LINE",
"50 336 LINE SMOOTH",
"50 105 OFFCURVE",
"149 -11 OFFCURVE",
"301 -11 CURVE SMOOTH"
);
}
);
width = 609;
}
);
leftMetricsKey = O;
rightMetricsKey = O;
unicode = 04D8;
},
{
color = 4;
glyphname = "be-cy";
lastChange = "2016-09-19 21:25:12 +0000";
layers = (
{
layerId = UUID0;
paths = (
{
closed = 1;
nodes = (
"390 -10 OFFCURVE",
"475 74 OFFCURVE",
"475 230 CURVE SMOOTH",
"475 386 OFFCURVE",
"390 470 OFFCURVE",
"290 470 CURVE SMOOTH",
"225 470 OFFCURVE",
"176 441 OFFCURVE",
"145 390 CURVE",
"145 526 OFFCURVE",
"199 581 OFFCURVE",
"330 605 CURVE SMOOTH",
"470 630 LINE",
"455 715 LINE",
"315 690 LINE SMOOTH",
"135 658 OFFCURVE",
"55 581 OFFCURVE",
"55 325 CURVE SMOOTH",
"55 230 LINE SMOOTH",
"55 74 OFFCURVE",
"140 -10 OFFCURVE",
"265 -10 CURVE SMOOTH"
);
},
{
closed = 1;
nodes = (
"205 60 OFFCURVE",
"155 110 OFFCURVE",
"155 230 CURVE SMOOTH",
"155 345 OFFCURVE",
"205 395 OFFCURVE",
"265 395 CURVE SMOOTH",
"325 395 OFFCURVE",
"375 345 OFFCURVE",
"375 230 CURVE SMOOTH",
"375 110 OFFCURVE",
"325 60 OFFCURVE",
"265 60 CURVE SMOOTH"
);
}
);
width = 525;
},
{
layerId = "6710F4E3-34F6-4C2D-8CE3-6A261897B433";
paths = (
{
closed = 1;
nodes = (
"425 -10 OFFCURVE",
"510 74 OFFCURVE",
"510 230 CURVE SMOOTH",
"510 386 OFFCURVE",
"425 470 OFFCURVE",
"305 470 CURVE SMOOTH",
"239 470 OFFCURVE",
"191 442 OFFCURVE",
"160 385 CURVE",
"160 511 OFFCURVE",
"210 561 OFFCURVE",
"350 585 CURVE SMOOTH",
"500 610 LINE",
"480 715 LINE",
"330 690 LINE SMOOTH",
"140 658 OFFCURVE",
"50 570 OFFCURVE",
"50 325 CURVE SMOOTH",
"50 230 LINE SMOOTH",
"50 74 OFFCURVE",
"135 -10 OFFCURVE",
"280 -10 CURVE SMOOTH"
);
},
{
closed = 1;
nodes = (
"229 80 OFFCURVE",
"190 121 OFFCURVE",
"190 230 CURVE SMOOTH",
"190 335 OFFCURVE",
"229 375 OFFCURVE",
"280 375 CURVE SMOOTH",
"331 375 OFFCURVE",
"370 335 OFFCURVE",
"370 230 CURVE SMOOTH",
"370 121 OFFCURVE",
"331 80 OFFCURVE",
"280 80 CURVE SMOOTH"
);
}
);
width = 555;
}
);
unicode = 0431;
},
{
color = 4;
glyphname = "ve-cy";
lastChange = "2016-09-19 21:25:12 +0000";
layers = (
{
layerId = UUID0;
paths = (
{
closed = 1;
nodes = (
"265 0 LINE SMOOTH",
"405 0 OFFCURVE",
"465 60 OFFCURVE",
"465 135 CURVE SMOOTH",
"465 191 OFFCURVE",
"436 220 OFFCURVE",
"407 239 CURVE SMOOTH",
"390 249 OFFCURVE",
"371 256 OFFCURVE",
"350 260 CURVE",
"367 265 OFFCURVE",
"383 272 OFFCURVE",
"397 281 CURVE SMOOTH",
"421 297 OFFCURVE",
"445 325 OFFCURVE",
"445 370 CURVE SMOOTH",
"445 439 OFFCURVE",
"384 500 OFFCURVE",
"265 500 CURVE SMOOTH",
"75 500 LINE",
"75 0 LINE"
);
},
{
closed = 1;
nodes = (
"175 220 LINE",
"265 220 LINE",
"336 220 OFFCURVE",
"365 190 OFFCURVE",
"365 145 CURVE SMOOTH",
"365 100 OFFCURVE",
"336 70 OFFCURVE",
"265 70 CURVE SMOOTH",
"175 70 LINE"
);
},
{
closed = 1;
nodes = (
"175 430 LINE",
"265 430 LINE",
"316 430 OFFCURVE",
"345 400 OFFCURVE",
"345 360 CURVE SMOOTH",
"345 320 OFFCURVE",
"316 290 OFFCURVE",
"265 290 CURVE SMOOTH",
"175 290 LINE"
);
}
);
width = 510;
},
{
layerId = "6710F4E3-34F6-4C2D-8CE3-6A261897B433";
paths = (
{
closed = 1;
nodes = (
"270 0 LINE SMOOTH",
"435 0 OFFCURVE",
"495 60 OFFCURVE",
"495 135 CURVE SMOOTH",
"495 191 OFFCURVE",
"463 220 OFFCURVE",
"432 239 CURVE SMOOTH",
"414 249 OFFCURVE",
"393 256 OFFCURVE",
"370 260 CURVE",
"389 265 OFFCURVE",
"407 272 OFFCURVE",
"422 281 CURVE SMOOTH",
"449 297 OFFCURVE",
"475 325 OFFCURVE",
"475 370 CURVE SMOOTH",
"475 439 OFFCURVE",
"415 500 OFFCURVE",
"270 500 CURVE SMOOTH",
"70 500 LINE",
"70 0 LINE"
);
},
{
closed = 1;
nodes = (
"210 210 LINE",
"270 210 LINE",
"330 210 OFFCURVE",
"355 185 OFFCURVE",
"355 150 CURVE SMOOTH",
"355 115 OFFCURVE",
"330 90 OFFCURVE",
"270 90 CURVE SMOOTH",
"210 90 LINE"
);
},
{
closed = 1;
nodes = (
"210 410 LINE",
"270 410 LINE",
"310 410 OFFCURVE",
"335 386 OFFCURVE",
"335 355 CURVE SMOOTH",
"335 324 OFFCURVE",
"310 300 OFFCURVE",
"270 300 CURVE SMOOTH",
"210 300 LINE"
);
}
);
width = 530;
}
);
unicode = 0432;
},
{
color = 4;
glyphname = "ge-cy";
lastChange = "2016-09-19 21:25:12 +0000";
layers = (
{
anchors = (
{
name = bottomright;
position = "{75, 0}";
},
{
name = center;
position = "{159, 250}";
},
{
name = top;
position = "{260, 500}";
}
);
layerId = UUID0;
paths = (
{
closed = 1;
nodes = (
"175 0 LINE",
"175 430 LINE",
"405 430 LINE",
"405 500 LINE",
"75 500 LINE",
"75 0 LINE"
);
}
);
width = 415;
},
{
anchors = (
{
name = bottomright;
position = "{70, 0}";
},
{
name = center;
position = "{167, 250}";
},
{
name = top;
position = "{275, 500}";
}
);
layerId = "6710F4E3-34F6-4C2D-8CE3-6A261897B433";
paths = (
{
closed = 1;
nodes = (
"210 0 LINE",
"210 410 LINE",
"420 410 LINE",
"420 500 LINE",
"70 500 LINE",
"70 0 LINE"
);
}
);
width = 430;
}
);
unicode = 0433;
},
{
color = 4;
glyphname = "gheupturn-cy";
lastChange = "2016-09-19 21:25:12 +0000";
layers = (
{
layerId = UUID0;
paths = (
{
closed = 1;
nodes = (
"175 0 LINE",
"175 430 LINE",
"405 430 LINE",
"405 590 LINE",
"325 590 LINE",
"315 500 LINE",
"75 500 LINE",
"75 0 LINE"
);
}
);
width = 415;
},
{
layerId = "6710F4E3-34F6-4C2D-8CE3-6A261897B433";
paths = (
{
closed = 1;
nodes = (
"210 0 LINE",
"210 410 LINE",
"420 410 LINE",
"420 600 LINE",
"325 600 LINE",
"310 500 LINE",
"70 500 LINE",
"70 0 LINE"
);
}
);
width = 430;
}
);
unicode = 0491;
},
{
color = 4;
glyphname = "de-cy";
lastChange = "2016-09-19 21:25:12 +0000";
layers = (
{
layerId = UUID0;
paths = (
{
closed = 1;
nodes = (
"90 -140 LINE",
"105 0 LINE",
"430 0 LINE",
"445 -140 LINE",
"525 -140 LINE",
"525 70 LINE",
"460 70 LINE",
"460 500 LINE",
"125 500 LINE",
"110 220 LINE SMOOTH",
"107 172 OFFCURVE",
"94 136 OFFCURVE",
"81 109 CURVE SMOOTH",
"74 94 OFFCURVE",
"65 81 OFFCURVE",
"55 70 CURVE",
"5 70 LINE",
"5 -140 LINE"
);
},
{
closed = 1;
nodes = (
"165 81 OFFCURVE",
"174 94 OFFCURVE",
"181 109 CURVE SMOOTH",
"194 136 OFFCURVE",
"207 172 OFFCURVE",
"210 220 CURVE",
"220 430 LINE",
"360 430 LINE",
"360 70 LINE",
"155 70 LINE"
);
}
);
width = 560;
},
{
layerId = "6710F4E3-34F6-4C2D-8CE3-6A261897B433";
paths = (
{
closed = 1;
nodes = (
"115 -140 LINE",
"135 0 LINE",
"440 0 LINE",
"460 -140 LINE",
"565 -140 LINE",
"565 90 LINE",
"500 90 LINE",
"500 500 LINE",
"125 500 LINE",
"105 210 LINE SMOOTH",
"102 167 OFFCURVE",
"90 137 OFFCURVE",
"78 118 CURVE SMOOTH",
"71 107 OFFCURVE",
"63 97 OFFCURVE",
"55 90 CURVE",
"5 90 LINE",
"5 -140 LINE"
);
},
{
closed = 1;
nodes = (
"199 97 OFFCURVE",
"207 107 OFFCURVE",
"214 118 CURVE SMOOTH",
"226 137 OFFCURVE",
"238 167 OFFCURVE",
"241 210 CURVE SMOOTH",
"255 410 LINE",
"360 410 LINE",
"360 90 LINE",
"191 90 LINE"
);
}
);
width = 600;
}
);
unicode = 0434;
},
